<svg width="87" height="70" viewBox="0 0 87 70" fill="none" xmlns="http://www.w3.org/2000/svg">
<rect x="8.00098" y="6.33801" width="72" height="24" rx="3.75" fill="#1C58D9" fill-opacity="0.12"/>
<rect x="0.000976562" y="33.338" width="87" height="25" rx="3.75" fill="#1C58D9" fill-opacity="0.12"/>
<path d="M40.3214 3.649C41.4303 1.45027 44.5697 1.45027 45.6786 3.64899L73.7146 59.2371C74.7209 61.2323 73.2707 63.588 71.0359 63.588H14.9641C12.7294 63.588 11.2791 61.2323 12.2854 59.2371L40.3214 3.649Z" fill="#FFBC1F"/>
<path d="M38.7676 1.87415C39.6917 0.0418768 42.3083 0.0418774 43.2324 1.87415L71.2686 57.462C72.1071 59.1247 70.8983 61.0879 69.0361 61.088H12.9639C11.1017 61.0879 9.8929 59.1247 10.7314 57.462L38.7676 1.87415Z" stroke="#3F4350"/>
<path d="M49.542 3.578L52.8888 10.058M74.922 52.718L68.5073 40.298L66.8339 37.058L64.6027 32.738L61.5347 26.798M59.3035 22.478L55.12 14.378" stroke="#3F4350" stroke-opacity="0.56" stroke-width="1.08" stroke-linecap="round"/>
<path d="M38.0164 24.6213L40.2971 39.2682C40.3191 39.5588 40.4554 39.8307 40.6786 40.0292C40.9018 40.2277 41.1954 40.338 41.5002 40.338C41.8051 40.338 42.0986 40.2277 42.3219 40.0292C42.5451 39.8307 42.6814 39.5588 42.7034 39.2682L44.984 24.6213C45.3987 18.9103 37.5955 18.9103 38.0164 24.6213Z" fill="#3F4350"/>
<path d="M41.0072 46.338C41.798 46.3394 42.5706 46.5752 43.2275 47.0156C43.8843 47.456 44.396 48.0812 44.6976 48.8123C44.9993 49.5433 45.0774 50.3473 44.9222 51.1228C44.7671 51.8982 44.3856 52.6103 43.8259 53.169C43.2662 53.7277 42.5535 54.1079 41.7777 54.2617C41.002 54.4154 40.1981 54.3358 39.4676 54.0328C38.7371 53.7299 38.1128 53.2172 37.6736 52.5596C37.2344 51.9019 37 51.1288 37 50.338C37 49.8121 37.1036 49.2914 37.3051 48.8056C37.5066 48.3198 37.8019 47.8786 38.1741 47.507C38.5463 47.1355 38.9881 46.841 39.4743 46.6404C39.9604 46.4398 40.4813 46.3371 41.0072 46.338Z" fill="#3F4350"/>
<path d="M48.4619 67.838H70.0619" stroke="#3F4350" stroke-opacity="0.56" stroke-width="1.08" stroke-linecap="round"/>
<path d="M10.001 49.338L26.001 18.338" stroke="#3F4350" stroke-opacity="0.56" stroke-width="1.08" stroke-linecap="round"/>
</svg>
