<svg width="150" height="100" viewBox="0 0 150 100" fill="none" xmlns="http://www.w3.org/2000/svg">
<circle cx="75.3829" cy="46.3829" r="39.7162" fill="white"/>
<circle cx="75.3829" cy="46.3829" r="40.2162" stroke="#3F4350" stroke-opacity="0.75"/>
<circle cx="76.6667" cy="47.6667" r="38" fill="#1C58D9" fill-opacity="0.08"/>
<path d="M77.5864 19.1085C80.1555 19.9298 80.0502 18.3082 81.6716 20.1966C82.6052 21.2847 84.2899 23.2644 86.2904 23.7558C86.5711 23.826 87.1958 23.2223 87.1958 22.7449C87.1958 22.2676 85.792 21.2567 85.0199 21.0461C84.2477 20.8355 85.3357 19.3472 84.2758 18.8909C83.2159 18.4346 82.0437 16.7427 81.6225 15.4159C81.2013 14.089 79.3342 15.2053 78.6955 14.9385C78.0567 14.6717 77.2916 14.8332 76.5897 15.8441C75.8878 16.855 76.9266 18.8979 77.5864 19.1085Z" fill="#1C58D9" fill-opacity="0.16"/>
<path d="M91.499 56.2592C91.499 55.7046 86.417 52.9386 85.7993 52.9035C84.7886 52.8404 83.4128 52.3349 82.4862 52.9035C82.0949 53.1257 81.7626 53.4387 81.5175 53.8162C81.3421 54.1461 80.3524 53.5354 79.9733 53.7389C79.0608 54.2233 78.5694 52.6438 78.8011 52.0401C79.4398 50.5588 77.1866 51.4925 76.955 51.0853C77.2287 51.5697 76.8778 46.8732 76.0916 49.5198C75.495 51.5276 73.1576 49.232 73.4384 47.7718C73.8736 45.5183 77.2709 45.1884 78.0149 45.5885C78.394 45.7921 79.7768 47.7929 79.9522 47.7367C80.3313 47.6174 79.7276 45.3779 79.6504 45.0831C79.3837 43.9879 81.4754 43.6229 81.6228 42.4786C81.7492 41.5098 82.409 41.8468 83.0267 41.3343C83.9743 40.5831 83.2303 39.1791 84.4306 38.463C84.8447 38.2173 86.396 38.0418 86.5995 37.6066C86.8031 37.1713 85.294 36.1253 86.5995 35.8164C87.7507 35.5356 88.9229 36.034 89.2388 34.3702C89.5195 32.8609 87.8349 32.5169 87.3506 31.3445C87.1962 30.9935 87.0067 28.9717 86.2907 29.3438C85.4133 29.8071 84.8868 30.9233 84.1428 29.5965C82.8442 27.2026 79.6294 26.1707 81.1385 29.9335C81.9106 31.8781 79.0327 37.7961 78.5905 32.3274C78.4431 30.4249 72.7575 29.8563 74.6667 27.7502C76.576 25.6442 79.2503 25.5459 79.9663 22.2674C80.963 17.7184 77.8113 21.5654 76.2039 20.709C73.8033 19.3962 75.8389 20.1052 74.5965 21.8041C74.1262 22.45 72.582 21.3969 71.8941 21.5023C71.2062 21.6076 69.6268 23.0046 69.1846 22.127C68.3844 20.5194 62.7479 19.5296 61.2248 20.0982C58.045 21.2916 56.943 19.677 53.7703 19.0522C52.6682 18.8346 47.2563 18.6801 47.6073 20.5545C47.8601 21.2415 48.1555 21.9121 48.4917 22.5623C48.8357 23.5943 47.2844 22.801 46.9264 23.0467C47.5584 23.6072 48.2191 24.1344 48.9059 24.6262C49.4253 25.1598 46.9194 25.8056 46.6667 26.6902C46.1684 28.4873 50.1132 27.9749 49.3902 30.1371C49.1656 30.79 46.9124 31.8641 46.6948 34.0754C46.6527 34.4966 49.5025 31.3375 51.3416 31.9694C52.963 32.5591 52.8226 28.1504 54.8512 28.1504C58.6136 28.1504 59.3436 31.8149 61.323 34.272C62.2496 35.4163 62.9936 35.8936 63.1621 37.3889C63.3306 38.8842 63.0147 40.4778 63.5201 41.8046C64.0255 43.1314 64.9801 43.1595 65.6259 44.1845C66.398 45.3849 66.8332 46.5573 67.879 47.6033C69.3952 49.1267 71.9783 51.4574 74.3649 51.1134C74.8352 51.0432 76.6111 52.0541 77.0112 52.356C77.5654 52.877 78.0386 53.478 78.415 54.1391C78.8362 54.7007 80.1699 54.3497 80.7525 54.6165C81.3351 54.8832 79.3977 58.8286 80.0997 59.8395C80.8016 60.8504 80.8648 62.2615 82.0089 63.16C83.153 64.0586 83.4128 64.0797 83.5602 65.5609C83.7778 67.9618 83.0758 70.3908 82.5003 72.6303C82.1984 73.7746 82.8021 75.0452 82.3528 76.1404C81.7913 77.5093 81.4123 78.6887 81.9036 80.2121C82.753 82.8587 87.5191 83.2869 84.7114 80.9773C83.5111 79.9945 86.0099 77.6216 85.2308 77.397C83.8901 76.8354 85.4764 76.3299 85.6519 75.7472C86.0099 74.5889 91.3235 69.7941 91.7166 69.0008C92.0465 68.3339 91.8359 67.646 92.3764 67.0703C92.9169 66.4946 93.7803 66.6561 94.4822 66.2068C95.8861 65.2661 95.3807 63.6725 95.9633 62.3738C97.1144 59.7974 97.5988 60.8153 96.0194 58.8005C95.4228 58.0704 91.6043 58.3372 91.499 56.2592Z" fill="#1C58D9" fill-opacity="0.16"/>
<path d="M63.0702 17.277C64.0388 18.2879 65.0005 16.7505 65.176 17.277C65.3514 17.8035 65.3655 18.8145 66.5166 18.8917C67.6678 18.9689 65.4427 19.7201 66.1867 20.036C66.9308 20.3519 68.5241 21.3628 69.1067 20.9416C69.6893 20.5204 70.3843 20.1974 70.644 20.5133C70.9037 20.8293 72.5041 20.4642 72.0478 19.9307C71.5916 19.3971 70.3772 18.1405 70.4264 17.4174C70.4755 16.6944 71.8303 14.834 70.3211 14.9955C69.957 15.0412 69.6253 15.2278 69.397 15.5151C69.1687 15.8025 69.062 16.1678 69.0997 16.5329C69.0997 17.0664 67.6959 15.7396 67.4011 15.7607C67.1062 15.7817 66.1236 14.146 65.7515 14.146C65.3795 14.146 62.8876 13.3457 63.0982 14.146C63.3088 14.9463 62.1015 16.2661 63.0702 17.277Z" fill="#1C58D9" fill-opacity="0.16"/>
<path d="M85.3498 24.8729C84.5988 24.4447 83.1739 22.4861 82.5421 23.1179C81.9104 23.7497 82.7036 25.224 83.244 25.8277C83.7845 26.4314 86.0096 27.8495 85.6867 27.2317C85.3638 26.6139 86.8239 25.7224 85.3498 24.8729Z" fill="#1C58D9" fill-opacity="0.16"/>
<path d="M64.5374 11.3659C64.9235 11.3308 65.5272 12.6716 66.0957 12.8191C66.6643 12.9665 66.9451 13.6334 67.1556 13.7878C67.3662 13.9423 69.7458 13.0297 70.3073 12.8191C70.8688 12.6085 69.6054 11.2957 69.1351 10.376C68.6648 9.45639 69.0298 11.8994 68.3629 11.4993C67.6961 11.0991 67.7944 10.5515 66.9591 10.5515C66.1238 10.5515 66.7064 8.88776 65.6816 9.23877C64.6567 9.58978 64.1513 11.401 64.5374 11.3659Z" fill="#1C58D9" fill-opacity="0.16"/>
<path d="M73.0729 14.5531C72.3709 14.6935 72.5043 15.1498 72.1112 15.5429C71.9277 15.7305 71.825 15.9825 71.825 16.2449C71.825 16.5073 71.9277 16.7593 72.1112 16.9469C72.4692 17.4032 73.0307 18.2176 73.4589 17.4383C73.8871 16.6591 73.4589 16.0343 73.4589 15.5289C73.4589 15.0234 73.4168 14.4829 73.0729 14.5531Z" fill="#1C58D9" fill-opacity="0.16"/>
<path d="M74.484 17.0308C74.6595 17.452 74.9824 16.2866 75.6703 15.6829C76.3582 15.0792 75.3333 13.5768 74.6946 14.342C74.2664 14.8685 74.3085 16.6025 74.484 17.0308Z" fill="#1C58D9" fill-opacity="0.16"/>
<path d="M74.3578 17.5575C73.9928 18.077 73.698 19.467 74.3578 19.5793C74.5023 19.596 74.6486 19.5723 74.7805 19.5108C74.9123 19.4492 75.0245 19.3523 75.1045 19.2308C75.1846 19.1093 75.2293 18.9679 75.2338 18.8225C75.2382 18.677 75.2023 18.5332 75.1299 18.407C74.821 17.8805 74.5122 17.3469 74.3578 17.5575Z" fill="#1C58D9" fill-opacity="0.16"/>
<path d="M77.0319 8.59962C76.4002 8.88744 77.9585 9.41396 76.8915 9.70179C75.8246 9.98962 75.7965 10.8671 74.877 10.123C73.9575 9.37885 72.9537 10.3757 73.6486 10.825C74.3435 11.2743 75.5087 12.3835 75.4736 12.9872C75.4385 13.591 76.5757 13.8718 77.6356 13.8016C78.6955 13.7314 79.973 14.0473 80.0081 13.591C80.0432 13.1346 80.1695 12.9381 80.0432 12.5941C79.8607 12.0957 79.4044 11.6042 78.3094 12.0325C77.2144 12.4607 76.4984 12.2431 76.344 11.7096C76.1896 11.176 78.4919 10.1511 79.5097 10.8601C80.5275 11.5692 81.4962 10.474 80.7522 9.97557C80.0081 9.47713 80.5065 8.95062 81.0189 8.88042C81.3909 8.83128 81.7208 7.89056 82.0016 7.16047C80.4403 6.90791 78.865 6.75085 77.2846 6.69012C77.2916 7.69401 77.6637 8.31179 77.0319 8.59962Z" fill="#1C58D9" fill-opacity="0.16"/>
<path d="M67.6191 7.71504C68.321 8.01691 69.4862 7.71505 69.2686 7.1745C68.6299 7.28682 67.9911 7.40616 67.3594 7.53954C67.4296 7.61916 67.519 7.67956 67.6191 7.71504Z" fill="#1C58D9" fill-opacity="0.16"/>
<path d="M68.054 8.31195C67.0573 7.79947 67.1134 9.05608 67.5697 9.55451C68.026 10.0529 69.3456 8.94376 68.054 8.31195Z" fill="#1C58D9" fill-opacity="0.16"/>
<path d="M74.1191 6.69038C74.4254 6.74567 74.7117 6.88049 74.9495 7.08132C75.1873 7.28215 75.3681 7.54194 75.4739 7.83467C75.6072 8.28396 76.6812 7.30816 76.6952 6.66932H75.6704C75.151 6.6623 74.6386 6.66932 74.1191 6.69038Z" fill="#1C58D9" fill-opacity="0.16"/>
<path d="M72.0127 8.1649C71.5634 8.78268 71.9495 9.52682 72.4829 8.90904C73.0164 8.29127 72.5882 6.72577 73.0094 7.39971C73.4306 8.07364 74.2167 9.1407 74.7432 9.18984C75.2696 9.23899 74.8134 8.56505 74.7432 8.00343C74.673 7.44182 73.4165 6.90829 73.5569 6.71875C72.7708 6.76087 71.9916 6.82404 71.2195 6.90829C71.774 7.27334 72.3566 7.72263 72.0127 8.1649Z" fill="#1C58D9" fill-opacity="0.16"/>
<path d="M74.3576 13.4868C74.9823 13.7395 74.3576 12.2161 74.3576 12.2161C73.7048 12.6022 73.7399 13.227 74.3576 13.4868Z" fill="#1C58D9" fill-opacity="0.16"/>
<path d="M72.1116 12.5246C72.2169 12.9528 72.8907 13.0932 73.2487 12.5246C73.6067 11.9559 73.2487 9.892 72.7433 10.5449C72.2379 11.1978 71.6553 10.8959 70.6375 10.5449C69.6197 10.1939 72.0133 12.0753 72.1116 12.5246Z" fill="#1C58D9" fill-opacity="0.16"/>
<path d="M79.0323 48.6919C79.9026 48.5866 80.4361 49.6466 81.4188 49.5975C82.4015 49.5483 83.8896 51.0366 84.7389 50.1521C85.4409 49.45 81.7066 48.8533 80.5274 48.2145C79.3481 47.5757 78.1689 48.7972 79.0323 48.6919Z" fill="#1C58D9" fill-opacity="0.16"/>
<path d="M83.3699 8.77428C84.5912 9.36398 84.3806 9.34291 83.6366 9.91155C82.8925 10.4802 83.1593 11.7157 84.8018 11.6315C86.4443 11.5473 87.4621 9.91155 88.2062 12.2142C88.9502 14.5168 88.4167 17.03 89.3713 17.7391C90.326 18.4481 89.5328 18.9255 89.3713 19.5854C89.2099 20.2453 89.6381 20.7226 90.3821 20.512C91.1262 20.3014 90.9156 21.6844 90.3821 22.2671C89.8487 22.8498 89.2169 23.966 90.8594 25.9878C92.502 28.0096 92.7196 27.7358 93.246 28.4308C93.7725 29.1258 94.2077 28.1711 94.3621 27.3708C94.5165 26.5705 93.9901 23.7554 95.8783 23.7554C96.4664 23.749 97.0369 23.5539 97.5058 23.1987C97.9746 22.8436 98.317 22.3472 98.4824 21.7827C98.693 21.3053 100.181 21.3545 100.974 20.6665C101.767 19.9785 102.469 19.5362 102.49 17.1564C97.0349 12.0929 90.2529 8.68439 82.9347 7.32812C82.7592 7.8757 82.7662 8.49347 83.3699 8.77428Z" fill="#1C58D9" fill-opacity="0.16"/>
<path d="M110.968 18.5282C108.228 15.089 104.908 11.981 101.009 9.20217C97.8913 7.1504 94.7276 5.49402 91.5184 4.23287C83.7015 1.16103 75.6148 0.434064 67.2686 2.04998M116.284 27.1047C117.859 30.4856 119.008 34.1098 119.732 37.9787C120.601 42.6586 120.764 47.2338 120.219 51.7034M83.8034 90.4421C74.0325 92.1934 64.6569 90.9296 55.6972 86.6207C53.8198 85.7178 51.9606 84.6812 50.1199 83.5107C45.2345 79.9068 41.2617 75.8454 38.1979 71.3241M31.3399 54.5134C30.2563 48.6793 30.2921 42.9563 31.4476 37.3443C32.6152 31.6731 34.9261 26.1152 38.3804 20.6708M113.785 22.5051C114.225 23.2085 114.645 23.924 115.043 24.6516" stroke="#3F4350" stroke-opacity="0.48"/>
<path d="M100.192 88.48L89.3333 99.204V43.9459C89.3333 42.8414 90.2287 41.9459 91.3332 41.9459H143.785C144.889 41.9459 145.785 42.8414 145.785 43.9459V85.9031C145.785 87.0076 144.889 87.9031 143.785 87.9031H101.597C101.071 87.9031 100.566 88.1104 100.192 88.48Z" fill="#3F4350" fill-opacity="0.08"/>
<path d="M103.418 86.8674L92.5591 97.5914V42.3333C92.5591 41.2287 93.4545 40.3333 94.5591 40.3333H147.011C148.115 40.3333 149.011 41.2287 149.011 42.3333V84.2904C149.011 85.395 148.115 86.2904 147.011 86.2904H104.823C104.297 86.2904 103.792 86.4977 103.418 86.8674Z" fill="white"/>
<path d="M94.5591 40.8333H147.01C147.839 40.8333 148.51 41.5049 148.51 42.3333V84.2903C148.51 85.1188 147.839 85.7903 147.01 85.7903H104.823C104.165 85.7904 103.534 86.05 103.066 86.512L93.0591 96.3939V42.3333C93.0591 41.5049 93.7307 40.8333 94.5591 40.8333Z" stroke="#3F4350" stroke-opacity="0.8"/>
<path d="M108.151 54.3889H121.054M133.957 54.3889H129.118M121.054 54.3889V48.8008M121.054 54.3889H129.118M129.118 54.3889C129.118 54.3889 127.505 63.1703 121.86 67.9601C116.215 72.75 109.764 75.1449 109.764 75.1449" stroke="#3F4350" stroke-linecap="round" stroke-linejoin="round"/>
<path d="M131.806 75.1452C131.806 75.1452 126.833 71.9706 122.129 68.0023C117.425 64.0341 114.064 58.4785 114.064 58.4785" stroke="#3F4350" stroke-linecap="round" stroke-linejoin="round"/>
<path d="M45.6145 51.6304L56.4731 62.3544V7.09631C56.4731 5.99174 55.5777 5.09631 54.4731 5.09631H2.02153C0.916962 5.09631 0.0215302 5.99174 0.0215302 7.09631V49.0534C0.0215302 50.158 0.916962 51.0534 2.02153 51.0534H44.2091C44.7352 51.0534 45.2402 51.2607 45.6145 51.6304Z" fill="#3F4350" fill-opacity="0.08"/>
<path d="M45.593 46.5341L56.4517 57.2581V2C56.4517 0.89543 55.5562 0 54.4517 0H2.00005C0.895477 0 4.57764e-05 0.895429 4.57764e-05 2V43.9571C4.57764e-05 45.0617 0.895477 45.9571 2.00005 45.9571H44.1876C44.7138 45.9571 45.2187 46.1644 45.593 46.5341Z" fill="white"/>
<path d="M54.4517 0.5H2.00049C1.17206 0.5 0.500488 1.17157 0.500488 2V43.957C0.500488 44.7855 1.17206 45.457 2.00049 45.457H44.188C44.8455 45.4571 45.477 45.7167 45.9448 46.1787L55.9517 56.0605V2C55.9517 1.17157 55.2801 0.5 54.4517 0.5Z" stroke="#3F4350" stroke-opacity="0.8"/>
<path d="M17.7419 33.8708L20.823 26.6127M38.1721 33.8708L34.9848 26.6127M34.9848 26.6127L27.7839 10.2148L22.7629 22.0428L20.823 26.6127M34.9848 26.6127H20.823" stroke="#3F4350" stroke-linecap="round" stroke-linejoin="round"/>
</svg>
