<svg width="184" height="113" viewBox="0 0 184 113" fill="none" xmlns="http://www.w3.org/2000/svg">
<rect x="2.74512" y="15" width="181" height="78" rx="5.625" fill="#3F4350" fill-opacity="0.12"/>
<path d="M11.4834 28L16.9999 33.5618V59L172 59L172 68" stroke="#3F4350" stroke-opacity="0.24" stroke-linecap="round"/>
<circle cx="2.5" cy="2.5" r="2.5" transform="matrix(1 0 0 -1 7 29)" fill="#3F4350" fill-opacity="0.32"/>
<path d="M59.1304 15H126.87L131 108H55L59.1304 15Z" fill="#3F4350" fill-opacity="0.24"/>
<rect width="92" height="5" transform="matrix(1 0 0 -1 47 113)" fill="#3F4350" fill-opacity="0.4"/>
<rect x="27" y="9" width="131" height="86" rx="4" fill="white" stroke="#3F4350" stroke-width="4"/>
<circle cx="87.9995" cy="41.0007" r="5" fill="#3F4350" fill-opacity="0.32"/>
<path d="M95.9995 41.0007H149.056" stroke="#3F4350" stroke-opacity="0.32" stroke-linecap="round"/>
<path d="M95.9995 45.0007H149.056" stroke="#3F4350" stroke-opacity="0.32" stroke-linecap="round"/>
<path d="M95.9995 37.0007H109.175" stroke="#3F4350" stroke-opacity="0.32" stroke-linecap="round"/>
<circle cx="87.9995" cy="60.0005" r="5" fill="#3F4350" fill-opacity="0.32"/>
<path d="M95.9995 60.0005H149.056" stroke="#3F4350" stroke-opacity="0.32" stroke-linecap="round"/>
<path d="M95.9995 64.0005H149.056" stroke="#3F4350" stroke-opacity="0.32" stroke-linecap="round"/>
<path d="M95.9995 56.0005H109.175" stroke="#3F4350" stroke-opacity="0.32" stroke-linecap="round"/>
<circle cx="87.9995" cy="79.0002" r="5" fill="#3F4350" fill-opacity="0.32"/>
<path d="M95.9995 79.0002H149.056" stroke="#3F4350" stroke-opacity="0.32" stroke-linecap="round"/>
<path d="M95.9995 83.0002H149.056" stroke="#3F4350" stroke-opacity="0.32" stroke-linecap="round"/>
<path d="M95.9995 75.0002H109.175" stroke="#3F4350" stroke-opacity="0.32" stroke-linecap="round"/>
<rect x="31" y="13" width="46" height="78" fill="#1C58D9" fill-opacity="0.16"/>
<path d="M46.8108 20.0273L63.5001 20.0273" stroke="#3F4350" stroke-opacity="0.32" stroke-linecap="round"/>
<path d="M46.8108 22.6628L56.473 22.6628" stroke="#3F4350" stroke-opacity="0.32" stroke-linecap="round"/>
<circle cx="38.5091" cy="20.5105" r="4.34771" fill="#3F4350" fill-opacity="0.32"/>
<circle cx="36.4795" cy="36.1602" r="2" fill="#3F4350" fill-opacity="0.32"/>
<path d="M42.4189 36.1602H67.0137" stroke="#3F4350" stroke-opacity="0.32" stroke-linecap="round"/>
<circle cx="36.4795" cy="43.1602" r="2" fill="#3F4350" fill-opacity="0.32"/>
<path d="M42.4189 43.1602H61.7434" stroke="#3F4350" stroke-opacity="0.32" stroke-linecap="round"/>
<circle cx="36.4795" cy="51.1602" r="2" fill="#3F4350" fill-opacity="0.32"/>
<path d="M42.4189 51.1602H69.6489" stroke="#3F4350" stroke-opacity="0.32" stroke-linecap="round"/>
<circle cx="36.4795" cy="58.1602" r="2" fill="#3F4350" fill-opacity="0.32"/>
<path d="M42.4189 58.1602H67.0137" stroke="#3F4350" stroke-opacity="0.32" stroke-linecap="round"/>
<circle cx="36.4795" cy="65.1602" r="2" fill="#3F4350" fill-opacity="0.32"/>
<path d="M42.4189 65.1602H61.7434" stroke="#3F4350" stroke-opacity="0.32" stroke-linecap="round"/>
<circle cx="36.4795" cy="72.1602" r="2" fill="#3F4350" fill-opacity="0.32"/>
<path d="M42.4189 72.1602H69.6489" stroke="#3F4350" stroke-opacity="0.32" stroke-linecap="round"/>
<path d="M147 101.5H119.5" stroke="#3F4350" stroke-linecap="round" stroke-linejoin="round"/>
<path d="M116 101.5H110" stroke="#3F4350" stroke-linecap="round"/>
<path d="M107 101.5H101" stroke="#3F4350" stroke-linecap="round"/>
<path d="M29 13C29 11.8954 29.8954 11 31 11H154C155.105 11 156 11.8954 156 13V30H29V13Z" fill="#28427B"/>
<path d="M50 18H74.5948" stroke="white" stroke-linecap="round"/>
<path d="M50 22H131" stroke="white" stroke-linecap="round"/>
<circle cx="39.5" cy="20.5" r="5" stroke="white"/>
<line x1="39.5" y1="20" x2="39.5" y2="23" stroke="white"/>
<line x1="39.5" y1="20" x2="39.5" y2="23" stroke="white"/>
<line x1="39.5" y1="18" x2="39.5" y2="19" stroke="white"/>
<circle cx="172" cy="84" r="2" transform="rotate(-90 172 84)" fill="#3F4350" fill-opacity="0.32"/>
<circle cx="172" cy="78" r="2" transform="rotate(-90 172 78)" fill="#3F4350" fill-opacity="0.32"/>
<circle cx="172" cy="72" r="2" transform="rotate(-90 172 72)" fill="#3F4350" fill-opacity="0.32"/>
</svg>
