<svg width="101" height="77" viewBox="0 0 101 77" fill="none" xmlns="http://www.w3.org/2000/svg">
<rect y="9" width="84" height="24" rx="3.75" fill="#1C58D9" fill-opacity="0.12"/>
<rect x="14" y="36" width="87" height="25" rx="3.75" fill="#1C58D9" fill-opacity="0.12"/>
<rect x="28.0276" y="9.33704" width="48.1218" height="58.8953" rx="2" fill="#28427B"/>
<rect x="23" width="50.505" height="65.3594" rx="2" fill="white"/>
<rect x="23.5" y="0.5" width="49.505" height="64.3594" rx="1.5" stroke="#3F4350" stroke-opacity="0.8"/>
<path d="M29 7H37.6188" stroke="#3F4350" stroke-opacity="0.48" stroke-linecap="round"/>
<path d="M29 50H57.0112" stroke="#3F4350" stroke-opacity="0.48" stroke-linecap="round"/>
<path d="M29 34H57.0112" stroke="#3F4350" stroke-opacity="0.48" stroke-linecap="round"/>
<path d="M29 11H44.8012" stroke="#3F4350" stroke-opacity="0.48" stroke-linecap="round"/>
<path d="M29 58H65.63" stroke="#3F4350" stroke-opacity="0.48" stroke-linecap="round"/>
<path d="M29 42H65.63" stroke="#3F4350" stroke-opacity="0.48" stroke-linecap="round"/>
<path d="M29 26H65.63" stroke="#3F4350" stroke-opacity="0.48" stroke-linecap="round"/>
<path d="M29 15H35.4641" stroke="#3F4350" stroke-opacity="0.48" stroke-linecap="round"/>
<path d="M38 15H44.4641" stroke="#3F4350" stroke-opacity="0.48" stroke-linecap="round"/>
<path opacity="0.32" d="M62.1407 76.3891C56.137 76.2689 51.158 74.2133 47.2037 70.2224C43.2495 66.2314 41.1816 61.2605 41 55.3095C41.1785 49.3555 43.2464 44.383 47.2037 40.392C51.1611 36.4011 56.1401 34.3455 62.1407 34.2253C68.0859 34.3486 73.0357 36.4042 76.9899 40.392C80.9442 44.3799 83.0121 49.3524 83.1937 55.3095C83.009 61.2636 80.9411 66.2345 76.9899 70.2224C73.0387 74.2102 68.089 76.2658 62.1407 76.3891Z" fill="#3F4350" fill-opacity="0.32"/>
<path d="M62.946 31.5C68.7657 31.6227 73.5861 33.6308 77.4412 37.5186C81.2971 41.4072 83.3187 46.2518 83.4998 52.084C83.3157 57.9133 81.2942 62.7567 77.4412 66.6455C73.5893 70.533 68.7689 72.5404 62.946 72.6631C57.0674 72.543 52.2187 70.5349 48.365 66.6455C44.5088 62.7535 42.4874 57.9101 42.3064 52.084C42.4844 46.255 44.5059 41.4104 48.365 37.5186C52.2218 33.629 57.0705 31.6201 62.946 31.5Z" fill="white" stroke="#3F4350"/>
<path d="M62.8048 68.0918C58.2155 67.9998 54.4094 66.4274 51.3867 63.3745C48.364 60.3216 46.7832 56.5189 46.6444 51.9667C46.7808 47.412 48.3616 43.6082 51.3867 40.5553C54.4118 37.5024 58.2178 35.93 62.8048 35.838C67.3495 35.9323 71.1332 37.5047 74.1559 40.5553C77.1786 43.6059 78.7594 47.4097 78.8982 51.9667C78.757 56.5213 77.1763 60.3239 74.1559 63.3745C71.1355 66.425 67.3518 67.9975 62.8048 68.0918Z" fill="white"/>
<path d="M62.8046 36.338C67.2233 36.4319 70.8773 37.957 73.8007 40.9073C76.7249 43.8586 78.259 47.534 78.3973 51.9659C78.2569 56.3961 76.723 60.071 73.8007 63.0226C70.8797 65.9727 67.2257 67.497 62.8046 67.5909C58.34 67.4993 54.6644 65.9741 51.7421 63.0226C48.8172 60.0685 47.2825 56.3937 47.1444 51.9659C47.2804 47.5365 48.8153 43.8611 51.7421 40.9073C54.6668 37.9557 58.3425 36.4297 62.8046 36.338Z" stroke="#3F4350" stroke-opacity="0.32"/>
<path d="M62.7712 34.6285V51.9649L70.4315 59.6252" stroke="#3F4350" stroke-opacity="0.8" stroke-linejoin="round"/>
<circle cx="62.7713" cy="51.965" r="1.61269" fill="#3F4350" fill-opacity="0.8"/>
</svg>
