<svg width="107" height="102" viewBox="0 0 107 102" fill="none" xmlns="http://www.w3.org/2000/svg">
<rect x="3" width="96" height="96" rx="48" fill="#3F4350" fill-opacity="0.08"/>
<path d="M89.9961 16.4609L89.9961 40.5584L46 40.5584" stroke="#3F4350" stroke-opacity="0.32" stroke-linecap="round"/>
<ellipse cx="2.23125" cy="2.23125" rx="2.23125" ry="2.23125" transform="matrix(-1 0 0 1 92.2305 12)" fill="#3F4350" fill-opacity="0.56"/>
<path d="M103.73 70.5L103.73 54L59.4805 54L50 54" stroke="#3F4350" stroke-opacity="0.32" stroke-linecap="round"/>
<circle cx="103.73" cy="72.5" r="2.5" transform="rotate(-180 103.73 72.5)" fill="#3F4350" fill-opacity="0.48"/>
<path d="M5.5 15.5L11 21L11 42H41.5" stroke="#3F4350" stroke-opacity="0.32" stroke-linecap="round"/>
<circle cx="2.5" cy="2.5" r="2.5" transform="matrix(1 0 0 -1 2 16)" fill="#3F4350" fill-opacity="0.48"/>
<path d="M2.5 85.5L2.5 80L23 59H40.5" stroke="#3F4350" stroke-opacity="0.32" stroke-linecap="round"/>
<circle cx="2.5" cy="87.5" r="2.5" fill="#3F4350" fill-opacity="0.48"/>
<path d="M64.9299 34.978L72.2424 31.575L76.9299 22.978" stroke="#3F4350" stroke-linecap="round"/>
<path d="M66.9171 47.75H74.5971L82.9171 55.75" stroke="#3F4350" stroke-linecap="round"/>
<path d="M66.9171 63.75L73.2444 66.7645L78.9171 76.75" stroke="#3F4350" stroke-linecap="round"/>
<path d="M35.9299 35.978L28.6174 32.2915L23.9299 22.978" stroke="#3F4350" stroke-linecap="round"/>
<path d="M33.4171 47.9871H26.0544L18.0782 55.7588" stroke="#3F4350" stroke-linecap="round"/>
<path d="M33.4171 63.1216L27.4861 66.3939L22.1685 77.2334" stroke="#3F4350" stroke-linecap="round"/>
<path d="M45 19.5L42.5 15" stroke="#3F4350" stroke-linecap="round"/>
<path d="M55.4019 19.0397L59.1016 15.4602" stroke="#3F4350" stroke-linecap="round"/>
<rect x="40.4171" y="16.5" width="20" height="21" rx="10" fill="white" stroke="#3F4350"/>
<rect x="31.918" y="27.75" width="36" height="53" rx="18" fill="#3F4350" fill-opacity="0.12"/>
<rect x="33.4171" y="25.25" width="35" height="52" rx="17.5" fill="white" stroke="#3F4350"/>
<path d="M50.4991 25V77.5" stroke="#3F4350"/>
<path fill-rule="evenodd" clip-rule="evenodd" d="M51 77.7499C60.9034 77.7057 68.918 69.6638 68.918 59.7501V42.7501C68.918 32.8363 60.9034 24.7944 51 24.7502V77.7499Z" fill="#3F4350" fill-opacity="0.08"/>
<circle cx="23.2147" cy="23.2147" r="23.2147" transform="matrix(-1 0 0 1 92.4297 46.7212)" fill="#3F4350" fill-opacity="0.08"/>
<rect x="81.6003" y="77.9356" width="16.1098" height="3.16413" transform="rotate(45 81.6003 77.9356)" fill="white" stroke="#3F4350"/>
<rect x="89.3363" y="82.3624" width="18.583" height="7.8242" transform="rotate(45 89.3363 82.3624)" fill="white" stroke="#3F4350"/>
<circle opacity="0.85" cx="23.2147" cy="23.2147" r="23.2147" transform="matrix(-1 0 0 1 91.4301 41.7212)" fill="white"/>
<circle opacity="0.85" cx="23.2147" cy="23.2147" r="23.2147" transform="matrix(-1 0 0 1 91.4301 41.7212)" fill="white"/>
<circle cx="23.2147" cy="23.2147" r="22.7147" transform="matrix(-1 0 0 1 91.4309 41.7212)" stroke="#3F4350" stroke-linecap="round" stroke-linejoin="round"/>
<circle cx="20" cy="20" r="19.5" transform="matrix(-1 0 0 1 88.0004 45)" stroke="#3F4350" stroke-linecap="round" stroke-linejoin="round"/>
<path d="M52.0004 66C52.0004 74.2843 58.7161 81 67.0004 81" stroke="#3F4350" stroke-linecap="round" stroke-linejoin="round"/>
</svg>
