<svg width="195" height="116" viewBox="0 0 195 116" fill="none" xmlns="http://www.w3.org/2000/svg">
<rect y="24" width="195" height="67" rx="3" fill="#3F4350" fill-opacity="0.12"/>
<path d="M187.5 36L187.5 63L161 63" stroke="#3F4350" stroke-opacity="0.32" stroke-linecap="round"/>
<circle cx="2.5" cy="2.5" r="2.5" transform="matrix(-1 -8.74228e-08 -8.74228e-08 1 190 31)" fill="#3F4350" fill-opacity="0.48"/>
<path d="M187.5 102L187.5 75H161" stroke="#3F4350" stroke-opacity="0.32" stroke-linecap="round"/>
<circle cx="187.5" cy="104.5" r="2.5" transform="rotate(180 187.5 104.5)" fill="#3F4350" fill-opacity="0.48"/>
<path d="M6.5 20L6.5 47L33 47" stroke="#3F4350" stroke-opacity="0.32" stroke-linecap="round"/>
<circle cx="6.5" cy="17.5" r="2.5" fill="#3F4350" fill-opacity="0.48"/>
<rect x="52" y="15" width="123" height="80.6667" rx="4" fill="white" stroke="#3F4350" stroke-width="4"/>
<path d="M54 18.5C54 17.6716 54.6716 17 55.5 17H171.5C172.328 17 173 17.6716 173 18.5V26H54V18.5Z" fill="#1C58D9" fill-opacity="0.16"/>
<circle cx="58.5" cy="21.5" r="1.5" fill="#3F4350" fill-opacity="0.48"/>
<circle cx="66.5" cy="21.5" r="1.5" fill="#3F4350" fill-opacity="0.48"/>
<circle cx="74.5" cy="21.5" r="1.5" fill="#3F4350" fill-opacity="0.48"/>
<rect opacity="0.32" x="60.5" y="31.5" width="107" height="43" rx="1.5" stroke="#3F4350"/>
<circle cx="101" cy="85" r="3" fill="#3F4350" fill-opacity="0.4"/>
<circle cx="113" cy="85" r="6" fill="#3DB887"/>
<circle cx="125" cy="85" r="3" fill="#3F4350" fill-opacity="0.4"/>
<path d="M93 39V66H136" stroke="#3F4350" stroke-linejoin="round"/>
<rect x="100" y="44" width="3" height="19" fill="#3F4350" fill-opacity="0.4"/>
<rect x="105" y="45" width="3" height="18" fill="#3F4350" fill-opacity="0.4"/>
<rect x="110" y="53" width="3" height="10" fill="#3F4350" fill-opacity="0.4"/>
<rect x="115" y="52" width="3" height="11" fill="#3F4350" fill-opacity="0.4"/>
<rect x="120" y="48" width="3" height="15" fill="#3F4350" fill-opacity="0.4"/>
<rect x="125" y="46" width="3" height="17" fill="#3F4350" fill-opacity="0.4"/>
<path d="M113 81.5C113.194 81.5 113.371 81.5501 113.531 81.6503C113.696 81.7504 113.828 81.8859 113.925 82.0568C114.022 82.2218 114.07 82.4045 114.07 82.6048V84.8144C114.07 85.0147 114.022 85.2003 113.925 85.3712C113.828 85.5362 113.696 85.6688 113.531 85.7689C113.371 85.8691 113.194 85.9192 113 85.9192C112.806 85.9192 112.626 85.8691 112.461 85.7689C112.301 85.6688 112.172 85.5362 112.075 85.3712C111.978 85.2003 111.93 85.0147 111.93 84.8144V82.6048C111.93 82.4045 111.978 82.2218 112.075 82.0568C112.172 81.8859 112.301 81.7504 112.461 81.6503C112.626 81.5501 112.806 81.5 113 81.5ZM115.5 84.8144C115.5 85.2386 115.406 85.6393 115.217 86.0164C115.029 86.3758 114.772 86.6763 114.447 86.9179C114.122 87.1595 113.759 87.3098 113.36 87.3687V88.5H112.64V87.3687C112.241 87.3098 111.878 87.1595 111.553 86.9179C111.228 86.6763 110.971 86.3758 110.783 86.0164C110.594 85.6393 110.5 85.2386 110.5 84.8144H111.219C111.219 85.0619 111.262 85.2976 111.348 85.5215C111.439 85.7454 111.567 85.9457 111.733 86.1225C111.904 86.2933 112.098 86.4259 112.315 86.5202C112.532 86.6145 112.76 86.6616 113 86.6616C113.24 86.6616 113.468 86.6145 113.685 86.5202C113.902 86.4259 114.093 86.2933 114.259 86.1225C114.43 85.9457 114.558 85.7454 114.644 85.5215C114.735 85.2976 114.781 85.0619 114.781 84.8144H115.5Z" fill="white"/>
<rect x="23.9" y="2.5001" width="60.2" height="110.6" rx="10.5" fill="white" stroke="#3F4350" stroke-width="4.2"/>
<path d="M26 10.9001C26 7.4207 28.8206 4.6001 32.3 4.6001H75.7C79.1794 4.6001 82 7.4207 82 10.9001V14.4001H26V10.9001Z" fill="#1C58D9" fill-opacity="0.16"/>
<rect x="42.8" y="8.79999" width="22.4" height="1.4" rx="0.7" fill="#3F4350"/>
<circle cx="54" cy="57.8" r="16.8" fill="#3DB887"/>
<path d="M55.8666 58.5C55.8666 58.0346 55.7503 57.6102 55.5176 57.2269C55.2849 56.8299 54.97 56.5151 54.573 56.2824C54.1898 56.0497 53.7654 55.9333 53.3 55.9333V54.2291C54.0802 54.2291 54.7921 54.4207 55.4354 54.804C56.0925 55.1873 56.6127 55.7075 56.996 56.3645C57.3793 57.0079 57.5709 57.7197 57.5709 58.5H55.8666ZM59.2957 58.5C59.2957 57.4186 59.0219 56.4124 58.4744 55.4816C57.9405 54.5781 57.2218 53.8595 56.3184 53.3256C55.3875 52.778 54.3814 52.5043 53.3 52.5043V50.8C54.6962 50.8 55.9898 51.1491 57.1808 51.8472C58.3443 52.5316 59.2683 53.4488 59.9528 54.5987C60.6509 55.8033 61 57.1037 61 58.5H59.2957ZM60.1376 61.4979C60.3703 61.4979 60.5688 61.58 60.733 61.7443C60.911 61.9085 61 62.107 61 62.3397V65.3376C61 65.5703 60.911 65.7688 60.733 65.9331C60.5688 66.111 60.3703 66.2 60.1376 66.2C58.1664 66.2 56.2773 65.8167 54.4704 65.0501C52.7319 64.3246 51.1919 63.2911 49.8504 61.9496C48.5089 60.6081 47.4754 59.0681 46.7498 57.3296C45.9833 55.5227 45.6 53.6336 45.6 51.6624C45.6 51.4297 45.6821 51.2312 45.8464 51.0669C46.0243 50.889 46.2297 50.8 46.4624 50.8H49.4602C49.693 50.8 49.8914 50.889 50.0557 51.0669C50.22 51.2312 50.3021 51.4297 50.3021 51.6624C50.3021 52.6754 50.4664 53.6883 50.7949 54.7013C50.8497 54.8519 50.8565 55.0093 50.8154 55.1736C50.7744 55.3242 50.6991 55.4611 50.5896 55.5843L48.7005 57.4733C49.3165 58.6779 50.1036 59.7662 51.0618 60.7381C52.0338 61.6963 53.122 62.4835 54.3266 63.0995L56.2157 61.2104C56.3389 61.1009 56.4758 61.0256 56.6264 60.9845C56.7906 60.9435 56.9481 60.9503 57.0986 61.0051C58.1116 61.3336 59.1246 61.4979 60.1376 61.4979Z" fill="white"/>
<path d="M99.875 103L92 103" stroke="#3F4350" stroke-linecap="round"/>
<path d="M89.375 103L85.875 103" stroke="#3F4350" stroke-linecap="round"/>
<path d="M83.25 103L57 103" stroke="#3F4350" stroke-linecap="round"/>
<path d="M102.5 103L113 103L113 90" stroke="#3F4350" stroke-linecap="round" stroke-linejoin="round"/>
</svg>
