<svg width="189" height="116" viewBox="0 0 189 116" fill="none" xmlns="http://www.w3.org/2000/svg">
<rect x="0.745117" y="17" width="181" height="78" rx="5.625" fill="#3F4350" fill-opacity="0.12"/>
<path d="M9.5 30L15 35.5V74.5H172.5V103.5" stroke="#3F4350" stroke-opacity="0.24" stroke-linecap="round"/>
<circle cx="2.5" cy="2.5" r="2.5" transform="matrix(1 0 0 -1 170 107)" fill="#3F4350" fill-opacity="0.48"/>
<circle cx="2.5" cy="2.5" r="2.5" transform="matrix(1 0 0 -1 6 31)" fill="#3F4350" fill-opacity="0.48"/>
<rect x="25" y="11" width="131" height="86" rx="4" fill="white" stroke="#3F4350" stroke-width="4"/>
<rect x="29" y="15" width="46" height="78" fill="#1C58D9" fill-opacity="0.16"/>
<path d="M44.8108 22.0273L61.5001 22.0273" stroke="#3F4350" stroke-opacity="0.32" stroke-linecap="round"/>
<path d="M44.8108 24.6628L54.473 24.6628" stroke="#3F4350" stroke-opacity="0.32" stroke-linecap="round"/>
<path d="M33.3918 33.4453H46.5676" stroke="#3F4350" stroke-opacity="0.32" stroke-linecap="round"/>
<circle cx="36.5091" cy="22.5105" r="4.34771" fill="#3F4350" fill-opacity="0.32"/>
<circle cx="34.4795" cy="38.1602" r="2" fill="#3F4350" fill-opacity="0.32"/>
<path d="M40.4189 38.1602H65.0137" stroke="#3F4350" stroke-opacity="0.32" stroke-linecap="round"/>
<circle cx="34.4795" cy="45.1602" r="2" fill="#3F4350" fill-opacity="0.32"/>
<path d="M40.4189 45.1602H59.7434" stroke="#3F4350" stroke-opacity="0.32" stroke-linecap="round"/>
<circle cx="34.4795" cy="53.1602" r="2" fill="#3F4350" fill-opacity="0.32"/>
<path d="M40.4189 53.1602H67.6489" stroke="#3F4350" stroke-opacity="0.32" stroke-linecap="round"/>
<circle cx="34.4795" cy="60.1602" r="2" fill="#3F4350" fill-opacity="0.32"/>
<path d="M40.4189 60.1602H65.0137" stroke="#3F4350" stroke-opacity="0.32" stroke-linecap="round"/>
<circle cx="34.4795" cy="67.1602" r="2" fill="#3F4350" fill-opacity="0.32"/>
<path d="M40.4189 67.1602H59.7434" stroke="#3F4350" stroke-opacity="0.32" stroke-linecap="round"/>
<circle cx="34.4795" cy="74.1602" r="2" fill="#3F4350" fill-opacity="0.32"/>
<path d="M40.4189 74.1602H67.6489" stroke="#3F4350" stroke-opacity="0.32" stroke-linecap="round"/>
<path d="M145 103.5H117.5" stroke="#3F4350" stroke-linecap="round" stroke-linejoin="round"/>
<path d="M114 103.5H108" stroke="#3F4350" stroke-linecap="round"/>
<path d="M105 103.5H99" stroke="#3F4350" stroke-linecap="round"/>
<path opacity="0.24" d="M158.5 61C174.24 61 187 48.2401 187 32.5C187 16.7599 174.24 4 158.5 4C142.76 4 130 16.7599 130 32.5C130 48.2401 142.76 61 158.5 61Z" fill="#090A0B"/>
<path d="M158.5 57C174.24 57 187 44.2401 187 28.5C187 12.7599 174.24 0 158.5 0C142.76 0 130 12.7599 130 28.5C130 44.2401 142.76 57 158.5 57Z" fill="#28427B"/>
<path d="M158.5 36V13M158.5 13L149 22.8305M158.5 13L168 22.8305" stroke="white" stroke-linecap="round"/>
<path d="M146 33V42H171V33" stroke="white" stroke-linecap="round"/>
<rect opacity="0.24" x="62" y="34" width="67" height="82" rx="2" fill="#090A0B"/>
<rect x="55" y="21" width="70.3182" height="91" rx="2" fill="white"/>
<rect x="55.5" y="21.5" width="69.3182" height="90" rx="1.5" stroke="#3F4350" stroke-opacity="0.8"/>
<path d="M65 30H77" stroke="#3F4350" stroke-opacity="0.48" stroke-linecap="round"/>
<path d="M64 76H97" stroke="#3F4350" stroke-opacity="0.48" stroke-linecap="round"/>
<path d="M64 94H103" stroke="#3F4350" stroke-opacity="0.48" stroke-linecap="round"/>
<path d="M65 35H87" stroke="#3F4350" stroke-opacity="0.48" stroke-linecap="round"/>
<path d="M64 82H115" stroke="#3F4350" stroke-opacity="0.48" stroke-linecap="round"/>
<path d="M64 100H115" stroke="#3F4350" stroke-opacity="0.48" stroke-linecap="round"/>
<path d="M65 41H74" stroke="#3F4350" stroke-opacity="0.48" stroke-linecap="round"/>
<path d="M64 88H83" stroke="#3F4350" stroke-opacity="0.48" stroke-linecap="round"/>
<path d="M76 41H85" stroke="#3F4350" stroke-opacity="0.48" stroke-linecap="round"/>
<path d="M88 88H100" stroke="#3F4350" stroke-opacity="0.48" stroke-linecap="round"/>
</svg>
