<svg width="193" height="111" viewBox="0 0 193 111" fill="none" xmlns="http://www.w3.org/2000/svg">
<rect x="193" y="27" width="66" height="193" rx="2" transform="rotate(90 193 27)" fill="#3F4350" fill-opacity="0.16"/>
<path d="M10 45L10 53.7097L166.84 53.7097L166.84 63L182 63" stroke="#3F4350" stroke-opacity="0.32" stroke-linecap="round"/>
<path d="M19.0974 76.51L19.0974 60.445L34.8649 60.445" stroke="#3F4350" stroke-opacity="0.32" stroke-linecap="round"/>
<ellipse cx="1.5" cy="1.5" rx="1.5" ry="1.5" transform="matrix(1 8.74228e-08 8.74228e-08 -1 8.5 45)" fill="#3F4350" fill-opacity="0.56"/>
<ellipse cx="1.4875" cy="1.4875" rx="1.4875" ry="1.4875" transform="matrix(1 8.74228e-08 8.74228e-08 -1 17.6101 79.485)" fill="#3F4350" fill-opacity="0.56"/>
<ellipse cx="1.4875" cy="1.4875" rx="1.4875" ry="1.4875" transform="matrix(1 8.74228e-08 8.74228e-08 -1 181.09 64.61)" fill="#3F4350" fill-opacity="0.56"/>
<rect x="35" y="16" width="132.5" height="87" rx="4" fill="white" stroke="#3F4350" stroke-width="4"/>
<path d="M37.2993 19.7992C37.2993 18.9708 37.9709 18.2992 38.7993 18.2992H163.701C164.529 18.2992 165.201 18.9708 165.201 19.7992V27.9724H37.2993V19.7992Z" fill="#1C58D9" fill-opacity="0.16"/>
<rect x="80.2913" y="82.7874" width="41.9173" height="8.59843" rx="2" fill="#1C58D9"/>
<path d="M71.1177 37H84.5294" stroke="#3F4350" stroke-opacity="0.56" stroke-linecap="round"/>
<path d="M71.1177 41H95.7059" stroke="#3F4350" stroke-opacity="0.56" stroke-linecap="round"/>
<path d="M71.1177 45H81.1765" stroke="#3F4350" stroke-opacity="0.56" stroke-linecap="round"/>
<path d="M70 55H106.882" stroke="#3F4350" stroke-opacity="0.56" stroke-linecap="round"/>
<path d="M70 66.1646H113.588" stroke="#3F4350" stroke-opacity="0.56" stroke-linecap="round"/>
<path d="M70 71.5525H127" stroke="#3F4350" stroke-opacity="0.56" stroke-linecap="round"/>
<path d="M70 60.7764H91.2353" stroke="#3F4350" stroke-opacity="0.56" stroke-linecap="round"/>
<path d="M96.8237 60.7764H112.105" stroke="#3F4350" stroke-opacity="0.56" stroke-linecap="round"/>
<path d="M116.69 60.7764H124.331" stroke="#3F4350" stroke-opacity="0.56" stroke-linecap="round"/>
<circle cx="41.5" cy="22.5" r="1.5" fill="#3F4350" fill-opacity="0.32"/>
<circle cx="49.5" cy="22.5" r="1.5" fill="#3F4350" fill-opacity="0.32"/>
<circle cx="57.5" cy="22.5" r="1.5" fill="#3F4350" fill-opacity="0.32"/>
<path d="M116 110L125 110" stroke="#3F4350" stroke-linecap="round"/>
<path d="M128 110L132 110" stroke="#3F4350" stroke-linecap="round"/>
<path d="M135 110L165 110" stroke="#3F4350" stroke-linecap="round"/>
<path d="M113 110L101 110L101 90" stroke="#3F4350" stroke-linecap="round" stroke-linejoin="round"/>
<path opacity="0.16" d="M154.5 60C170.24 60 183 47.2401 183 31.5C183 15.7599 170.24 3 154.5 3C138.76 3 126 15.7599 126 31.5C126 47.2401 138.76 60 154.5 60Z" fill="#090A0B"/>
<path d="M154.5 57C170.24 57 183 44.2401 183 28.5C183 12.7599 170.24 0 154.5 0C138.76 0 126 12.7599 126 28.5C126 44.2401 138.76 57 154.5 57Z" fill="#28427B"/>
<path d="M142 29.3101L151.28 38L169 19" stroke="white" stroke-width="1.5" stroke-linecap="round" stroke-linejoin="round"/>
</svg>
