<svg width="188" height="119" viewBox="0 0 188 119" fill="none" xmlns="http://www.w3.org/2000/svg">
<rect width="112" height="54" rx="5" transform="matrix(1 0 0 -1 75.2041 112)" fill="#3F4350" fill-opacity="0.08"/>
<rect width="105" height="41" rx="5" transform="matrix(1 0 0 -1 11 56)" fill="#3F4350" fill-opacity="0.08"/>
<path d="M104.178 94L104.178 106C104.178 106 97.045 106 173 106" stroke="#3F4350" stroke-opacity="0.32" stroke-linecap="round"/>
<ellipse cx="2" cy="2" rx="2" ry="2" transform="matrix(1 8.74228e-08 8.74228e-08 -1 170.603 108)" fill="#3F4350" fill-opacity="0.56"/>
<path d="M26.2041 13L26.2041 27L140.204 27" stroke="#3F4350" stroke-opacity="0.32" stroke-linecap="round"/>
<ellipse cx="2" cy="2" rx="2" ry="2" transform="matrix(1 8.74228e-08 8.74228e-08 -1 24.2041 13)" fill="#3F4350" fill-opacity="0.48"/>
<rect x="35.2241" width="135" height="90" rx="6" fill="white"/>
<rect x="35.2241" width="135" height="90" rx="6" fill="#3F4350" fill-opacity="0.48"/>
<rect x="37.2241" y="2" width="131" height="86" rx="4" stroke="#3F4350" stroke-width="4"/>
<rect x="48" y="9.42758" width="97" height="57" rx="4" fill="#3F4350" fill-opacity="0.12"/>
<g clip-path="url(#clip0_4098_3014)">
<rect x="46" y="9" width="97" height="54.8552" rx="2" fill="white"/>
<rect x="54.6968" y="9" width="26.0897" height="54.8552" fill="#1E325C"/>
<path d="M56.7036 12.3448L67.4071 12.3448" stroke="white" stroke-opacity="0.16" stroke-width="0.668966" stroke-linecap="round"/>
<path d="M56.7036 14.3517L62.7243 14.3517" stroke="white" stroke-opacity="0.16" stroke-width="0.668966" stroke-linecap="round"/>
<path d="M56.7036 19.0345H65.4002" stroke="white" stroke-opacity="0.16" stroke-width="0.668966" stroke-linecap="round"/>
<path d="M56.7036 44.4552H65.4002" stroke="white" stroke-opacity="0.16" stroke-width="0.668966" stroke-linecap="round"/>
<circle cx="58.0415" cy="23.0483" r="1.33793" fill="white" fill-opacity="0.16"/>
<circle cx="76.438" cy="13.3483" r="1.67241" fill="white" fill-opacity="0.16"/>
<path d="M61.3862 23.0483H76.1035" stroke="white" stroke-opacity="0.16" stroke-width="0.668966" stroke-linecap="round"/>
<circle cx="58.0415" cy="27.0621" r="1.33793" fill="white" fill-opacity="0.16"/>
<path d="M61.3862 27.0621H72.7586" stroke="white" stroke-opacity="0.16" stroke-width="0.668966" stroke-linecap="round"/>
<circle cx="58.0415" cy="31.0759" r="1.33793" fill="white" fill-opacity="0.16"/>
<path d="M61.3862 31.0759H76.5013" stroke="white" stroke-opacity="0.16" stroke-width="0.668966" stroke-linecap="round"/>
<circle cx="58.0415" cy="35.0897" r="1.33793" fill="white" fill-opacity="0.16"/>
<path d="M61.3862 35.0897H76.5014" stroke="white" stroke-opacity="0.16" stroke-width="0.668966" stroke-linecap="round"/>
<circle cx="58.0415" cy="39.1035" r="1.33793" fill="white" fill-opacity="0.16"/>
<path d="M61.3862 39.1034H74.3136" stroke="white" stroke-opacity="0.16" stroke-width="0.668966" stroke-linecap="round"/>
<circle cx="58.0415" cy="48.469" r="1.33793" fill="white" fill-opacity="0.16"/>
<path d="M61.3862 48.469H76.5013" stroke="white" stroke-opacity="0.16" stroke-width="0.668966" stroke-linecap="round"/>
<circle cx="58.0415" cy="52.4828" r="1.33793" fill="white" fill-opacity="0.16"/>
<path d="M61.3862 52.4828H72.4875" stroke="white" stroke-opacity="0.16" stroke-width="0.668966" stroke-linecap="round"/>
<rect width="8.69655" height="55" transform="translate(46 9)" fill="#192A4D"/>
<rect x="46.6689" y="9.66896" width="7.35862" height="7.35862" rx="2.0069" fill="#192A4D"/>
<rect x="47.3379" y="10.3379" width="6.02069" height="6.02069" rx="1.33793" fill="#1C58D9"/>
<rect x="47.3379" y="17.6965" width="6.02069" height="6.02069" rx="1.33793" fill="#F5AB00"/>
<rect x="52.7211" y="17.3703" width="1.63129" height="1.63129" rx="0.815643" fill="white"/>
<rect x="52.7211" y="17.3703" width="1.63129" height="1.63129" rx="0.815643" stroke="#192A4D" stroke-width="0.326257"/>
<circle cx="53.5368" cy="18.1859" r="0.652515" fill="white"/>
<rect x="47.3379" y="25.5596" width="6.02069" height="6.02069" rx="1.33793" fill="#3DB887"/>
<rect x="52.7211" y="25.2334" width="1.63129" height="1.63129" rx="0.815643" fill="white"/>
<rect x="52.7211" y="25.2334" width="1.63129" height="1.63129" rx="0.815643" stroke="#192A4D" stroke-width="0.326257"/>
<circle cx="53.5368" cy="26.049" r="0.652515" fill="white"/>
<path d="M51.7438 36.5871H50.765V37.5659H50.4362V36.5871H49.4574V36.2583H50.4362V35.2795H50.765V36.2583H51.7438V36.5871Z" fill="white" fill-opacity="0.56"/>
<rect x="80.7861" y="9" width="62.2138" height="54.8552" fill="white"/>
<path d="M84.7998 13.0138H98.9024" stroke="#3F4350" stroke-opacity="0.24" stroke-width="0.668966" stroke-linecap="round"/>
<circle cx="89.8175" cy="22.0448" r="2.34138" fill="#3F4350" fill-opacity="0.24"/>
<circle cx="132.966" cy="13.0138" r="1.33793" fill="#3F4350" fill-opacity="0.24"/>
<circle cx="137.648" cy="13.0138" r="1.33793" fill="#3F4350" fill-opacity="0.24"/>
<path d="M94.1655 23.7172H135.641" stroke="#3F4350" stroke-opacity="0.24" stroke-width="0.668966" stroke-linecap="round"/>
<path d="M94.1655 26.3931H129.659" stroke="#3F4350" stroke-opacity="0.24" stroke-width="0.668966" stroke-linecap="round"/>
<path d="M94.1655 21.0414H102.98" stroke="#3F4350" stroke-opacity="0.24" stroke-width="0.668966" stroke-linecap="round"/>
<circle cx="89.8175" cy="34.0862" r="2.34138" fill="#3F4350" fill-opacity="0.24"/>
<path d="M94.1655 35.7586H129.659" stroke="#3F4350" stroke-opacity="0.24" stroke-width="0.668966" stroke-linecap="round"/>
<path d="M94.1655 41.1103H129.659" stroke="#3F4350" stroke-opacity="0.24" stroke-width="0.668966" stroke-linecap="round"/>
<path d="M94.1655 38.4345H135.641" stroke="#3F4350" stroke-opacity="0.24" stroke-width="0.668966" stroke-linecap="round"/>
<path d="M94.1655 33.0828H102.98" stroke="#3F4350" stroke-opacity="0.24" stroke-width="0.668966" stroke-linecap="round"/>
<circle cx="89.8175" cy="46.1276" r="2.34138" fill="#3F4350" fill-opacity="0.24"/>
<path d="M94.1655 47.8H135.641" stroke="#3F4350" stroke-opacity="0.24" stroke-width="0.668966" stroke-linecap="round"/>
<path d="M94.1655 45.1241H102.98" stroke="#3F4350" stroke-opacity="0.24" stroke-width="0.668966" stroke-linecap="round"/>
<rect x="85.4688" y="55.1586" width="53.5172" height="4.68276" rx="2.34138" fill="#3F4350" fill-opacity="0.24"/>
</g>
<rect x="45.5" y="8.5" width="98" height="55.8552" rx="2.5" stroke="#3F4350"/>
<path d="M26.2241 90H181.224V93C181.224 95.7614 178.986 98 176.224 98H31.2241C28.4627 98 26.2241 95.7614 26.2241 93V90Z" fill="white"/>
<path d="M26.2241 90H181.224V93C181.224 95.7614 178.986 98 176.224 98H31.2241C28.4627 98 26.2241 95.7614 26.2241 93V90Z" fill="#3F4350" fill-opacity="0.32" stroke="#3F4350"/>
<path d="M174.204 33L174.204 49.9091" stroke="#3F4350" stroke-linecap="round" stroke-linejoin="round"/>
<path d="M174.204 54.1364L174.204 58.3636" stroke="#3F4350" stroke-linecap="round" stroke-linejoin="round"/>
<path d="M174.204 61.1818L174.204 64" stroke="#3F4350" stroke-linecap="round" stroke-linejoin="round"/>
<mask id="path-65-inside-1_4098_3014" fill="white">
<path d="M23.5 40C25.7091 40 27.5 41.7909 27.5 44V106H27.4893C27.2262 113.224 21.2884 119 14 119C6.71157 119 0.773799 113.224 0.510742 106H0.5V44C0.5 41.7909 2.29086 40 4.5 40H23.5ZM14 101C11.5147 101 9.5 103.015 9.5 105.5C9.5 107.985 11.5147 110 14 110C16.4853 110 18.5 107.985 18.5 105.5C18.5 103.015 16.4853 101 14 101Z"/>
</mask>
<path d="M23.5 40C25.7091 40 27.5 41.7909 27.5 44V106H27.4893C27.2262 113.224 21.2884 119 14 119C6.71157 119 0.773799 113.224 0.510742 106H0.5V44C0.5 41.7909 2.29086 40 4.5 40H23.5ZM14 101C11.5147 101 9.5 103.015 9.5 105.5C9.5 107.985 11.5147 110 14 110C16.4853 110 18.5 107.985 18.5 105.5C18.5 103.015 16.4853 101 14 101Z" fill="white"/>
<path d="M27.5 44H28.5V44H27.5ZM27.5 106V107H28.5V106H27.5ZM27.4893 106V105H26.525L26.4899 105.964L27.4893 106ZM0.510742 106L1.51008 105.964L1.47499 105H0.510742V106ZM0.5 106H-0.5V107H0.5V106ZM0.5 44H-0.5V44H0.5ZM4.5 40V39V40ZM23.5 40V41C25.1569 41 26.5 42.3431 26.5 44H27.5H28.5C28.5 41.2386 26.2614 39 23.5 39V40ZM27.5 44H26.5V106H27.5H28.5V44H27.5ZM27.5 106V105H27.4893V106V107H27.5V106ZM27.4893 106L26.4899 105.964C26.2464 112.652 20.7482 118 14 118V119V120C21.8287 120 28.206 113.796 28.4886 106.036L27.4893 106ZM14 119V118C7.25183 118 1.75363 112.652 1.51008 105.964L0.510742 106L-0.488595 106.036C-0.206035 113.796 6.17131 120 14 120V119ZM0.510742 106V105H0.5V106V107H0.510742V106ZM0.5 106H1.5V44H0.5H-0.5V106H0.5ZM0.5 44H1.5C1.5 42.3431 2.84315 41 4.5 41V40V39C1.73858 39 -0.5 41.2386 -0.5 44H0.5ZM4.5 40V41H23.5V40V39H4.5V40ZM14 101V100C10.9624 100 8.5 102.462 8.5 105.5H9.5H10.5C10.5 103.567 12.067 102 14 102V101ZM9.5 105.5H8.5C8.5 108.538 10.9624 111 14 111V110V109C12.067 109 10.5 107.433 10.5 105.5H9.5ZM14 110V111C17.0376 111 19.5 108.538 19.5 105.5H18.5H17.5C17.5 107.433 15.933 109 14 109V110ZM18.5 105.5H19.5C19.5 102.462 17.0376 100 14 100V101V102C15.933 102 17.5 103.567 17.5 105.5H18.5Z" fill="#3F4350" mask="url(#path-65-inside-1_4098_3014)"/>
<rect x="3.5" y="43" width="21" height="16" rx="2" fill="#F5AB00"/>
<rect opacity="0.5" x="3.5" y="61" width="21" height="16" rx="2" fill="#F5AB00"/>
<rect opacity="0.3" x="3.5" y="79" width="21" height="16" rx="2" fill="#F5AB00"/>
<mask id="path-70-inside-2_4098_3014" fill="white">
<path d="M54.9186 53.5C56.8318 54.6046 57.4873 57.0509 56.3827 58.9641L25.3827 112.658L25.3734 112.652C21.5335 118.777 13.5033 120.81 7.19134 117.166C0.879379 113.522 -1.37497 105.551 2.0093 99.163L2 99.1577L33 45.4641C34.1046 43.5509 36.5509 42.8954 38.4641 44L54.9186 53.5ZM16.1913 101.578C14.039 100.335 11.2869 101.072 10.0442 103.225C8.80159 105.377 9.53903 108.129 11.6913 109.372C13.8437 110.614 16.5958 109.877 17.8385 107.725C19.0811 105.572 18.3437 102.82 16.1913 101.578Z"/>
</mask>
<path d="M54.9186 53.5C56.8318 54.6046 57.4873 57.0509 56.3827 58.9641L25.3827 112.658L25.3734 112.652C21.5335 118.777 13.5033 120.81 7.19134 117.166C0.879379 113.522 -1.37497 105.551 2.0093 99.163L2 99.1577L33 45.4641C34.1046 43.5509 36.5509 42.8954 38.4641 44L54.9186 53.5ZM16.1913 101.578C14.039 100.335 11.2869 101.072 10.0442 103.225C8.80159 105.377 9.53903 108.129 11.6913 109.372C13.8437 110.614 16.5958 109.877 17.8385 107.725C19.0811 105.572 18.3437 102.82 16.1913 101.578Z" fill="white"/>
<path d="M54.9186 53.5L55.4186 52.634L54.9186 53.5ZM56.3827 58.9641L57.2487 59.4641V59.4641L56.3827 58.9641ZM25.3827 112.658L24.8827 113.524L25.7487 114.024L26.2487 113.158L25.3827 112.658ZM25.3734 112.652L25.8734 111.786L25.0383 111.304L24.5261 112.121L25.3734 112.652ZM2.0093 99.163L2.89295 99.6312L3.34437 98.7791L2.5093 98.297L2.0093 99.163ZM2 99.1577L1.13397 98.6577L0.633975 99.5237L1.5 100.024L2 99.1577ZM33 45.4641L32.134 44.9641V44.9641L33 45.4641ZM38.4641 44L38.9641 43.134L38.4641 44ZM54.9186 53.5L54.4186 54.366C55.8535 55.1945 56.3451 57.0292 55.5167 58.4641L56.3827 58.9641L57.2487 59.4641C58.6294 57.0726 57.81 54.0147 55.4186 52.634L54.9186 53.5ZM56.3827 58.9641L55.5167 58.4641L24.5167 112.158L25.3827 112.658L26.2487 113.158L57.2487 59.4641L56.3827 58.9641ZM25.3827 112.658L25.8827 111.792L25.8734 111.786L25.3734 112.652L24.8734 113.518L24.8827 113.524L25.3827 112.658ZM25.3734 112.652L24.5261 112.121C20.9709 117.792 13.5354 119.674 7.69134 116.3L7.19134 117.166L6.69134 118.032C13.4712 121.946 22.096 119.762 26.2206 113.183L25.3734 112.652ZM7.19134 117.166L7.69134 116.3C1.84726 112.926 -0.240399 105.545 2.89295 99.6312L2.0093 99.163L1.12566 98.6949C-2.50954 105.556 -0.0885004 114.118 6.69134 118.032L7.19134 117.166ZM2.0093 99.163L2.5093 98.297L2.5 98.2917L2 99.1577L1.5 100.024L1.5093 100.029L2.0093 99.163ZM2 99.1577L2.86603 99.6577L33.866 45.9641L33 45.4641L32.134 44.9641L1.13397 98.6577L2 99.1577ZM33 45.4641L33.866 45.9641C34.6945 44.5292 36.5292 44.0376 37.9641 44.866L38.4641 44L38.9641 43.134C36.5726 41.7533 33.5147 42.5726 32.134 44.9641L33 45.4641ZM38.4641 44L37.9641 44.866L54.4186 54.366L54.9186 53.5L55.4186 52.634L38.9641 43.134L38.4641 44ZM16.1913 101.578L16.6913 100.712C14.0607 99.1927 10.697 100.094 9.1782 102.725L10.0442 103.225L10.9103 103.725C11.8768 102.051 14.0173 101.477 15.6913 102.444L16.1913 101.578ZM10.0442 103.225L9.1782 102.725C7.65942 105.355 8.56073 108.719 11.1913 110.238L11.6913 109.372L12.1913 108.506C10.5173 107.539 9.94375 105.399 10.9103 103.725L10.0442 103.225ZM11.6913 109.372L11.1913 110.238C13.822 111.757 17.1857 110.855 18.7045 108.225L17.8385 107.725L16.9724 107.225C16.0059 108.899 13.8654 109.472 12.1913 108.506L11.6913 109.372ZM17.8385 107.725L18.7045 108.225C20.2233 105.594 19.322 102.23 16.6913 100.712L16.1913 101.578L15.6913 102.444C17.3654 103.41 17.9389 105.551 16.9724 107.225L17.8385 107.725Z" fill="#3F4350" mask="url(#path-70-inside-2_4098_3014)"/>
<rect x="36.0981" y="46.0981" width="21" height="16" rx="2" transform="rotate(30 36.0981 46.0981)" fill="#D24B4E"/>
<rect opacity="0.5" x="27.0981" y="61.6865" width="21" height="16" rx="2" transform="rotate(30 27.0981 61.6865)" fill="#D24B4E"/>
<rect opacity="0.3" x="18.0981" y="77.275" width="21" height="16" rx="2" transform="rotate(30 18.0981 77.275)" fill="#D24B4E"/>
<mask id="path-75-inside-3_4098_3014" fill="white">
<path d="M75.416 80.9186C76.5206 82.8318 75.8651 85.2781 73.9519 86.3827L20.2583 117.383L20.253 117.373C13.8651 120.758 5.89422 118.503 2.25001 112.191C-1.3942 105.879 0.638921 97.8492 6.76371 94.0093L6.75834 94L60.4519 63C62.3651 61.8954 64.8114 62.5509 65.916 64.4641L75.416 80.9186ZM17.8385 103.191C16.5958 101.039 13.8437 100.302 11.6914 101.544C9.53903 102.787 8.8016 105.539 10.0442 107.691C11.2869 109.844 14.039 110.581 16.1914 109.338C18.3437 108.096 19.0811 105.344 17.8385 103.191Z"/>
</mask>
<path d="M75.416 80.9186C76.5206 82.8318 75.8651 85.2781 73.9519 86.3827L20.2583 117.383L20.253 117.373C13.8651 120.758 5.89422 118.503 2.25001 112.191C-1.3942 105.879 0.638921 97.8492 6.76371 94.0093L6.75834 94L60.4519 63C62.3651 61.8954 64.8114 62.5509 65.916 64.4641L75.416 80.9186ZM17.8385 103.191C16.5958 101.039 13.8437 100.302 11.6914 101.544C9.53903 102.787 8.8016 105.539 10.0442 107.691C11.2869 109.844 14.039 110.581 16.1914 109.338C18.3437 108.096 19.0811 105.344 17.8385 103.191Z" fill="white"/>
<path d="M73.9519 86.3827L74.4519 87.2487V87.2487L73.9519 86.3827ZM20.2583 117.383L19.3923 117.883L19.8923 118.749L20.7583 118.249L20.2583 117.383ZM20.253 117.373L21.119 116.873L20.6369 116.038L19.7848 116.49L20.253 117.373ZM2.25001 112.191L1.38398 112.691L2.25001 112.191ZM6.76371 94.0093L7.2949 94.8566L8.11186 94.3444L7.62974 93.5093L6.76371 94.0093ZM6.75834 94L6.25834 93.134L5.39231 93.634L5.89231 94.5L6.75834 94ZM60.4519 63L59.9519 62.134V62.134L60.4519 63ZM65.916 64.4641L66.782 63.9641L65.916 64.4641ZM75.416 80.9186L74.55 81.4186C75.3784 82.8535 74.8868 84.6882 73.4519 85.5167L73.9519 86.3827L74.4519 87.2487C76.8434 85.868 77.6628 82.81 76.282 80.4186L75.416 80.9186ZM73.9519 86.3827L73.4519 85.5167L19.7583 116.517L20.2583 117.383L20.7583 118.249L74.4519 87.2487L73.9519 86.3827ZM20.2583 117.383L21.1244 116.883L21.119 116.873L20.253 117.373L19.3869 117.873L19.3923 117.883L20.2583 117.383ZM20.253 117.373L19.7848 116.49C13.8706 119.623 6.49012 117.535 3.11603 111.691L2.25001 112.191L1.38398 112.691C5.29833 119.471 13.8597 121.892 20.7211 118.257L20.253 117.373ZM2.25001 112.191L3.11603 111.691C-0.258049 105.847 1.62422 98.4118 7.2949 94.8566L6.76371 94.0093L6.23253 93.162C-0.346374 97.2866 -2.53036 105.911 1.38398 112.691L2.25001 112.191ZM6.76371 94.0093L7.62974 93.5093L7.62437 93.5L6.75834 94L5.89231 94.5L5.89769 94.5093L6.76371 94.0093ZM6.75834 94L7.25834 94.866L60.9519 63.866L60.4519 63L59.9519 62.134L6.25834 93.134L6.75834 94ZM60.4519 63L60.9519 63.866C62.3868 63.0376 64.2216 63.5292 65.05 64.9641L65.916 64.4641L66.782 63.9641C65.4013 61.5726 62.3434 60.7533 59.9519 62.134L60.4519 63ZM65.916 64.4641L65.05 64.9641L74.55 81.4186L75.416 80.9186L76.282 80.4186L66.782 63.9641L65.916 64.4641ZM17.8385 103.191L18.7045 102.691C17.1857 100.061 13.822 99.1594 11.1914 100.678L11.6914 101.544L12.1914 102.41C13.8654 101.444 16.0059 102.017 16.9724 103.691L17.8385 103.191ZM11.6914 101.544L11.1914 100.678C8.56074 102.197 7.65943 105.561 9.17821 108.191L10.0442 107.691L10.9103 107.191C9.94377 105.517 10.5173 103.377 12.1914 102.41L11.6914 101.544ZM10.0442 107.691L9.17821 108.191C10.697 110.822 14.0607 111.723 16.6914 110.204L16.1914 109.338L15.6914 108.472C14.0173 109.439 11.8768 108.865 10.9103 107.191L10.0442 107.691ZM16.1914 109.338L16.6914 110.204C19.322 108.686 20.2233 105.322 18.7045 102.691L17.8385 103.191L16.9724 103.691C17.9389 105.365 17.3654 107.506 15.6914 108.472L16.1914 109.338Z" fill="#3F4350" mask="url(#path-75-inside-3_4098_3014)"/>
<rect x="62.8179" y="65.0981" width="21" height="16" rx="2" transform="rotate(60 62.8179 65.0981)" fill="#3DB887"/>
<rect opacity="0.5" x="47.2295" y="74.0981" width="21" height="16" rx="2" transform="rotate(60 47.2295 74.0981)" fill="#3DB887"/>
<rect opacity="0.3" x="31.6411" y="83.0981" width="21" height="16" rx="2" transform="rotate(60 31.6411 83.0981)" fill="#3DB887"/>
<mask id="path-80-inside-4_4098_3014" fill="white">
<path d="M79.4868 115C79.4868 117.209 77.696 119 75.4868 119L13.4868 119L13.4868 118.989C6.26265 118.726 0.486821 112.788 0.486821 105.5C0.486821 98.2116 6.26265 92.2738 13.4868 92.0107L13.4868 92L75.4868 92C77.696 92 79.4868 93.7909 79.4868 96L79.4868 115ZM18.4868 105.5C18.4868 103.015 16.4721 101 13.9868 101C11.5015 101 9.48682 103.015 9.48682 105.5C9.48682 107.985 11.5015 110 13.9868 110C16.4721 110 18.4868 107.985 18.4868 105.5Z"/>
</mask>
<path d="M79.4868 115C79.4868 117.209 77.696 119 75.4868 119L13.4868 119L13.4868 118.989C6.26265 118.726 0.486821 112.788 0.486821 105.5C0.486821 98.2116 6.26265 92.2738 13.4868 92.0107L13.4868 92L75.4868 92C77.696 92 79.4868 93.7909 79.4868 96L79.4868 115ZM18.4868 105.5C18.4868 103.015 16.4721 101 13.9868 101C11.5015 101 9.48682 103.015 9.48682 105.5C9.48682 107.985 11.5015 110 13.9868 110C16.4721 110 18.4868 107.985 18.4868 105.5Z" fill="white"/>
<path d="M75.4868 119L75.4868 120V120L75.4868 119ZM13.4868 119L12.4868 119L12.4868 120L13.4868 120L13.4868 119ZM13.4868 118.989L14.4868 118.989L14.4868 118.025L13.5232 117.99L13.4868 118.989ZM13.4868 92.0107L13.5232 93.0101L14.4868 92.975L14.4868 92.0107L13.4868 92.0107ZM13.4868 92L13.4868 91L12.4868 91L12.4868 92L13.4868 92ZM75.4868 92L75.4868 91V91L75.4868 92ZM79.4868 96L80.4868 96L79.4868 96ZM79.4868 115L78.4868 115C78.4868 116.657 77.1437 118 75.4868 118L75.4868 119L75.4868 120C78.2482 120 80.4868 117.761 80.4868 115L79.4868 115ZM75.4868 119L75.4868 118L13.4868 118L13.4868 119L13.4868 120L75.4868 120L75.4868 119ZM13.4868 119L14.4868 119L14.4868 118.989L13.4868 118.989L12.4868 118.989L12.4868 119L13.4868 119ZM13.4868 118.989L13.5232 117.99C6.83467 117.746 1.48682 112.248 1.48682 105.5L0.486821 105.5L-0.513179 105.5C-0.513179 113.329 5.69063 119.706 13.4504 119.989L13.4868 118.989ZM0.486821 105.5L1.48682 105.5C1.48682 98.7518 6.83467 93.2536 13.5232 93.0101L13.4868 92.0107L13.4504 91.0114C5.69063 91.294 -0.513179 97.6713 -0.513179 105.5L0.486821 105.5ZM13.4868 92.0107L14.4868 92.0107L14.4868 92L13.4868 92L12.4868 92L12.4868 92.0107L13.4868 92.0107ZM13.4868 92L13.4868 93L75.4868 93L75.4868 92L75.4868 91L13.4868 91L13.4868 92ZM75.4868 92L75.4868 93C77.1437 93 78.4868 94.3431 78.4868 96L79.4868 96L80.4868 96C80.4868 93.2386 78.2482 91 75.4868 91L75.4868 92ZM79.4868 96L78.4868 96L78.4868 115L79.4868 115L80.4868 115L80.4868 96L79.4868 96ZM18.4868 105.5L19.4868 105.5C19.4868 102.462 17.0244 100 13.9868 100L13.9868 101L13.9868 102C15.9198 102 17.4868 103.567 17.4868 105.5L18.4868 105.5ZM13.9868 101L13.9868 100C10.9493 100 8.48682 102.462 8.48682 105.5L9.48682 105.5L10.4868 105.5C10.4868 103.567 12.0538 102 13.9868 102L13.9868 101ZM9.48682 105.5L8.48682 105.5C8.48682 108.538 10.9493 111 13.9868 111L13.9868 110L13.9868 109C12.0538 109 10.4868 107.433 10.4868 105.5L9.48682 105.5ZM13.9868 110L13.9868 111C17.0244 111 19.4868 108.538 19.4868 105.5L18.4868 105.5L17.4868 105.5C17.4868 107.433 15.9198 109 13.9868 109L13.9868 110Z" fill="#3F4350" mask="url(#path-80-inside-4_4098_3014)"/>
<rect x="76.4868" y="95" width="21" height="16" rx="2" transform="rotate(90 76.4868 95)" fill="#1E325C"/>
<rect opacity="0.5" x="58.4868" y="95" width="21" height="16" rx="2" transform="rotate(90 58.4868 95)" fill="#1E325C"/>
<rect opacity="0.3" x="40.4868" y="95" width="21" height="16" rx="2" transform="rotate(90 40.4868 95)" fill="#1E325C"/>
<defs>
<clipPath id="clip0_4098_3014">
<rect x="46" y="9" width="97" height="54.8552" rx="2" fill="white"/>
</clipPath>
</defs>
</svg>
