<svg width="142" height="104" viewBox="0 0 142 104" fill="none" xmlns="http://www.w3.org/2000/svg">
<path d="M5.5 18L5.5 33L94 33" stroke="#3F4350" stroke-opacity="0.32" stroke-linecap="round"/>
<path d="M4.00001 90L14.5 79.5L14.5 40.5L35.5 40.5" stroke="#3F4350" stroke-opacity="0.32" stroke-linecap="round"/>
<path d="M133.5 52L133.5 66L46 66" stroke="#3F4350" stroke-opacity="0.32" stroke-linecap="round"/>
<circle cx="2.5" cy="2.5" r="2.5" transform="matrix(1 8.74228e-08 8.74228e-08 -1 3 18)" fill="#3F4350" fill-opacity="0.48"/>
<circle cx="2.5" cy="2.5" r="2.5" transform="matrix(-1 -1.74846e-07 -1.74846e-07 1 136 48.5)" fill="#3F4350" fill-opacity="0.48"/>
<circle cx="2.5" cy="91.5" r="2.5" fill="#3F4350" fill-opacity="0.48"/>
<rect x="10.998" y="14" width="94" height="40" rx="3.75" fill="#1C58D9" fill-opacity="0.12"/>
<rect x="36.998" y="57" width="105" height="37" rx="3.75" fill="#1C58D9" fill-opacity="0.12"/>
<rect x="33.3866" y="8.15259" width="50.505" height="65.3594" rx="2" transform="rotate(-8.6173 33.3866 8.15259)" fill="white"/>
<rect x="33.9559" y="8.57203" width="49.505" height="64.3594" rx="1.5" transform="rotate(-8.6173 33.9559 8.57203)" stroke="#3F4350" stroke-opacity="0.8"/>
<path d="M40.3677 14.1746L48.8892 12.8832" stroke="#3F4350" stroke-opacity="0.48" stroke-linecap="round"/>
<path d="M46.8105 56.6891L74.5055 52.4921" stroke="#3F4350" stroke-opacity="0.48" stroke-linecap="round"/>
<path d="M44.4132 40.8698L72.1082 36.6727" stroke="#3F4350" stroke-opacity="0.48" stroke-linecap="round"/>
<path d="M40.967 18.1294L56.5898 15.7618" stroke="#3F4350" stroke-opacity="0.48" stroke-linecap="round"/>
<path d="M48.0093 64.5989L84.2258 59.1105" stroke="#3F4350" stroke-opacity="0.48" stroke-linecap="round"/>
<path d="M45.6119 48.7794L81.8284 43.291" stroke="#3F4350" stroke-opacity="0.48" stroke-linecap="round"/>
<path d="M43.2146 32.9601L79.4311 27.4717" stroke="#3F4350" stroke-opacity="0.48" stroke-linecap="round"/>
<path d="M41.5664 22.0842L47.9576 21.1157" stroke="#3F4350" stroke-opacity="0.48" stroke-linecap="round"/>
<path d="M50.4647 20.7357L56.8559 19.7672" stroke="#3F4350" stroke-opacity="0.48" stroke-linecap="round"/>
<path d="M36.2374 36.6232C36.4181 35.6811 37.2423 35 38.2016 35H127.578C128.834 35 129.779 36.1436 129.542 37.3768L119.759 88.3768C119.578 89.3189 118.754 90 117.795 90H28.4182C27.1625 90 26.2174 88.8564 26.454 87.6232L36.2374 36.6232Z" fill="white"/>
<path d="M36.2374 36.6232C36.4181 35.6811 37.2423 35 38.2016 35H127.578C128.834 35 129.779 36.1436 129.542 37.3768L119.759 88.3768C119.578 89.3189 118.754 90 117.795 90H28.4182C27.1625 90 26.2174 88.8564 26.454 87.6232L36.2374 36.6232Z" fill="#3F4350" fill-opacity="0.56"/>
<path d="M38.2012 35.5H127.578C128.52 35.5001 129.228 36.3575 129.051 37.2822L119.268 88.2822C119.132 88.9887 118.514 89.4998 117.795 89.5H28.418C27.4764 89.4999 26.7681 88.6425 26.9453 87.7178L36.7285 36.7178C36.864 36.0113 37.4819 35.5002 38.2012 35.5Z" stroke="#3F4350"/>
<rect x="72.5037" y="8.99988" width="50.505" height="65.3594" rx="2" transform="rotate(7.47748 72.5037 8.99988)" fill="#3F4350" fill-opacity="0.24"/>
<rect x="75.5037" y="7" width="50.505" height="65.3594" rx="2" transform="rotate(7.47748 75.5037 7)" fill="white"/>
<rect x="75.9343" y="7.56082" width="49.505" height="64.3594" rx="1.5" transform="rotate(7.47748 75.9343 7.56082)" stroke="#3F4350" stroke-opacity="0.8"/>
<path d="M80.5417 14.7212L89.0873 15.8428" stroke="#3F4350" stroke-opacity="0.48" stroke-linecap="round"/>
<path d="M74.9458 57.3556L102.719 61.0009" stroke="#3F4350" stroke-opacity="0.48" stroke-linecap="round"/>
<path d="M77.028 41.4917L104.801 45.137" stroke="#3F4350" stroke-opacity="0.48" stroke-linecap="round"/>
<path d="M80.0211 18.6873L95.6879 20.7436" stroke="#3F4350" stroke-opacity="0.48" stroke-linecap="round"/>
<path d="M73.9048 65.2876L110.223 70.0545" stroke="#3F4350" stroke-opacity="0.48" stroke-linecap="round"/>
<path d="M75.9869 49.4236L112.305 54.1905" stroke="#3F4350" stroke-opacity="0.48" stroke-linecap="round"/>
<path d="M78.0691 33.5597L114.388 38.3266" stroke="#3F4350" stroke-opacity="0.48" stroke-linecap="round"/>
<path d="M79.5006 22.6532L85.9098 23.4944" stroke="#3F4350" stroke-opacity="0.48" stroke-linecap="round"/>
<path d="M88.4241 23.8245L94.8332 24.6657" stroke="#3F4350" stroke-opacity="0.48" stroke-linecap="round"/>
<path fill-rule="evenodd" clip-rule="evenodd" d="M34.998 23C33.8935 23 32.998 23.8954 32.998 25V28H27.998C26.8935 28 25.998 28.8954 25.998 30V88C25.998 89.1046 26.8935 90 27.998 90H116.998C118.103 90 118.998 89.1046 118.998 88V30C118.998 28.8954 118.103 28 116.998 28H64.998V25C64.998 23.8954 64.1026 23 62.998 23H34.998Z" fill="white"/>
<path fill-rule="evenodd" clip-rule="evenodd" d="M34.998 23C33.8935 23 32.998 23.8954 32.998 25V28H27.998C26.8935 28 25.998 28.8954 25.998 30V88C25.998 89.1046 26.8935 90 27.998 90H116.998C118.103 90 118.998 89.1046 118.998 88V30C118.998 28.8954 118.103 28 116.998 28H64.998V25C64.998 23.8954 64.1026 23 62.998 23H34.998Z" fill="#3F4350" fill-opacity="0.12"/>
<mask id="path-37-inside-1_3901_6851" fill="white">
<path fill-rule="evenodd" clip-rule="evenodd" d="M34.998 23C33.8935 23 32.998 23.8954 32.998 25V28H27.998C26.8935 28 25.998 28.8954 25.998 30V88C25.998 89.1046 26.8935 90 27.998 90H116.998C118.103 90 118.998 89.1046 118.998 88V30C118.998 28.8954 118.103 28 116.998 28H64.998V25C64.998 23.8954 64.1026 23 62.998 23H34.998Z"/>
</mask>
<path d="M32.998 28V29H33.998V28H32.998ZM64.998 28H63.998V29H64.998V28ZM33.998 25C33.998 24.4477 34.4458 24 34.998 24V22C33.3412 22 31.998 23.3431 31.998 25H33.998ZM33.998 28V25H31.998V28H33.998ZM27.998 29H32.998V27H27.998V29ZM26.998 30C26.998 29.4477 27.4458 29 27.998 29V27C26.3412 27 24.998 28.3431 24.998 30H26.998ZM26.998 88V30H24.998V88H26.998ZM27.998 89C27.4458 89 26.998 88.5523 26.998 88H24.998C24.998 89.6569 26.3412 91 27.998 91V89ZM116.998 89H27.998V91H116.998V89ZM117.998 88C117.998 88.5523 117.55 89 116.998 89V91C118.655 91 119.998 89.6569 119.998 88H117.998ZM117.998 30V88H119.998V30H117.998ZM116.998 29C117.55 29 117.998 29.4477 117.998 30H119.998C119.998 28.3431 118.655 27 116.998 27V29ZM64.998 29H116.998V27H64.998V29ZM63.998 25V28H65.998V25H63.998ZM62.998 24C63.5503 24 63.998 24.4477 63.998 25H65.998C65.998 23.3431 64.6549 22 62.998 22V24ZM34.998 24H62.998V22H34.998V24Z" fill="#3F4350" mask="url(#path-37-inside-1_3901_6851)"/>
<path opacity="0.32" d="M32.1387 103.389C26.135 103.269 21.156 101.213 17.2018 97.2224C13.2475 93.2314 11.1796 88.2605 10.998 82.3095C11.1765 76.3555 13.2444 71.383 17.2018 67.392C21.1591 63.4011 26.1381 61.3455 32.1387 61.2253C38.084 61.3486 43.0337 63.4042 46.988 67.392C50.9422 71.3799 53.0101 76.3524 53.1917 82.3095C53.0071 88.2636 50.9392 93.2345 46.988 97.2224C43.0368 101.21 38.0871 103.266 32.1387 103.389Z" fill="#3F4350" fill-opacity="0.32"/>
<path d="M32.9441 58.5C38.7638 58.6227 43.5842 60.6308 47.4392 64.5186C51.2951 68.4072 53.3168 73.2518 53.4978 79.084C53.3138 84.9133 51.2922 89.7567 47.4392 93.6455C43.5874 97.533 38.7669 99.5404 32.9441 99.6631C27.0654 99.543 22.2167 97.5349 18.363 93.6455C14.5068 89.7535 12.4854 84.9101 12.3044 79.084C12.4824 73.255 14.504 68.4104 18.363 64.5186C22.2199 60.629 27.0686 58.6201 32.9441 58.5Z" fill="white" stroke="#3F4350"/>
<path d="M32.8029 95.0918C28.2135 94.9998 24.4074 93.4274 21.3847 90.3745C18.362 87.3216 16.7812 83.5189 16.6425 78.9667C16.7789 74.412 18.3596 70.6082 21.3847 67.5553C24.4098 64.5024 28.2159 62.93 32.8029 62.838C37.3475 62.9323 41.1312 64.5047 44.154 67.5553C47.1767 70.6059 48.7574 74.4097 48.8962 78.9667C48.7551 83.5213 47.1743 87.3239 44.154 90.3745C41.1336 93.425 37.3499 94.9975 32.8029 95.0918Z" fill="white"/>
<path d="M32.8026 63.338C37.2214 63.4319 40.8753 64.957 43.7987 67.9073C46.723 70.8586 48.257 74.534 48.3954 78.9659C48.2549 83.3961 46.721 87.071 43.7987 90.0226C40.8778 92.9727 37.2238 94.497 32.8026 94.5909C28.3381 94.4993 24.6624 92.9741 21.7401 90.0226C18.8153 87.0685 17.2805 83.3937 17.1425 78.9659C17.2785 74.5365 18.8134 70.8611 21.7401 67.9073C24.6649 64.9557 28.3405 63.4297 32.8026 63.338Z" stroke="#3F4350" stroke-opacity="0.32"/>
<path d="M32.7693 61.6285V78.9649L40.4296 86.6252" stroke="#3F4350" stroke-opacity="0.8" stroke-linejoin="round"/>
<circle cx="32.7693" cy="78.965" r="1.61269" fill="#3F4350" fill-opacity="0.8"/>
</svg>
