<svg width="142" height="80" viewBox="0 0 142 80" fill="none" xmlns="http://www.w3.org/2000/svg">
<g clip-path="url(#clip0_3901_7002)">
<rect x="15" y="15" width="112" height="44" rx="3" fill="#1C58D9" fill-opacity="0.12"/>
<path d="M28 34L28 52L39 52" stroke="#3F4350" stroke-opacity="0.8" stroke-linecap="round" stroke-linejoin="round"/>
<path d="M28 31L28 26" stroke="#3F4350" stroke-opacity="0.8" stroke-linecap="round" stroke-linejoin="round"/>
<path d="M28 23L28 21" stroke="#3F4350" stroke-opacity="0.8" stroke-linecap="round" stroke-linejoin="round"/>
<path d="M54.605 67.5638L41 81V12C41 10.8954 41.8954 10 43 10H109C110.105 10 111 10.8954 111 12V64.9868C111 66.0914 110.105 66.9868 109 66.9868H56.0103C55.4842 66.9868 54.9793 67.1941 54.605 67.5638Z" fill="#28427B"/>
<path d="M49.605 62.5638L36 76V7C36 5.89543 36.8954 5 38 5H104C105.105 5 106 5.89543 106 7V59.9868C106 61.0914 105.105 61.9868 104 61.9868H51.0103C50.4842 61.9868 49.9793 62.1941 49.605 62.5638Z" fill="white"/>
<path d="M38 5.5H104C104.828 5.5 105.5 6.17157 105.5 7V59.9873C105.5 60.8155 104.828 61.4873 104 61.4873H51.0107C50.3532 61.4873 49.7218 61.746 49.2539 62.208L36.5 74.8027V7C36.5 6.17157 37.1716 5.5 38 5.5Z" stroke="#3F4350" stroke-opacity="0.8"/>
<circle cx="54" cy="24" r="9" fill="#3F4350" fill-opacity="0.32"/>
<path d="M69 20H85" stroke="#3F4350" stroke-opacity="0.48" stroke-linecap="round"/>
<path d="M46 44H96" stroke="#3F4350" stroke-opacity="0.48" stroke-linecap="round"/>
<path d="M46 51H68" stroke="#3F4350" stroke-opacity="0.48" stroke-linecap="round"/>
<path d="M69 26H94" stroke="#3F4350" stroke-opacity="0.48" stroke-linecap="round"/>
<path d="M46 38H63" stroke="#3F4350" stroke-opacity="0.48" stroke-linecap="round"/>
<path d="M67 38H85" stroke="#3F4350" stroke-opacity="0.48" stroke-linecap="round"/>
<rect x="115.193" y="45.0278" width="12.4524" height="6.22619" transform="rotate(-135 115.193 45.0278)" fill="white" stroke="#3F4350" stroke-opacity="0.8"/>
<path d="M117.947 42.2764L109.141 33.4712L113.781 28.8319C114.562 28.0508 115.828 28.0508 116.609 28.8319L122.586 34.8086C123.367 35.5897 123.367 36.856 122.586 37.637L117.947 42.2764Z" fill="#3F4350" fill-opacity="0.32" stroke="#3F4350" stroke-opacity="0.8"/>
<path d="M89.3298 70.8933L80.5247 62.0882L106.94 35.6727L115.745 44.4778L89.3298 70.8933Z" fill="white" stroke="#3F4350" stroke-opacity="0.8" stroke-linejoin="round"/>
<path d="M73.0957 78.8725L80.5251 62.0876L89.3302 70.8928L73.0957 78.8725Z" fill="white" stroke="#3F4350" stroke-opacity="0.8" stroke-linejoin="round"/>
<path d="M78.3231 76.3964L75.4434 77.9756C74.5838 78.447 73.6297 77.5284 74.0681 76.6516L75.5715 73.6448L78.3231 76.3964Z" fill="#3F4350" fill-opacity="0.8"/>
<line x1="82.8006" y1="64.4976" x2="109.371" y2="37.9268" stroke="#3F4350" stroke-opacity="0.32"/>
<line x1="86.6766" y1="68.3725" x2="113.247" y2="41.8017" stroke="#3F4350" stroke-opacity="0.32"/>
</g>
<defs>
<clipPath id="clip0_3901_7002">
<rect width="142" height="80" fill="white"/>
</clipPath>
</defs>
</svg>
