<svg width="127" height="96" viewBox="0 0 127 96" fill="none" xmlns="http://www.w3.org/2000/svg">
<rect x="16.0066" width="96" height="96" rx="48" fill="#3F4350" fill-opacity="0.08"/>
<path d="M2.23438 25.4608L2.23437 49.5583L25.8856 49.5583" stroke="#3F4350" stroke-opacity="0.32" stroke-linecap="round"/>
<ellipse cx="2.23125" cy="23.2311" rx="2.23125" ry="2.23125" fill="#3F4350" fill-opacity="0.56"/>
<path d="M123.729 44.0583L123.729 27.5583L79.4792 27.5584L35.2292 27.5584" stroke="#3F4350" stroke-opacity="0.32" stroke-linecap="round"/>
<circle cx="123.729" cy="46.0583" r="2.5" transform="rotate(180 123.729 46.0583)" fill="#3F4350" fill-opacity="0.48"/>
<path d="M122.229 63.0583L116.729 57.5584L116.729 36.5584L78.7292 36.5584" stroke="#3F4350" stroke-opacity="0.32" stroke-linecap="round"/>
<circle cx="2.5" cy="2.5" r="2.5" transform="matrix(-1 8.74228e-08 8.74228e-08 1 126.229 62.5583)" fill="#3F4350" fill-opacity="0.48"/>
<rect x="64.4285" y="5.5" width="44.7229" height="58.1708" rx="1.5" fill="white" stroke="#3F4350"/>
<rect x="64.4285" y="5.5" width="44.7229" height="58.1708" rx="1.5" fill="white" stroke="#3F4350"/>
<rect x="69.7822" y="11.5022" width="9.10319" height="9.10319" rx="0.666667" fill="#32539A"/>
<path d="M72.0586 16.3537L73.5647 17.8596L76.7036 14.7534" stroke="white" stroke-linecap="round"/>
<path d="M83.4332 14.2384H95.7876" stroke="#3F4350" stroke-linecap="round"/>
<path d="M83.4332 17.4894H99.0387" stroke="#3F4350" stroke-linecap="round"/>
<path d="M97.7415 14.2384H102.293" stroke="#3F4350" stroke-linecap="round"/>
<rect x="69.7822" y="24.5065" width="9.10319" height="9.10319" rx="0.666667" fill="#32539A"/>
<path d="M72.0586 29.358L73.5647 30.8639L76.7036 27.7577" stroke="white" stroke-linecap="round"/>
<path d="M83.4332 27.2427H95.7876" stroke="#3F4350" stroke-linecap="round"/>
<path d="M83.4332 30.4937H99.0387" stroke="#3F4350" stroke-linecap="round"/>
<path d="M97.7415 27.2427H102.293" stroke="#3F4350" stroke-linecap="round"/>
<rect x="69.7822" y="37.5112" width="9.10319" height="9.10319" rx="0.666667" fill="#32539A"/>
<path d="M72.0586 42.3628L73.5647 43.8687L76.7036 40.7625" stroke="white" stroke-linecap="round"/>
<path d="M83.4332 40.2474H95.7876" stroke="#3F4350" stroke-linecap="round"/>
<path d="M83.4332 43.4984H99.0387" stroke="#3F4350" stroke-linecap="round"/>
<path d="M97.7415 40.2474H102.293" stroke="#3F4350" stroke-linecap="round"/>
<rect x="69.7822" y="50.5157" width="9.10319" height="9.10319" rx="0.666667" stroke="#3F4350" stroke-opacity="0.4" stroke-linecap="round"/>
<path d="M83.4332 53.252H95.7876" stroke="#3F4350" stroke-linecap="round"/>
<path d="M83.4332 56.5029H99.0387" stroke="#3F4350" stroke-linecap="round"/>
<path d="M97.7415 53.252H102.293" stroke="#3F4350" stroke-linecap="round"/>
<rect x="64.0066" y="29" width="22" height="35" rx="3" fill="#3F4350" fill-opacity="0.12"/>
<rect x="11.5066" y="27.5" width="68" height="49" rx="3.5" fill="white" stroke="#3F4350"/>
<rect x="11.5066" y="27.5" width="68" height="49" rx="3.5" fill="white" stroke="#3F4350"/>
<path d="M56.0066 19.5C58.4919 19.5 60.5066 21.5147 60.5066 24V26.5C60.5066 27.6046 59.6112 28.5 58.5066 28.5C57.402 28.5 56.5066 27.6046 56.5066 26.5V24C56.5066 23.7239 56.2827 23.5 56.0066 23.5H36.0066C35.7304 23.5 35.5066 23.7239 35.5066 24V26.5C35.5066 27.1064 35.2484 27.588 34.8513 27.9072C34.4667 28.2164 33.9754 28.3564 33.5066 28.3564C33.0378 28.3564 32.5464 28.2164 32.1619 27.9072C31.7647 27.588 31.5066 27.1064 31.5066 26.5V24C31.5066 21.5147 33.5213 19.5 36.0066 19.5H56.0066Z" fill="white" stroke="#3F4350"/>
<path d="M56.0066 19.5C58.4919 19.5 60.5066 21.5147 60.5066 24V26.5C60.5066 27.6046 59.6112 28.5 58.5066 28.5C57.402 28.5 56.5066 27.6046 56.5066 26.5V24C56.5066 23.7239 56.2827 23.5 56.0066 23.5H36.0066C35.7304 23.5 35.5066 23.7239 35.5066 24V26.5C35.5066 27.1064 35.2484 27.588 34.8513 27.9072C34.4667 28.2164 33.9754 28.3564 33.5066 28.3564C33.0378 28.3564 32.5464 28.2164 32.1619 27.9072C31.7647 27.588 31.5066 27.1064 31.5066 26.5V24C31.5066 21.5147 33.5213 19.5 36.0066 19.5H56.0066Z" fill="#3F4350" fill-opacity="0.08" stroke="#3F4350"/>
<path fill-rule="evenodd" clip-rule="evenodd" d="M80.0066 46.9996C68.9316 49.6157 57.3808 51 45.5066 51C33.6324 51 22.0815 49.6157 11.0066 46.9996V32C11.0066 29.7909 12.7975 28 15.0066 28H76.0066C78.2157 28 80.0066 29.7909 80.0066 32V46.9996Z" fill="#3F4350" fill-opacity="0.12"/>
<mask id="path-35-inside-1_3961_5979" fill="white">
<path fill-rule="evenodd" clip-rule="evenodd" d="M80.0066 45.9996C68.9316 48.6157 57.3808 50 45.5066 50C33.6324 50 22.0815 48.6157 11.0066 45.9996V31C11.0066 28.7909 12.7975 27 15.0066 27H76.0066C78.2157 27 80.0066 28.7909 80.0066 31V45.9996Z"/>
</mask>
<path fill-rule="evenodd" clip-rule="evenodd" d="M80.0066 45.9996C68.9316 48.6157 57.3808 50 45.5066 50C33.6324 50 22.0815 48.6157 11.0066 45.9996V31C11.0066 28.7909 12.7975 27 15.0066 27H76.0066C78.2157 27 80.0066 28.7909 80.0066 31V45.9996Z" fill="white"/>
<path d="M80.0066 45.9996L80.2365 46.9728L81.0066 46.7909V45.9996H80.0066ZM11.0066 45.9996H10.0066V46.7909L10.7767 46.9728L11.0066 45.9996ZM79.7767 45.0264C68.7765 47.6248 57.3028 49 45.5066 49V51C57.4588 51 69.0868 49.6065 80.2365 46.9728L79.7767 45.0264ZM45.5066 49C33.7104 49 22.2366 47.6248 11.2365 45.0264L10.7767 46.9728C21.9264 49.6065 33.5544 51 45.5066 51V49ZM12.0066 45.9996V31H10.0066V45.9996H12.0066ZM12.0066 31C12.0066 29.3431 13.3497 28 15.0066 28V26C12.2452 26 10.0066 28.2386 10.0066 31H12.0066ZM15.0066 28H76.0066V26H15.0066V28ZM76.0066 28C77.6634 28 79.0066 29.3431 79.0066 31H81.0066C81.0066 28.2386 78.768 26 76.0066 26V28ZM79.0066 31V45.9996H81.0066V31H79.0066Z" fill="#3F4350" mask="url(#path-35-inside-1_3961_5979)"/>
<rect x="40.0066" y="45" width="10" height="10" rx="2" fill="white"/>
<rect x="40.5066" y="45.5" width="9" height="9" rx="1.5" fill="#3F4350" fill-opacity="0.4" stroke="#3F4350"/>
<path d="M66.0066 79.5881L44.5407 79.5881" stroke="#3F4350" stroke-linecap="round" stroke-linejoin="round"/>
<path d="M42.2292 79.5881L37.6073 79.5881" stroke="#3F4350" stroke-linecap="round" stroke-linejoin="round"/>
</svg>
