<svg width="116" height="110" viewBox="0 0 116 110" fill="none" xmlns="http://www.w3.org/2000/svg">
<path fill-rule="evenodd" clip-rule="evenodd" d="M47.2002 0H62.7398L64.7363 12.9771C69.4589 14.0143 73.8877 15.8355 77.8793 18.2974L88.3707 10.6037L99.3589 21.5919L91.6973 32.0396C94.1967 36.0424 96.0495 40.4904 97.1095 45.2376L109.996 47.2201V62.7598L96.8974 64.7749C95.7681 69.3573 93.8967 73.6477 91.4179 77.5111L99.3812 88.3702L88.393 99.3584L77.2544 91.19C73.4755 93.4322 69.3199 95.1063 64.9054 96.0947L62.7702 109.973H47.2306L45.0524 95.8152C40.8293 94.7426 36.858 93.0386 33.2451 90.8097L21.5884 99.3579L10.6003 88.3697L19.1823 76.6669C16.9951 73.0759 15.3245 69.1356 14.274 64.9493L0 62.7533V47.2137L14.0608 45.0505C15.0506 40.7102 16.7037 36.6224 18.9079 32.8994L10.6144 21.5901L21.6026 10.6019L32.6283 18.6875C36.4344 16.2486 40.6542 14.399 45.1591 13.2673L47.2002 0ZM75.2203 53.5871C75.2203 64.6328 66.266 73.5871 55.2203 73.5871C44.1746 73.5871 35.2203 64.6328 35.2203 53.5871C35.2203 42.5414 44.1746 33.5871 55.2203 33.5871C66.266 33.5871 75.2203 42.5414 75.2203 53.5871Z" fill="#3F4350" fill-opacity="0.08"/>
<g opacity="0.7">
<path d="M91.9962 54.379L101.538 54.379L101.538 32.4866L110.996 32.4866" stroke="#3F4350" stroke-opacity="0.32" stroke-width="1.5" stroke-linecap="round"/>
<path d="M22.9961 82.9866L22.9961 75.9866L48.9961 75.9866" stroke="#3F4350" stroke-opacity="0.32" stroke-width="1.5" stroke-linecap="round"/>
<path d="M7.23047 31.449L7.23047 38.949L32.1133 38.949L50.6509 57.4866" stroke="#3F4350" stroke-opacity="0.32" stroke-width="1.5" stroke-linecap="round"/>
<ellipse cx="2" cy="2" rx="2" ry="2" transform="matrix(1 8.74228e-08 8.74228e-08 -1 20.9961 85.9866)" fill="#3F4350" fill-opacity="0.56"/>
<ellipse cx="7.22734" cy="30.2178" rx="2.23125" ry="2.23125" fill="#3F4350" fill-opacity="0.56"/>
<ellipse cx="2.5" cy="2.5" rx="2.5" ry="2.5" transform="matrix(1 8.74228e-08 8.74228e-08 -1 110.996 34.9866)" fill="#3F4350" fill-opacity="0.56"/>
</g>
<path d="M54.9961 21.9863C69.7922 21.9863 82.2536 31.7268 85.9961 44.9863" stroke="#3F4350" stroke-linecap="round"/>
<path d="M22.9961 53.9863C22.9961 40.1758 31.7503 28.4162 43.9961 23.9863" stroke="#3F4350" stroke-linecap="round"/>
<path d="M45.2224 84.4322C45.4686 84.3072 45.5669 84.0063 45.442 83.7601L43.4056 79.7472C43.2807 79.5009 42.9797 79.4026 42.7335 79.5276C42.4872 79.6525 42.3889 79.9534 42.5139 80.1997L44.324 83.7667L40.7569 85.5768C40.5107 85.7018 40.4124 86.0027 40.5373 86.2489C40.6623 86.4952 40.9632 86.5935 41.2095 86.4685L45.2224 84.4322ZM24.4738 62.8387C24.3923 62.5749 24.1123 62.4271 23.8485 62.5086C23.5847 62.5901 23.4369 62.8701 23.5184 63.1339L24.4738 62.8387ZM45.1514 83.5111C35.2295 80.2691 27.4701 72.5358 24.4738 62.8387L23.5184 63.1339C26.6143 73.1534 34.6227 81.1229 44.8408 84.4616L45.1514 83.5111Z" fill="#3F4350"/>
<path d="M86.9961 53.9863C86.9961 68.0683 78.0342 80.048 65.526 84.4866" stroke="#3F4350" stroke-linecap="round"/>
<circle cx="53.9961" cy="21.9863" r="5.5" fill="white" stroke="#3F4350"/>
<circle cx="22.9961" cy="53.9863" r="5.5" fill="white" stroke="#3F4350"/>
<rect x="80.5938" y="48.4272" width="11.8173" height="11.8173" rx="0.666667" fill="#32539A"/>
<path d="M83.5469 54.7251L85.502 56.68L89.5767 52.6477" stroke="white" stroke-linecap="round"/>
<path d="M77.0202 53.5424C77.0202 41.2866 67.382 31.353 55.493 31.353C43.604 31.353 33.9633 41.2866 33.9633 53.5424C33.9633 62.9966 39.7027 71.0641 47.7854 74.2601V84.1009H63.2006V74.2601C71.2833 71.0641 77.0227 62.9966 77.0227 53.5424H77.0202Z" fill="white"/>
<path d="M47.7256 74.1829L47.4043 74.0598C39.1247 70.8909 33.457 62.8902 33.457 53.5032C33.4571 41.3439 43.3392 31.4866 55.5283 31.4866C67.7173 31.4866 77.5966 41.3439 77.5967 53.5032V53.7659C77.4817 63.0192 71.3031 70.9129 63.0811 74.0598L62.7598 74.1829V84.0129H47.7256V74.1829Z" stroke="#3F4350"/>
<path d="M47.5992 88.6123L62.9052 88.6123V93.7143H49.4214C49.4214 93.7143 50.451 98.8163 54.5234 98.8163C56.7446 98.8163 59.2609 96.9941 59.2609 96.9941" stroke="#3F4350" stroke-linecap="round"/>
<path d="M63.9058 46.4648L56.812 78.0645" stroke="#3F4350" stroke-linecap="round"/>
<path d="M47.1512 46.4648L53.6001 78.0645" stroke="#3F4350" stroke-linecap="round"/>
<path d="M50.3718 47.5395H51.795L53.9298 43.2402L54.9973 49.6891L57.1321 44.3151L58.1995 47.5395H60.6901" stroke="#3F4350" stroke-opacity="0.8" stroke-linecap="round" stroke-linejoin="round"/>
</svg>
