<svg width="132" height="108" viewBox="0 0 132 108" fill="none" xmlns="http://www.w3.org/2000/svg">
<rect x="1" y="51" width="131" height="35" rx="2" fill="white"/>
<rect opacity="0.12" x="1" y="51" width="131" height="35" rx="2" fill="#1C58D9"/>
<path d="M11.5 44.5L11.5 91.5H100" stroke="#3F4350" stroke-opacity="0.32" stroke-linecap="round"/>
<path d="M14 20.5L19.5 26V80H40.5" stroke="#3F4350" stroke-opacity="0.32" stroke-linecap="round"/>
<rect x="34" y="26" width="67" height="82" rx="2" fill="#28427B"/>
<rect x="27.5" y="13.5" width="69.3182" height="90" rx="1.5" fill="white" stroke="#3F4350"/>
<path d="M37 22H49" stroke="#3F4350" stroke-opacity="0.48" stroke-linecap="round"/>
<path d="M36 68H69" stroke="#3F4350" stroke-opacity="0.48" stroke-linecap="round"/>
<path d="M36 86H75" stroke="#3F4350" stroke-opacity="0.48" stroke-linecap="round"/>
<path d="M37 27H59" stroke="#3F4350" stroke-opacity="0.48" stroke-linecap="round"/>
<path d="M36 74H87" stroke="#3F4350" stroke-opacity="0.48" stroke-linecap="round"/>
<path d="M36 92H87" stroke="#3F4350" stroke-opacity="0.48" stroke-linecap="round"/>
<path d="M37 33H46" stroke="#3F4350" stroke-opacity="0.48" stroke-linecap="round"/>
<path d="M36 80H55" stroke="#3F4350" stroke-opacity="0.48" stroke-linecap="round"/>
<path d="M48 33H57" stroke="#3F4350" stroke-opacity="0.48" stroke-linecap="round"/>
<path d="M60 80H72" stroke="#3F4350" stroke-opacity="0.48" stroke-linecap="round"/>
<rect x="57" y="43" width="30" height="16" rx="1" fill="#3F4350" fill-opacity="0.32"/>
<g clip-path="url(#clip0_3901_6912)">
<path d="M44.0003 51.0001L51.867 52.4611C52.665 48.1187 49.7882 43.9429 45.4448 43.1362C41.0993 42.3295 36.9296 45.1946 36.1337 49.5391C35.3357 53.8815 38.2125 58.0572 42.5559 58.8639C43.869 59.1078 45.166 59.0163 46.3599 58.6485L44.0003 51.0001Z" fill="white"/>
<path d="M46.3599 58.6485L51.867 52.4611C52.665 48.1187 49.7882 43.9429 45.4448 43.1362C41.0993 42.3295 36.9316 45.1946 36.1337 49.5391C35.3357 53.8815 38.2125 58.0572 42.5559 58.8639C43.869 59.1078 45.166 59.0163 46.3599 58.6485Z" fill="#3F4350" fill-opacity="0.32"/>
<path d="M46.3596 58.6485C49.1131 57.8011 51.3111 55.4907 51.8667 52.461L44 51L46.3596 58.6485Z" fill="#28427B"/>
<path d="M46.62 53.7927C48.1539 52.3373 48.2244 49.9066 46.7774 48.3638C45.3304 46.8209 42.9139 46.75 41.3799 48.2055C39.846 49.6609 39.7756 52.0916 41.2226 53.6344C42.6696 55.1773 45.0861 55.2482 46.62 53.7927Z" fill="white"/>
</g>
<circle cx="17.8576" cy="17.8576" r="17.3576" transform="matrix(-1 0 0 1 115.715 0)" fill="white" stroke="#3F4350" stroke-linecap="round" stroke-linejoin="round"/>
<path d="M85 19C85 25.6274 90.3726 31 97 31" stroke="#3F4350" stroke-opacity="0.48" stroke-width="1.42861" stroke-linecap="round" stroke-linejoin="round"/>
<line x1="0.5" y1="-0.5" x2="15.3865" y2="-0.5" transform="matrix(0.707107 0.707107 0.707107 -0.707107 108.768 30.6265)" stroke="#3F4350" stroke-linecap="round" stroke-linejoin="round"/>
<circle cx="11.5" cy="42.5" r="2.5" fill="#3F4350" fill-opacity="0.48"/>
<circle cx="2.5" cy="2.5" r="2.5" transform="matrix(1 0 0 -1 10 21)" fill="#3F4350" fill-opacity="0.48"/>
<path d="M119 46.5V68H91.5" stroke="#3F4350" stroke-opacity="0.8" stroke-linecap="round" stroke-linejoin="round"/>
<path d="M88 68H82" stroke="#3F4350" stroke-opacity="0.8" stroke-linecap="round"/>
<path d="M79 68H73" stroke="#3F4350" stroke-opacity="0.8" stroke-linecap="round"/>
<defs>
<clipPath id="clip0_3901_6912">
<rect width="16" height="16" fill="white" transform="translate(36 43)"/>
</clipPath>
</defs>
</svg>
