<svg width="132" height="91" viewBox="0 0 132 91" fill="none" xmlns="http://www.w3.org/2000/svg">
<rect y="25.9527" width="132" height="41" rx="3.75" fill="#3F4350" fill-opacity="0.08"/>
<circle cx="6.5" cy="14.9527" r="2" transform="rotate(-90 6.5 14.9527)" fill="#3F4350" fill-opacity="0.32"/>
<circle cx="6.5" cy="8.9527" r="2" transform="rotate(-90 6.5 8.9527)" fill="#3F4350" fill-opacity="0.32"/>
<circle cx="6.50049" cy="2.9527" r="2" transform="rotate(-90 6.50049 2.9527)" fill="#3F4350" fill-opacity="0.32"/>
<path d="M6.5 19.4527V59.4527H29M31 59.4527H35M37 59.4527H39" stroke="#3F4350" stroke-opacity="0.32" stroke-linecap="round" stroke-linejoin="round"/>
<circle cx="66.7162" cy="45.6689" r="40.2162" fill="white" stroke="#3F4350"/>
<circle cx="68" cy="46.9527" r="38" fill="#1C58D9" fill-opacity="0.08"/>
<path d="M68.9197 18.3951C71.4887 19.2164 71.3834 17.5948 73.0049 19.4832C73.9385 20.5713 75.6231 22.551 77.6236 23.0424C77.9044 23.1126 78.5291 22.5089 78.5291 22.0315C78.5291 21.5542 77.1252 20.5433 76.3531 20.3327C75.581 20.122 76.6689 18.6338 75.609 18.1775C74.5491 17.7211 73.3769 16.0293 72.9558 14.7025C72.5346 13.3756 70.6675 14.4919 70.0287 14.2251C69.39 13.9583 68.6249 14.1198 67.9229 15.1307C67.221 16.1416 68.2598 18.1845 68.9197 18.3951Z" fill="#1C58D9" fill-opacity="0.16"/>
<path d="M82.8323 55.5452C82.8323 54.9906 77.7503 52.2246 77.1326 52.1895C76.1218 52.1263 74.746 51.6209 73.8195 52.1895C73.4281 52.4117 73.0959 52.7247 72.8508 53.1022C72.6753 53.4321 71.6856 52.8213 71.3066 53.0249C70.3941 53.5093 69.9027 51.9298 70.1343 51.3261C70.7731 49.8448 68.5199 50.7785 68.2882 50.3713C68.562 50.8557 68.2111 46.1592 67.4249 48.8058C66.8282 50.8136 64.4908 48.518 64.7716 47.0578C65.2068 44.8043 68.6041 44.4743 69.3482 44.8745C69.7272 45.0781 71.11 47.0788 71.2855 47.0227C71.6645 46.9033 71.0609 44.6639 70.9837 44.369C70.7169 43.2739 72.8087 42.9088 72.9561 41.7646C73.0824 40.7958 73.7423 41.1327 74.36 40.6203C75.3076 39.8691 74.5635 38.4651 75.7638 37.749C76.178 37.5033 77.7292 37.3278 77.9328 36.8925C78.1364 36.4573 76.6272 35.4113 77.9328 35.1024C79.084 34.8216 80.2562 35.32 80.572 33.6562C80.8528 32.1469 79.1682 31.8029 78.6838 30.6305C78.5294 30.2795 78.3399 28.2577 77.624 28.6298C76.7465 29.0931 76.2201 30.2093 75.476 28.8825C74.1775 26.4886 70.9626 25.4566 72.4718 29.2195C73.2439 31.1641 70.366 37.0821 69.9238 31.6133C69.7764 29.7109 64.0907 29.1423 66 27.0362C67.9092 24.9301 70.5836 24.8319 71.2996 21.5534C72.2963 17.0043 69.1446 20.8514 67.5372 19.9949C65.1366 18.6822 67.1722 19.3912 65.9298 21.0901C65.4595 21.736 63.9153 20.6829 63.2274 20.7882C62.5395 20.8935 60.9601 22.2905 60.5179 21.413C59.7177 19.8054 54.0812 18.8156 52.558 19.3842C49.3783 20.5776 48.2762 18.963 45.1035 18.3382C44.0015 18.1205 38.5896 17.9661 38.9405 19.8405C39.1933 20.5275 39.4887 21.1981 39.825 21.8483C40.1689 22.8802 38.6177 22.087 38.2597 22.3327C38.8917 22.8932 39.5524 23.4204 40.2391 23.9122C40.7586 24.4457 38.2527 25.0916 38 25.9761C37.5016 27.7733 41.4465 27.2608 40.7235 29.4231C40.4989 30.0759 38.2456 31.15 38.028 33.3614C37.9859 33.7826 40.8358 30.6235 42.6748 31.2553C44.2963 31.845 44.1559 27.4364 46.1845 27.4364C49.9468 27.4364 50.6768 31.1009 52.6563 33.558C53.5828 34.7022 54.3269 35.1796 54.4953 36.6749C54.6638 38.1702 54.3479 39.7638 54.8533 41.0906C55.3587 42.4174 56.3134 42.4455 56.9591 43.4705C57.7313 44.6709 58.1664 45.8433 59.2123 46.8893C60.7285 48.4127 63.3116 50.7434 65.6981 50.3994C66.1684 50.3292 67.9443 51.3401 68.3444 51.6419C68.8987 52.1629 69.3719 52.764 69.7483 53.4251C70.1694 53.9867 71.5031 53.6357 72.0857 53.9025C72.6683 54.1692 70.731 58.1146 71.4329 59.1255C72.1349 60.1364 72.198 61.5474 73.3422 62.446C74.4863 63.3446 74.746 63.3657 74.8934 64.8469C75.111 67.2478 74.4091 69.6768 73.8335 71.9163C73.5317 73.0605 74.1353 74.3312 73.6861 75.4263C73.1245 76.7953 72.7455 77.9747 73.2369 79.4981C74.0862 82.1447 78.8523 82.5729 76.0446 80.2633C74.8443 79.2804 77.3432 76.9076 76.564 76.683C75.2233 76.1214 76.8097 75.6159 76.9852 75.0332C77.3432 73.8749 82.6568 69.0801 83.0499 68.2868C83.3798 67.6199 83.1692 66.9319 83.7097 66.3563C84.2502 65.7806 85.1135 65.9421 85.8155 65.4928C87.2193 64.5521 86.7139 62.9585 87.2965 61.6598C88.4477 59.0834 88.932 60.1013 87.3527 58.0865C86.7561 57.3564 82.9376 57.6231 82.8323 55.5452Z" fill="#1C58D9" fill-opacity="0.16"/>
<path d="M54.4037 16.5634C55.3723 17.5743 56.334 16.0369 56.5094 16.5634C56.6849 17.0899 56.699 18.1008 57.8501 18.1781C59.0013 18.2553 56.7762 19.0064 57.5202 19.3224C58.2643 19.6383 59.8576 20.6492 60.4402 20.2279C61.0228 19.8067 61.7178 19.4838 61.9775 19.7997C62.2372 20.1156 63.8376 19.7506 63.3813 19.217C62.9251 18.6835 61.7107 17.4269 61.7599 16.7038C61.809 15.9807 63.1638 14.1204 61.6546 14.2818C61.2905 14.3276 60.9588 14.5141 60.7305 14.8015C60.5022 15.0889 60.3955 15.4542 60.4332 15.8193C60.4332 16.3528 59.0294 15.026 58.7346 15.047C58.4397 15.0681 57.4571 13.4324 57.085 13.4324C56.713 13.4324 54.2211 12.6321 54.4317 13.4324C54.6423 14.2327 53.435 15.5525 54.4037 16.5634Z" fill="#1C58D9" fill-opacity="0.16"/>
<path d="M76.6833 24.1595C75.9323 23.7312 74.5073 21.7726 73.8756 22.4044C73.2439 23.0362 74.0371 24.5105 74.5775 25.1142C75.118 25.718 77.3431 27.136 77.0202 26.5183C76.6973 25.9005 78.1574 25.0089 76.6833 24.1595Z" fill="#1C58D9" fill-opacity="0.16"/>
<path d="M55.8707 10.6517C56.2567 10.6166 56.8604 11.9575 57.429 12.1049C57.9975 12.2523 58.2783 12.9192 58.4889 13.0737C58.6995 13.2281 61.079 12.3155 61.6406 12.1049C62.2021 11.8943 60.9386 10.5815 60.4683 9.66189C59.9981 8.74225 60.363 11.1853 59.6962 10.7851C59.0294 10.385 59.1276 9.8374 58.2923 9.8374C57.457 9.8374 58.0396 8.17362 57.0148 8.52462C55.99 8.87563 55.4846 10.6868 55.8707 10.6517Z" fill="#1C58D9" fill-opacity="0.16"/>
<path d="M64.4061 13.839C63.7042 13.9794 63.8376 14.4357 63.4445 14.8288C63.261 15.0164 63.1582 15.2684 63.1582 15.5309C63.1582 15.7933 63.261 16.0453 63.4445 16.2329C63.8025 16.6892 64.364 17.5035 64.7922 16.7243C65.2203 15.9451 64.7922 15.3203 64.7922 14.8148C64.7922 14.3093 64.7501 13.7688 64.4061 13.839Z" fill="#1C58D9" fill-opacity="0.16"/>
<path d="M65.8173 16.3167C65.9927 16.7379 66.3156 15.5726 67.0035 14.9688C67.6914 14.3651 66.6666 12.8628 66.0278 13.628C65.5997 14.1545 65.6418 15.8885 65.8173 16.3167Z" fill="#1C58D9" fill-opacity="0.16"/>
<path d="M65.691 16.8436C65.326 17.3631 65.0312 18.7531 65.691 18.8654C65.8356 18.8821 65.9819 18.8584 66.1137 18.7969C66.2456 18.7353 66.3577 18.6384 66.4378 18.5169C66.5178 18.3954 66.5625 18.254 66.567 18.1086C66.5715 17.9631 66.5355 17.8193 66.4631 17.6931C66.1543 17.1666 65.8455 16.633 65.691 16.8436Z" fill="#1C58D9" fill-opacity="0.16"/>
<path d="M68.3652 7.88538C67.7335 8.17321 69.2917 8.69973 68.2248 8.98756C67.1579 9.27539 67.1298 10.1529 66.2103 9.40875C65.2907 8.66461 64.287 9.66148 64.9819 10.1108C65.6768 10.5601 66.842 11.6693 66.8069 12.273C66.7718 12.8767 67.9089 13.1575 68.9688 13.0873C70.0288 13.0171 71.3063 13.333 71.3414 12.8767C71.3765 12.4204 71.5028 12.2239 71.3765 11.8799C71.194 11.3814 70.7377 10.89 69.6427 11.3182C68.5477 11.7465 67.8317 11.5289 67.6773 10.9953C67.5228 10.4618 69.8252 9.43685 70.843 10.1459C71.8608 10.8549 72.8295 9.75977 72.0854 9.26133C71.3414 8.7629 71.8397 8.23639 72.3521 8.16619C72.7242 8.11705 73.0541 7.17633 73.3348 6.44623C71.7735 6.19368 70.1983 6.03661 68.6179 5.97589C68.6249 6.97978 68.9969 7.59756 68.3652 7.88538Z" fill="#1C58D9" fill-opacity="0.16"/>
<path d="M58.9523 7.00148C59.6543 7.30335 60.8195 7.00149 60.6019 6.46094C59.9631 6.57326 59.3244 6.69259 58.6926 6.82598C58.7629 6.9056 58.8523 6.966 58.9523 7.00148Z" fill="#1C58D9" fill-opacity="0.16"/>
<path d="M59.3873 7.5979C58.3905 7.08542 58.4467 8.34203 58.9029 8.84046C59.3592 9.33889 60.6788 8.22971 59.3873 7.5979Z" fill="#1C58D9" fill-opacity="0.16"/>
<path d="M65.4524 5.97639C65.7587 6.03168 66.045 6.1665 66.2828 6.36733C66.5205 6.56816 66.7014 6.82795 66.8071 7.12068C66.9405 7.56997 68.0144 6.59417 68.0285 5.95533H67.0037C66.4842 5.94831 65.9718 5.95533 65.4524 5.97639Z" fill="#1C58D9" fill-opacity="0.16"/>
<path d="M63.3459 7.45058C62.8967 8.06836 63.2827 8.81249 63.8162 8.19472C64.3497 7.57694 63.9215 6.01145 64.3426 6.68538C64.7638 7.35932 65.55 8.42638 66.0764 8.47552C66.6029 8.52466 66.1466 7.85072 66.0764 7.28911C66.0062 6.72749 64.7498 6.19397 64.8902 6.00443C64.104 6.04655 63.3249 6.10972 62.5527 6.19396C63.1073 6.55901 63.6899 7.00831 63.3459 7.45058Z" fill="#1C58D9" fill-opacity="0.16"/>
<path d="M65.6909 12.7728C66.3156 13.0255 65.6909 11.5021 65.6909 11.5021C65.0381 11.8882 65.0732 12.513 65.6909 12.7728Z" fill="#1C58D9" fill-opacity="0.16"/>
<path d="M63.4448 11.8106C63.5501 12.2388 64.224 12.3792 64.5819 11.8106C64.9399 11.2419 64.5819 9.17799 64.0765 9.83086C63.5711 10.4837 62.9885 10.1819 61.9707 9.83086C60.9529 9.47985 63.3466 11.3613 63.4448 11.8106Z" fill="#1C58D9" fill-opacity="0.16"/>
<path d="M70.3655 47.978C71.2359 47.8727 71.7694 48.9328 72.7521 48.8837C73.7348 48.8345 75.2229 50.3228 76.0722 49.4383C76.7741 48.7362 73.0399 48.1395 71.8606 47.5007C70.6814 46.8618 69.5021 48.0834 70.3655 47.978Z" fill="#1C58D9" fill-opacity="0.16"/>
<path d="M74.7033 8.06045C75.9247 8.65014 75.7141 8.62908 74.9701 9.19771C74.226 9.76635 74.4928 11.0019 76.1353 10.9177C77.7778 10.8334 78.7956 9.19771 79.5397 11.5003C80.2837 13.803 79.7502 16.3162 80.7048 17.0252C81.6595 17.7343 80.8663 18.2116 80.7048 18.8715C80.5434 19.5314 80.9716 20.0088 81.7156 19.7982C82.4597 19.5876 82.2491 20.9706 81.7156 21.5532C81.1822 22.1359 80.5504 23.2521 82.1929 25.2739C83.8355 27.2958 84.0531 27.022 84.5795 27.717C85.106 28.412 85.5412 27.4572 85.6956 26.6569C85.85 25.8566 85.3236 23.0415 87.2118 23.0415C87.7999 23.0352 88.3704 22.84 88.8393 22.4849C89.3081 22.1297 89.6505 21.6333 89.8159 21.0689C90.0265 20.5915 91.5146 20.6406 92.3078 19.9526C93.101 19.2647 93.8029 18.8224 93.8239 16.4426C88.3684 11.3791 81.5864 7.97056 74.2682 6.61429C74.0927 7.16186 74.0997 7.77964 74.7033 8.06045Z" fill="#1C58D9" fill-opacity="0.16"/>
<path d="M107.091 59.9527L124 59.9527L124 72.9527" stroke="#3F4350" stroke-linecap="round" stroke-linejoin="round"/>
<path d="M102.864 59.9527L98.6363 59.9527" stroke="#3F4350" stroke-linecap="round" stroke-linejoin="round"/>
<path d="M95.8181 59.9527L92.9999 59.9527" stroke="#3F4350" stroke-linecap="round" stroke-linejoin="round"/>
<path d="M58.6019 1.3358C66.948 -0.280106 75.0348 0.446862 82.8517 3.5187C86.0609 4.77985 89.2246 6.43623 92.3421 8.48799C96.241 11.2668 99.561 14.3748 102.301 17.814M75.1367 89.728C65.3658 91.4792 55.9902 90.2154 47.0305 85.9065C45.1531 85.0036 43.2939 83.9671 41.4532 82.7965C36.5678 79.1926 32.595 75.1313 29.5312 70.61M22.6732 53.7993C21.5895 47.9652 21.6254 42.2421 22.7809 36.6301C23.9485 30.9589 26.2594 25.401 29.7137 19.9566M107.617 26.3906C109.192 29.7714 110.342 33.3957 111.065 37.2645C111.935 41.9445 112.097 46.5196 111.552 50.9892M105.118 21.791C105.559 22.4944 105.978 23.2099 106.376 23.9375" stroke="#3F4350" stroke-opacity="0.48"/>
</svg>
