<svg width="159" height="99" viewBox="0 0 159 99" fill="none" xmlns="http://www.w3.org/2000/svg">
<g clip-path="url(#clip0_3901_5896)">
<path d="M154.874 33.2068C154.874 49.338 141.741 62.4137 125.543 62.4137C116.359 62.4137 108.159 58.2106 102.782 51.6292C98.6743 46.6029 96.2129 40.1917 96.2129 33.2068C96.2129 17.0757 109.345 4 125.543 4C141.741 4 154.874 17.0757 154.874 33.2068Z" fill="white"/>
<path d="M154.874 33.2068C154.874 49.338 141.741 62.4137 125.543 62.4137C116.359 62.4137 108.159 58.2106 102.782 51.6292C98.6743 46.6029 96.2129 40.1917 96.2129 33.2068C96.2129 17.0757 109.345 4 125.543 4C141.741 4 154.874 17.0757 154.874 33.2068Z" fill="#3F4350" fill-opacity="0.12"/>
<mask id="mask0_3901_5896" style="mask-type:luminance" maskUnits="userSpaceOnUse" x="96" y="4" width="59" height="59">
<path d="M154.874 33.2068C154.874 49.338 141.741 62.4137 125.543 62.4137C116.359 62.4137 108.159 58.2106 102.782 51.6292C98.6743 46.6029 96.2129 40.1917 96.2129 33.2068C96.2129 17.0757 109.345 4 125.543 4C141.741 4 154.874 17.0757 154.874 33.2068Z" fill="white"/>
</mask>
<g mask="url(#mask0_3901_5896)">
<path d="M140.808 51.3515L139.661 28.4265C139.174 18.6883 133.001 11.1166 125.549 11.1166C118.097 11.1166 111.923 18.6883 111.436 28.4265L110.289 51.3515H140.808Z" fill="#1B1D22"/>
<path d="M147.667 52.088C146.581 48.329 143.541 45.4538 139.728 44.5751L131.662 42.7173H119.434L111.368 44.5751C107.553 45.4538 104.515 48.329 103.429 52.088L100.351 68.3442H150.745L147.667 52.088Z" fill="white"/>
<path opacity="0.24" d="M147.667 52.088C146.581 48.329 143.541 45.4538 139.728 44.5751L131.662 42.7173H119.434L111.368 44.5751C107.553 45.4538 104.515 48.329 103.429 52.088L100.351 68.3442H150.745L147.667 52.088Z" fill="#1C58D9"/>
<path d="M130.845 43.0557L129.191 37.3966H121.931L120.588 43.0557C123.518 44.6276 127.914 44.6276 130.845 43.0557Z" fill="white"/>
<path d="M130.845 43.0557L129.191 37.3966H121.931L120.588 43.0557C123.518 44.6276 127.914 44.6276 130.845 43.0557Z" fill="#3F4350" fill-opacity="0.56"/>
<path d="M135.926 25.7253C136.944 25.4367 136.991 27.0273 136.605 28.6774C136.252 30.1811 135.926 32.6383 134.867 32.0418C133.591 35.5825 131.263 38.2746 128.448 39.3405C127.574 39.7414 126.645 39.9608 125.682 39.9608C124.442 39.9608 123.259 39.5972 122.176 38.9506C119.745 37.6932 117.755 35.1897 116.616 32.0037C115.57 32.2782 115.127 29.6808 114.891 28.6774C114.593 27.4027 114.213 25.7252 115.57 25.7252C115.598 18.0023 120.144 11.7537 125.748 11.7537C131.352 11.7537 135.898 18.0024 135.926 25.7253Z" fill="white"/>
<path d="M135.926 25.7253C136.944 25.4367 136.991 27.0273 136.605 28.6774C136.252 30.1811 135.926 32.6383 134.867 32.0418C133.591 35.5824 131.263 38.2746 128.448 39.3405C127.574 39.7414 126.645 39.9608 125.682 39.9608C124.442 39.9608 123.259 39.5972 122.176 38.9506C119.745 37.6932 117.755 35.1897 116.616 32.0037C115.57 32.2782 115.127 29.6808 114.891 28.6774C114.593 27.4027 114.213 25.7252 115.57 25.7252C115.598 18.0023 120.144 11.7537 125.748 11.7537C131.352 11.7537 135.898 18.0024 135.926 25.7253Z" fill="#3F4350" fill-opacity="0.56"/>
<path d="M136.755 25.7675C136.74 25.8843 136.662 25.9877 136.544 26.0461C136.426 26.1045 136.283 26.1111 136.159 26.0628C133.037 24.8733 130.01 21.6652 129.053 18.6539C126.024 21.7953 121.026 25.4689 116.045 26.2763C116.018 26.2813 115.993 26.283 115.966 26.283L115.967 26.2847C115.878 26.2847 115.789 26.2596 115.716 26.2146C115.621 26.1545 115.559 26.0628 115.543 25.9627C115.042 22.3664 116.098 15.5624 119.306 13.4632C121.427 12.0748 123.06 11.1522 125.717 11.3263C128.415 11.5032 131.348 12.9654 133.438 14.4465C136.537 16.6432 137.191 22.2593 136.755 25.7675Z" fill="#1B1D22"/>
</g>
<path d="M62.5219 32.2645C62.5219 48.4275 49.3635 61.5289 33.1335 61.5289C23.9306 61.5289 15.715 57.3175 10.3273 50.7231C6.21142 45.6869 3.74512 39.2631 3.74512 32.2645C3.74512 16.1015 16.9035 3 33.1335 3C49.3635 3 62.5219 16.1015 62.5219 32.2645Z" fill="white"/>
<path d="M62.5219 32.2645C62.5219 48.4275 49.3635 61.5289 33.1335 61.5289C23.9306 61.5289 15.715 57.3175 10.3273 50.7231C6.21142 45.6869 3.74512 39.2631 3.74512 32.2645C3.74512 16.1015 16.9035 3 33.1335 3C49.3635 3 62.5219 16.1015 62.5219 32.2645Z" fill="#3F4350" fill-opacity="0.12"/>
<mask id="mask1_3901_5896" style="mask-type:luminance" maskUnits="userSpaceOnUse" x="3" y="3" width="60" height="59">
<path d="M62.5219 32.2645C62.5219 48.4275 49.3635 61.5289 33.1335 61.5289C23.9306 61.5289 15.715 57.3175 10.3273 50.7231C6.21142 45.6869 3.74512 39.2631 3.74512 32.2645C3.74512 16.1015 16.9035 3 33.1335 3C49.3635 3 62.5219 16.1015 62.5219 32.2645Z" fill="white"/>
</mask>
<g mask="url(#mask1_3901_5896)">
<path d="M59.0601 56.2833C57.7843 52.1578 54.223 49.0025 49.7535 48.0379L40.2987 46H25.9641L16.5093 48.0379C12.0378 49.0025 8.47654 52.1578 7.20276 56.2833L3.59473 74.1244H62.6681L59.0601 56.2833Z" fill="white"/>
<path opacity="0.24" d="M59.061 56.2833C57.7852 52.1578 54.2239 49.0025 49.7545 48.0379L40.2997 46H25.9651L16.5103 48.0379C12.0388 49.0025 8.47752 52.1578 7.20373 56.2833L3.5957 74.1244H62.6691L59.061 56.2833Z" fill="#1C58D9"/>
<path d="M38.8757 46.7931L36.9407 41H28.4467L26.8757 46.7931C30.3043 48.4023 35.4472 48.4023 38.8757 46.7931Z" fill="white"/>
<path d="M38.8757 46.7931L36.9407 41H28.4467L26.8757 46.7931C30.3043 48.4023 35.4472 48.4023 38.8757 46.7931Z" fill="#3F4350" fill-opacity="0.56"/>
<path d="M43.9016 29.3643C45.0009 29.0676 45.0509 30.7029 44.6345 32.3994C44.2538 33.9454 43.9016 36.4716 42.7578 35.8584C41.3795 39.4985 38.8659 42.2663 35.8257 43.3622C34.8816 43.7744 33.8784 44 32.8384 44C31.4995 44 30.2215 43.6261 29.0523 42.9613C26.427 41.6686 24.2783 39.0947 23.0476 35.8192C21.9185 36.1014 21.4397 33.431 21.1856 32.3994C20.8629 31.0889 20.4528 29.3642 21.9185 29.3642C21.9487 21.4243 26.8582 15 32.9101 15C38.9619 15 43.8715 21.4243 43.9016 29.3643Z" fill="white"/>
<path d="M43.9016 29.3643C45.0009 29.0676 45.0509 30.7029 44.6345 32.3994C44.2538 33.9454 43.9016 36.4716 42.7578 35.8584C41.3795 39.4985 38.8659 42.2663 35.8257 43.3622C34.8816 43.7744 33.8784 44 32.8384 44C31.4995 44 30.2215 43.6261 29.0523 42.9613C26.427 41.6686 24.2783 39.0947 23.0476 35.8192C21.9185 36.1014 21.4397 33.431 21.1856 32.3994C20.8629 31.0889 20.4528 29.3642 21.9185 29.3642C21.9487 21.4243 26.8582 15 32.9101 15C38.9619 15 43.8715 21.4243 43.9016 29.3643Z" fill="#3F4350" fill-opacity="0.56"/>
<path d="M20.8989 13.5734C18.0845 17.0127 18.0253 22.6279 20.7389 27.6575C21.6661 28.7724 22.5911 29.8851 23.5183 31C23.4898 22.8734 24.8071 20.6841 26.0872 20.2854C28.198 19.6232 30.699 23.6775 35.2779 23.5762C35.9749 23.5604 37.5377 23.5041 38.4934 22.4094C39.3176 21.4657 39.1926 20.308 39.4403 20.2832C39.8502 20.2426 40.5889 22.4545 42.0092 30.9977C42.9233 29.8761 43.8395 28.7521 44.7535 27.6304C45.2533 25.6799 45.7136 23.1212 45.7442 20.1075C45.7859 16.033 43.7893 13.4537 43.0769 11.163C40.3896 17.9456 37.6822 9.48613 29.0507 9.5C26.2473 9.50451 22.7423 11.321 20.8989 13.5734Z" fill="#1B1D22"/>
</g>
<circle cx="77.5" cy="53.5" r="41.5" fill="white"/>
<circle cx="77.2451" cy="53.5" r="38.5" fill="#3F4350" fill-opacity="0.16"/>
<mask id="mask2_3901_5896" style="mask-type:luminance" maskUnits="userSpaceOnUse" x="38" y="15" width="79" height="77">
<path d="M38.8409 53.5C38.8409 74.7639 56.1291 92 77.4532 92C89.5445 92 100.339 86.4595 107.417 77.784C112.825 71.1584 116.065 62.7074 116.065 53.5C116.065 32.2361 98.7772 15 77.4532 15C56.1291 15 38.8409 32.2361 38.8409 53.5Z" fill="white"/>
</mask>
<g mask="url(#mask2_3901_5896)">
<path d="M53.2375 74.5C57.2343 71.6636 71.223 68.9848 77.7178 68C83.713 69.1818 97.402 72.3727 104.196 75.6818C110.991 78.9909 112.024 89.2727 111.69 94H43.7451C43.7451 81 48.2415 78.0455 53.2375 74.5Z" fill="white"/>
<path d="M53.2375 74.5C57.2343 71.6636 71.223 68.9848 77.7178 68C83.713 69.1818 97.402 72.3727 104.196 75.6818C110.991 78.9909 112.024 89.2727 111.69 94H43.7451C43.7451 81 48.2415 78.0455 53.2375 74.5Z" fill="#3F4350" fill-opacity="0.8"/>
<path d="M86.7451 70L83.9232 61H71.536L69.2451 70C74.2451 72.5 81.7451 72.5 86.7451 70Z" fill="white"/>
<path d="M86.7451 70L83.9232 61H71.536L69.2451 70C74.2451 72.5 81.7451 72.5 86.7451 70Z" fill="#3F4350" fill-opacity="0.56"/>
<path d="M94.2839 44.2988C95.9328 43.8589 96.0079 46.2836 95.3833 48.7991C94.8122 51.0914 94.2839 54.8372 92.5681 53.9279C90.5008 59.3254 86.7304 63.4294 82.1701 65.0543C80.754 65.6655 79.2492 66 77.6892 66C75.6808 66 73.7638 65.4456 72.0099 64.4599C68.0719 62.5431 64.849 58.7266 63.0029 53.8698C61.3093 54.2883 60.591 50.3287 60.2099 48.7991C59.7258 46.8559 59.1107 44.2986 61.3093 44.2986C61.3546 32.5256 68.7189 23 77.7966 23C86.8744 23 94.2387 32.5258 94.2839 44.2988Z" fill="white"/>
<path d="M94.2839 44.2988C95.9328 43.8589 96.0079 46.2836 95.3833 48.7991C94.8122 51.0914 94.2839 54.8372 92.5681 53.9279C90.5008 59.3254 86.7304 63.4294 82.1701 65.0543C80.754 65.6655 79.2492 66 77.6892 66C75.6808 66 73.7638 65.4456 72.0099 64.4599C68.0719 62.5431 64.849 58.7266 63.0029 53.8698C61.3093 54.2883 60.591 50.3287 60.2099 48.7991C59.7258 46.8559 59.1107 44.2986 61.3093 44.2986C61.3546 32.5256 68.7189 23 77.7966 23C86.8744 23 94.2387 32.5258 94.2839 44.2988Z" fill="#3F4350" fill-opacity="0.56"/>
<path d="M63.7192 26.383C65.8849 23.3965 67.4343 22.887 68.1926 22.6376C68.4484 22.5535 68.6142 22.499 68.6833 22.389C71.6617 17.6451 84.4192 18.5261 87.8492 21.1133C95.6535 27 93.7316 31.0627 94.6141 35.9071C95.0714 38.3922 94.2008 41.4418 94 44C93.7541 42.3029 92.3508 37.0742 92.2451 36.5C91.0084 33.5 85.588 37.1501 82.7451 37C76.3586 36.6628 71.5753 35.5414 68.1926 31.5C67.1798 35.0839 64.0724 39.4355 62.1425 39.8437L61.7336 43.4729C60.5724 37.0332 59.6532 31.9903 63.7192 26.383Z" fill="#1B1D22"/>
</g>
<path d="M125.309 0.427827C131.511 0.388622 137.213 1.9948 142.406 5.24635C144.539 6.58128 146.585 8.19355 148.546 10.0832C150.969 12.599 152.933 15.2733 154.436 18.1072M157.098 24.9709C157.774 27.6067 158.113 30.36 158.113 33.2316C158.108 36.7044 157.611 40.0073 156.621 43.1395M155.923 21.3371C156.145 21.9007 156.35 22.47 156.538 23.0452" stroke="#3F4350" stroke-opacity="0.48"/>
<path d="M113.789 79.5469C109.126 86.3471 103.047 91.3528 95.5563 94.5552C92.4812 95.87 89.1683 96.8809 85.6181 97.5872C81.033 98.3236 76.6235 98.4385 72.3891 97.9295M62.8768 95.6274C59.4866 94.3653 56.2242 92.6456 53.0895 90.4668C49.3018 87.827 46.0734 84.7784 43.4056 81.3206M67.7349 97.102C66.9517 96.9162 66.1748 96.7077 65.4044 96.4764" stroke="#3F4350" stroke-opacity="0.48"/>
<path d="M33.54 65.2666C26.298 65.2117 19.744 63.0477 13.8966 58.7556C12.6714 57.8563 11.4772 56.8635 10.3141 55.7772C7.29409 52.5373 4.98988 49.0918 3.39919 45.4384M0.73623 32.4628C0.741731 28.1336 1.53521 24.0342 3.11665 20.1646C4.7148 16.2542 7.11764 12.5784 10.3252 9.13739" stroke="#3F4350" stroke-opacity="0.48"/>
</g>
<defs>
<clipPath id="clip0_3901_5896">
<rect width="159" height="99" fill="white"/>
</clipPath>
</defs>
</svg>
