<svg width="189" height="116" viewBox="0 0 189 116" fill="none" xmlns="http://www.w3.org/2000/svg">
<path d="M12.02 3.29629L12.02 17L143.02 17" stroke="#3F4350" stroke-opacity="0.32" stroke-linecap="round"/>
<ellipse cx="2" cy="2" rx="2" ry="2" transform="matrix(1 8.74228e-08 8.74228e-08 -1 10.02 4)" fill="#3F4350" fill-opacity="0.48"/>
<path d="M185.77 37.2319L185.77 12.9336L161.922 12.9336" stroke="#3F4350" stroke-opacity="0.32" stroke-linecap="round"/>
<circle cx="185.77" cy="39.4818" r="2.24985" transform="rotate(180 185.77 39.4818)" fill="#3F4350" fill-opacity="0.48"/>
<path d="M109.563 44.6124H153.686" stroke="#3F4350" stroke-opacity="0.12" stroke-linecap="round"/>
<path d="M116.135 50.2451H160.257" stroke="#3F4350" stroke-opacity="0.12" stroke-linecap="round"/>
<path d="M111.441 56.8165H155.563" stroke="#3F4350" stroke-opacity="0.12" stroke-linecap="round"/>
<path d="M119.89 68.0818H140.543" stroke="#3F4350" stroke-opacity="0.12" stroke-linecap="round"/>
<path d="M105.808 39.1042H119.889" stroke="#3F4350" stroke-opacity="0.12" stroke-linecap="round"/>
<path d="M122.706 39.1042H143.359" stroke="#3F4350" stroke-opacity="0.12" stroke-linecap="round"/>
<path d="M146.175 39.1042H164.012" stroke="#3F4350" stroke-opacity="0.12" stroke-linecap="round"/>
<path d="M133.033 73.7149H150.869" stroke="#3F4350" stroke-opacity="0.12" stroke-linecap="round"/>
<path d="M119.89 73.7149H130.216" stroke="#3F4350" stroke-opacity="0.12" stroke-linecap="round"/>
<path d="M113.318 62.1778H133.971" stroke="#3F4350" stroke-opacity="0.12" stroke-linecap="round"/>
<path d="M136.788 62.1777H154.624" stroke="#3F4350" stroke-opacity="0.12" stroke-linecap="round"/>
<path d="M109.563 33.8164H133.032" stroke="#3F4350" stroke-opacity="0.12" stroke-linecap="round"/>
<path d="M136.788 33.8164H160.257" stroke="#3F4350" stroke-opacity="0.12" stroke-linecap="round"/>
<path d="M145.118 50.3883C146.095 50.3883 146.884 51.1741 146.884 52.1481V59.9186C146.884 66.5526 143.909 71.932 137.259 71.9323H131.861C125.211 71.9323 122.235 66.5528 122.235 59.9186V52.1481C122.235 51.1774 123.028 50.3883 124.001 50.3883H145.118ZM133.235 54.9244V61.0016L134.478 62.2448L133.235 63.4869V65.1295H136.636V58.3639L135.686 57.4137L136.636 56.4625V54.9244H133.235Z" fill="#1C58D9"/>
<path d="M135.307 38.0882C140.096 38.0882 143.352 42.1354 143.352 47.1077V50.4271C143.352 51.6879 140.375 51.6895 140.375 50.4271V47.1077C140.375 43.7247 138.425 41.148 135.747 41.1478H132.835C130.324 41.1478 128.208 43.7245 128.208 47.1077V50.4271C128.208 51.6903 125.235 51.6894 125.235 50.4271V47.1077C125.235 42.1354 128.491 38.0882 133.28 38.0882H135.307Z" fill="#1C58D9"/>
<path d="M66.1304 8H133.87L138 101H62L66.1304 8Z" fill="#3F4350" fill-opacity="0.16"/>
<rect width="92" height="5" transform="matrix(1 0 0 -1 54 106)" fill="#3F4350" fill-opacity="0.32"/>
<rect x="34" y="2" width="131" height="86" rx="4" fill="white" stroke="#3F4350" stroke-width="4"/>
<path d="M27.02 106H72.02V41.02C72.02 38.2475 69.7725 36 67 36H32.04C29.2676 36 27.02 38.2475 27.02 41.02V106Z" fill="#3F4350" fill-opacity="0.16"/>
<rect width="32" height="37" rx="5.02" transform="matrix(1 0 0 -1 146.02 90)" fill="#3F4350" fill-opacity="0.16"/>
<rect x="151.838" y="51.1626" width="33.2988" height="62.7256" rx="5.80793" fill="white" stroke="#3F4350" stroke-width="2.32317"/>
<path d="M153 56.5833C153 54.231 154.907 52.3242 157.259 52.3242H179.716C182.069 52.3242 183.976 54.231 183.976 56.5833V57.7449H153V56.5833Z" fill="#1C58D9" fill-opacity="0.16"/>
<path d="M158 78H179" stroke="#3F4350" stroke-opacity="0.12" stroke-linecap="round"/>
<path d="M159 81H177.951" stroke="#3F4350" stroke-opacity="0.12" stroke-linecap="round"/>
<path d="M158 84L180 84" stroke="#3F4350" stroke-opacity="0.12" stroke-linecap="round"/>
<path d="M158 96L180 96" stroke="#3F4350" stroke-opacity="0.12" stroke-linecap="round"/>
<path d="M159 90L178.003 90" stroke="#3F4350" stroke-opacity="0.12" stroke-linecap="round"/>
<path d="M156 75H161" stroke="#3F4350" stroke-opacity="0.12" stroke-linecap="round"/>
<path d="M163 75H171.871" stroke="#3F4350" stroke-opacity="0.12" stroke-linecap="round"/>
<path d="M164 99H172.871" stroke="#3F4350" stroke-opacity="0.12" stroke-linecap="round"/>
<path d="M174 75H181.661" stroke="#3F4350" stroke-opacity="0.12" stroke-linecap="round"/>
<path d="M167.693 93H175.355" stroke="#3F4350" stroke-opacity="0.12" stroke-linecap="round"/>
<path d="M161.098 93H165.533" stroke="#3F4350" stroke-opacity="0.12" stroke-linecap="round"/>
<path d="M159 87H167.871" stroke="#3F4350" stroke-opacity="0.12" stroke-linecap="round"/>
<path d="M170 87H177.661" stroke="#3F4350" stroke-opacity="0.12" stroke-linecap="round"/>
<path d="M158 72H167" stroke="#3F4350" stroke-opacity="0.12" stroke-linecap="round"/>
<path d="M169 72H179" stroke="#3F4350" stroke-opacity="0.12" stroke-linecap="round"/>
<path d="M174.847 80.9736C175.436 80.9739 175.911 81.4476 175.911 82.0342V86.7139C175.911 90.7097 174.118 93.9492 170.113 93.9492H166.862C162.857 93.9492 161.064 90.7097 161.064 86.7139V82.0342C161.064 81.4496 161.541 80.9739 162.128 80.9736H174.847ZM167.689 83.7061V87.3662L168.438 88.1152L167.689 88.8643V89.8526H169.738V85.7774L169.166 85.2051L169.738 84.6328V83.7061H167.689Z" fill="#1C58D9"/>
<path d="M168.938 73.5652C171.822 73.5652 173.783 76.0029 173.783 78.9978V80.9968C173.783 81.7562 171.989 81.7572 171.989 80.9968V78.9978C171.989 76.9601 170.815 75.408 169.202 75.408H167.449C165.937 75.408 164.661 76.9601 164.661 78.9978V80.9968C164.661 81.7577 162.871 81.7572 162.871 80.9968V78.9978C162.871 76.0029 164.832 73.5652 167.717 73.5652H168.938Z" fill="#1C58D9"/>
<circle cx="100" cy="45" r="35" fill="#1C58D9" fill-opacity="0.04"/>
<g clip-path="url(#clip0_4047_1843)">
<mask id="mask0_4047_1843" style="mask-type:luminance" maskUnits="userSpaceOnUse" x="80" y="25" width="40" height="40">
<path d="M80 25H120V65H80V25Z" fill="white"/>
</mask>
<g mask="url(#mask0_4047_1843)">
<path d="M80 31.045C80 25.9363 86.68 23.1397 91.0931 26.4006L100.687 33.485L108.783 28.8972C113.062 26.5638 119.919 28.2375 120 34.616V58.1222C120 63.231 113.516 65.8944 109.103 62.6331L99.3344 55.3938L91.2288 59.9828C86.9094 62.3385 80.0069 60.5313 80.0069 54.3235C80.0069 46.8725 80 49.7335 80 31.0456V31.045Z" fill="url(#paint0_linear_4047_1843)"/>
<path d="M80 31.045C80 25.9363 86.68 23.1397 91.0931 26.4006L100.687 33.485L108.783 28.8972C113.062 26.5638 119.919 28.2375 120 34.616V58.1222C120 63.231 113.516 65.8944 109.103 62.6331L99.3344 55.3938L91.2288 59.9828C86.9094 62.3385 80.0069 60.5313 80.0069 54.3235C80.0069 46.8725 80 49.7335 80 31.0456V31.045Z" fill="url(#paint1_radial_4047_1843)"/>
<path d="M80 31.045C80 25.9363 86.68 23.1397 91.0931 26.4006L100.687 33.485L108.783 28.8972C113.062 26.5638 119.919 28.2375 120 34.616V58.1222C120 63.231 113.516 65.8944 109.103 62.6331L99.3344 55.3938L91.2288 59.9828C86.9094 62.3385 80.0069 60.5313 80.0069 54.3235C80.0069 46.8725 80 49.7335 80 31.0456V31.045Z" fill="url(#paint2_radial_4047_1843)"/>
<path d="M91.0931 26.4006C86.68 23.1397 80 25.9363 80 31.045V54.0344C80 53.4756 80.2847 52.3628 80.2847 52.3628C81.6009 48.0603 87.1963 46.4472 91.0675 49.2825L109.103 62.6335C113.516 65.8944 120 63.231 120 58.1222V34.616C120 38.98 114.296 43.361 108.907 39.565L91.0931 26.4006Z" fill="url(#paint3_radial_4047_1843)"/>
<path d="M91.0931 26.4006C86.68 23.1397 80 25.9363 80 31.045V54.0344C80 53.4756 80.2847 52.3628 80.2847 52.3628C81.6009 48.0603 87.1963 46.4472 91.0675 49.2825L109.103 62.6335C113.516 65.8944 120 63.231 120 58.1222V34.616C120 38.98 114.296 43.361 108.907 39.565L91.0931 26.4006Z" fill="url(#paint4_radial_4047_1843)" fill-opacity="0.25"/>
<path d="M91.0931 26.4006C86.68 23.1397 80 25.9363 80 31.045V54.0344C80 53.4756 80.2847 52.3628 80.2847 52.3628C81.6009 48.0603 87.1963 46.4472 91.0675 49.2825L109.103 62.6335C113.516 65.8944 120 63.231 120 58.1222V34.616C120 38.98 114.296 43.361 108.907 39.565L91.0931 26.4006Z" fill="url(#paint5_radial_4047_1843)" fill-opacity="0.55"/>
<path d="M91.0931 39.4289C86.68 36.1677 80 38.9645 80 44.0733V31.0452C80 25.9358 86.68 23.1392 91.0931 26.4002L108.907 39.5645C114.296 43.3608 120 38.9798 120 34.6158V47.9489C120 53.0577 113.32 55.8542 108.907 52.5933L91.0931 39.4289Z" fill="url(#paint6_linear_4047_1843)"/>
<path d="M91.0931 39.4289C86.68 36.1677 80 38.9645 80 44.0733V31.0452C80 25.9358 86.68 23.1392 91.0931 26.4002L108.907 39.5645C114.296 43.3608 120 38.9798 120 34.6158V47.9489C120 53.0577 113.32 55.8542 108.907 52.5933L91.0931 39.4289Z" fill="url(#paint7_radial_4047_1843)" fill-opacity="0.36"/>
</g>
</g>
<rect x="66.5" y="28.5" width="85" height="65" rx="3.75799" transform="rotate(90 66.5 28.5)" fill="white" stroke="#3F4350" stroke-width="3"/>
<path d="M3 30.9706C3 30.4345 3.43455 30 3.97059 30H64.0294C64.5655 30 65 30.4345 65 30.9706V36H3V30.9706Z" fill="#1C58D9" fill-opacity="0.16"/>
<path d="M40.9648 67.9253C41.5971 67.9253 42.1083 68.4337 42.1084 69.064V74.0923C42.1083 78.3848 40.1823 81.8656 35.8799 81.8657H32.3867C28.0841 81.8657 26.1583 78.3849 26.1582 74.0923V69.064C26.1583 68.436 26.6708 67.9255 27.3008 67.9253H40.9648ZM33.2754 70.8609V74.7935L34.0791 75.5972L33.2754 76.4009V77.4644H35.4766V73.0864L34.8613 72.4712L35.4766 71.856V70.8609H33.2754Z" fill="#1C58D9"/>
<path d="M34.6169 59.9664C37.7156 59.9664 39.822 62.585 39.822 65.8024V67.9508C39.8216 68.7663 37.8957 68.7673 37.8953 67.9508V65.8024C37.8953 63.6134 36.6339 61.9461 34.9011 61.9459H33.0173C31.3926 61.9459 30.0232 63.6132 30.0232 65.8024C30.0232 65.8024 30.0232 67.1334 30.0232 67.9508C30.0228 68.7678 28.0998 68.7673 28.0994 67.9508V65.8024C28.0994 62.5852 30.206 59.9667 33.3044 59.9664H34.6169Z" fill="#1C58D9"/>
<path d="M15.961 63H50.6092" stroke="#3F4350" stroke-opacity="0.12" stroke-linecap="round"/>
<path d="M17.6108 66H48.879" stroke="#3F4350" stroke-opacity="0.12" stroke-linecap="round"/>
<path d="M15.9609 69L52.2591 69" stroke="#3F4350" stroke-opacity="0.12" stroke-linecap="round"/>
<path d="M15.9609 81L52.2591 81" stroke="#3F4350" stroke-opacity="0.12" stroke-linecap="round"/>
<path d="M17.6108 75L48.9645 75" stroke="#3F4350" stroke-opacity="0.12" stroke-linecap="round"/>
<path d="M12.6611 60H20.9107" stroke="#3F4350" stroke-opacity="0.12" stroke-linecap="round"/>
<path d="M24.2107 60H38.8469" stroke="#3F4350" stroke-opacity="0.12" stroke-linecap="round"/>
<path d="M25.8606 84H40.4968" stroke="#3F4350" stroke-opacity="0.12" stroke-linecap="round"/>
<path d="M42.3596 60H54.9999" stroke="#3F4350" stroke-opacity="0.12" stroke-linecap="round"/>
<path d="M31.9543 78H44.5947" stroke="#3F4350" stroke-opacity="0.12" stroke-linecap="round"/>
<path d="M21.0723 78H28.3903" stroke="#3F4350" stroke-opacity="0.12" stroke-linecap="round"/>
<path d="M17.6108 72H32.247" stroke="#3F4350" stroke-opacity="0.12" stroke-linecap="round"/>
<path d="M35.76 72H48.4003" stroke="#3F4350" stroke-opacity="0.12" stroke-linecap="round"/>
<path d="M15.9609 57H30.8102" stroke="#3F4350" stroke-opacity="0.12" stroke-linecap="round"/>
<path d="M34.1101 57H50.6093" stroke="#3F4350" stroke-opacity="0.12" stroke-linecap="round"/>
<defs>
<linearGradient id="paint0_linear_4047_1843" x1="97.0816" y1="64.0625" x2="111.357" y2="33.5163" gradientUnits="userSpaceOnUse">
<stop offset="0.02" stop-color="#1169DA"/>
<stop offset="0.435" stop-color="#0151BD"/>
<stop offset="0.614" stop-color="#014DB7"/>
<stop offset="1" stop-color="#126AD9"/>
</linearGradient>
<radialGradient id="paint1_radial_4047_1843" cx="0" cy="0" r="1" gradientUnits="userSpaceOnUse" gradientTransform="translate(115.797 19.5894) rotate(110.224) scale(29.2247 21.8917)">
<stop offset="0.423" stop-color="#004AFF" stop-opacity="0.1"/>
<stop offset="0.729" stop-color="#014DB9"/>
<stop offset="0.836" stop-color="#014DB9" stop-opacity="0.9"/>
<stop offset="0.955" stop-color="#014DB9" stop-opacity="0"/>
</radialGradient>
<radialGradient id="paint2_radial_4047_1843" cx="0" cy="0" r="1" gradientUnits="userSpaceOnUse" gradientTransform="translate(85.3397 62.8688) rotate(-73.6432) scale(23.2668 28.3419)">
<stop offset="0.091" stop-color="#004AFF" stop-opacity="0.1"/>
<stop offset="0.56" stop-color="#014DB9"/>
<stop offset="0.749" stop-color="#014DB9" stop-opacity="0.99"/>
<stop offset="1" stop-color="#014DB9" stop-opacity="0"/>
</radialGradient>
<radialGradient id="paint3_radial_4047_1843" cx="0" cy="0" r="1" gradientUnits="userSpaceOnUse" gradientTransform="translate(123.876 25) rotate(134.068) scale(56.3956 43.4375)">
<stop offset="0.249" stop-color="#23C0FE"/>
<stop offset="0.717" stop-color="#23C0FE"/>
<stop offset="0.995" stop-color="#1C91FF"/>
</radialGradient>
<radialGradient id="paint4_radial_4047_1843" cx="0" cy="0" r="1" gradientUnits="userSpaceOnUse" gradientTransform="translate(91.9275 28.171) rotate(45.9092) scale(40.3456 9.59791)">
<stop offset="0.165" stop-color="#096DD6" stop-opacity="0"/>
<stop offset="0.484" stop-color="#096DD6"/>
<stop offset="0.901" stop-color="#0876DE" stop-opacity="0.814"/>
<stop offset="1" stop-color="#029AFF" stop-opacity="0"/>
</radialGradient>
<radialGradient id="paint5_radial_4047_1843" cx="0" cy="0" r="1" gradientUnits="userSpaceOnUse" gradientTransform="translate(118.509 48.9622) rotate(91.61) scale(6.47991 5.83556)">
<stop stop-color="#0068B3"/>
<stop offset="0.93" stop-color="#006CB8" stop-opacity="0"/>
</radialGradient>
<linearGradient id="paint6_linear_4047_1843" x1="91.4034" y1="34.212" x2="98.1381" y2="62.8295" gradientUnits="userSpaceOnUse">
<stop stop-color="#92EEFE"/>
<stop offset="0.565" stop-color="#35DDFF"/>
<stop offset="1" stop-color="#08B1F9"/>
</linearGradient>
<radialGradient id="paint7_radial_4047_1843" cx="0" cy="0" r="1" gradientUnits="userSpaceOnUse" gradientTransform="translate(86.7095 24.9999) rotate(69.461) scale(9.96638 8.04987)">
<stop stop-color="#CCF9FF" stop-opacity="0.93"/>
<stop offset="1" stop-color="#35DDFF"/>
</radialGradient>
<clipPath id="clip0_4047_1843">
<rect width="40" height="40" fill="white" transform="translate(80 25)"/>
</clipPath>
</defs>
</svg>
