<svg width="144" height="110" viewBox="0 0 144 110" fill="none" xmlns="http://www.w3.org/2000/svg">
<path d="M140.988 33.4609L140.988 57.5584L114 57.5584" stroke="#3F4350" stroke-opacity="0.32" stroke-linecap="round"/>
<ellipse cx="2.23125" cy="2.23125" rx="2.23125" ry="2.23125" transform="matrix(-1 0 0 1 143.223 29)" fill="#3F4350" fill-opacity="0.56"/>
<path d="M2.5 74.0583L2.5 57.5583H46.75H84.7227" stroke="#3F4350" stroke-opacity="0.32" stroke-linecap="round"/>
<circle cx="2.5" cy="2.5" r="2.5" transform="matrix(1 0 0 -1 0 78.5583)" fill="#3F4350" fill-opacity="0.48"/>
<path d="M5 93.0583L10.5 87.5583V66.5583H48.5" stroke="#3F4350" stroke-opacity="0.32" stroke-linecap="round"/>
<circle cx="3.5" cy="95.0583" r="2.5" fill="#3F4350" fill-opacity="0.48"/>
<rect x="20" width="110" height="110" rx="55" fill="#3F4350" fill-opacity="0.08"/>
<path d="M23.8086 24.3721C23.8086 22.0141 25.8922 20.1025 28.4624 20.1025H70.3471C72.9173 20.1025 75.0009 22.0141 75.0009 24.3721V97.6667C75.0009 97.6667 71.1227 92.6855 68.0202 92.6855C64.9176 92.6855 28.4624 92.6855 28.4624 92.6855C25.8922 92.6855 23.8086 90.7739 23.8086 88.4159V24.3721Z" fill="#32539A"/>
<path d="M23.8086 21.2696C23.8086 18.9116 25.8922 17 28.4624 17H70.3471C72.9173 17 75.0009 18.9116 75.0009 21.2696V94.5641C75.0009 94.5641 71.1227 89.583 68.0202 89.583C64.9176 89.583 28.4624 89.583 28.4624 89.583C25.8922 89.583 23.8086 87.6714 23.8086 85.3134V21.2696Z" fill="white" stroke="#3F4350" stroke-miterlimit="16"/>
<path d="M35.4386 71.2949H64.913" stroke="#3F4350" stroke-linecap="round"/>
<path d="M33.1124 76.0343H54.0547" stroke="#3F4350" stroke-linecap="round"/>
<path d="M56.2804 76.0343H66.3641" stroke="#3F4350" stroke-linecap="round"/>
<path d="M126.193 24.3721C126.193 22.0141 124.11 20.1025 121.539 20.1025H79.6548C77.0845 20.1025 75.0009 22.0141 75.0009 24.3721V97.6667C75.0009 97.6667 78.8791 92.6855 81.9817 92.6855C85.0842 92.6855 121.539 92.6855 121.539 92.6855C124.11 92.6855 126.193 90.7739 126.193 88.4159V24.3721Z" fill="#32539A"/>
<path d="M126.193 21.2696C126.193 18.9116 124.11 17 121.539 17H79.6548C77.0845 17 75.0009 18.9116 75.0009 21.2696V94.5641C75.0009 94.5641 78.8791 89.583 81.9817 89.583C85.0842 89.583 121.539 89.583 121.539 89.583C124.11 89.583 126.193 87.6714 126.193 85.3134V21.2696Z" fill="white"/>
<path d="M126.193 21.2696C126.193 18.9116 124.11 17 121.539 17H79.6548C77.0845 17 75.0009 18.9116 75.0009 21.2696V94.5641C75.0009 94.5641 78.8791 89.583 81.9817 89.583C85.0842 89.583 121.539 89.583 121.539 89.583C124.11 89.583 126.193 87.6714 126.193 85.3134V21.2696Z" fill="#3F4350" fill-opacity="0.08" stroke="#3F4350" stroke-miterlimit="16"/>
<path d="M86.6342 35.6155H105.293" stroke="#3F4350" stroke-linecap="round"/>
<path d="M86.6342 56.5577H105.293" stroke="#3F4350" stroke-linecap="round"/>
<path d="M86.6342 49.5769H99.0444" stroke="#3F4350" stroke-linecap="round"/>
<path d="M102.15 49.5769H114.56" stroke="#3F4350" stroke-linecap="round"/>
<path d="M86.6342 70.5194H105.293" stroke="#3F4350" stroke-linecap="round"/>
<path d="M86.6342 42.5963H110.204" stroke="#3F4350" stroke-linecap="round"/>
<path d="M86.6342 63.5386H110.204" stroke="#3F4350" stroke-linecap="round"/>
<path d="M108.239 35.6155H115.114" stroke="#3F4350" stroke-linecap="round"/>
<path d="M108.239 70.5194H115.114" stroke="#3F4350" stroke-linecap="round"/>
<circle cx="49.4511" cy="46.5194" r="17.0641" fill="#3F4350" fill-opacity="0.08"/>
<path d="M56.0988 45.638L46.7283 40.3671C46.0617 39.9921 45.238 40.4738 45.238 41.2387V51.7805C45.238 52.5453 46.0617 53.027 46.7283 52.6521L56.0988 47.3812C56.7785 46.9989 56.7785 46.0203 56.0988 45.638Z" fill="#3F4350"/>
</svg>
