<svg width="128" height="101" viewBox="0 0 128 101" fill="none" xmlns="http://www.w3.org/2000/svg">
<g clip-path="url(#clip0_3901_6947)">
<path opacity="0.4" d="M110.044 91.1199L120 101V50C120 48.8954 119.105 48 118 48H70C68.8954 48 68 48.8954 68 50V88.5395C68 89.644 68.8954 90.5395 70 90.5395H108.635C109.163 90.5395 109.67 90.7481 110.044 91.1199Z" fill="white"/>
<path d="M110.044 91.1199L120 101V50C120 48.8954 119.105 48 118 48H70C68.8954 48 68 48.8954 68 50V88.5395C68 89.644 68.8954 90.5395 70 90.5395H108.635C109.163 90.5395 109.67 90.7481 110.044 91.1199Z" fill="#1C58D9" fill-opacity="0.12"/>
<path d="M5.5 18L5.5 33L94 33" stroke="#3F4350" stroke-opacity="0.32" stroke-linecap="round"/>
<path d="M3.00001 94L13.5 83.5L13.5 44.5L34.5 44.5" stroke="#3F4350" stroke-opacity="0.32" stroke-linecap="round"/>
<path d="M21.5 70.5L21.5 56.5L95.498 56.5" stroke="#3F4350" stroke-opacity="0.32" stroke-linecap="round"/>
<circle cx="2.5" cy="2.5" r="2.5" transform="matrix(1 8.74228e-08 8.74228e-08 -1 3 18)" fill="#3F4350" fill-opacity="0.48"/>
<circle cx="2.5" cy="2.5" r="2.5" transform="matrix(1 8.74228e-08 8.74228e-08 -1 19 74)" fill="#3F4350" fill-opacity="0.48"/>
<path d="M47.605 78.5638L34 92V23C34 21.8954 34.8954 21 36 21H102C103.105 21 104 21.8954 104 23V75.9868C104 77.0914 103.105 77.9868 102 77.9868H49.0103C48.4842 77.9868 47.9793 78.1941 47.605 78.5638Z" fill="#28427B"/>
<path d="M42.605 73.5638L29 87V18C29 16.8954 29.8954 16 31 16H97C98.1046 16 99 16.8954 99 18V70.9868C99 72.0914 98.1046 72.9868 97 72.9868H44.0103C43.4842 72.9868 42.9793 73.1941 42.605 73.5638Z" fill="white"/>
<path d="M31 16.5H97C97.8284 16.5 98.5 17.1716 98.5 18V70.9873C98.4998 71.8155 97.8283 72.4873 97 72.4873H44.0107C43.3532 72.4873 42.7218 72.746 42.2539 73.208L29.5 85.8027V18C29.5 17.1716 30.1716 16.5 31 16.5Z" stroke="#3F4350" stroke-opacity="0.8"/>
<circle cx="47" cy="35" r="9" fill="#3F4350" fill-opacity="0.32"/>
<path d="M62 31H78" stroke="#3F4350" stroke-opacity="0.48" stroke-linecap="round"/>
<path d="M39 55H72" stroke="#3F4350" stroke-opacity="0.48" stroke-linecap="round"/>
<path d="M39 62H61" stroke="#3F4350" stroke-opacity="0.48" stroke-linecap="round"/>
<path d="M62 37H87" stroke="#3F4350" stroke-opacity="0.48" stroke-linecap="round"/>
<path d="M39 49H56" stroke="#3F4350" stroke-opacity="0.48" stroke-linecap="round"/>
<path d="M60 49H78" stroke="#3F4350" stroke-opacity="0.48" stroke-linecap="round"/>
<circle cx="17.8576" cy="17.8576" r="17.3576" transform="matrix(-1 0 0 1 123.713 0)" fill="white" stroke="#3F4350" stroke-linecap="round" stroke-linejoin="round"/>
<path d="M92.998 19C92.998 25.6274 98.3706 31 104.998 31" stroke="#3F4350" stroke-opacity="0.48" stroke-width="1.42861" stroke-linecap="round" stroke-linejoin="round"/>
<line x1="0.5" y1="-0.5" x2="15.3865" y2="-0.5" transform="matrix(0.707107 0.707107 0.707107 -0.707107 116.766 30.6265)" stroke="#3F4350" stroke-linecap="round" stroke-linejoin="round"/>
<path d="M127 44.5V62H89.5" stroke="#3F4350" stroke-linecap="round" stroke-linejoin="round"/>
<path d="M86 62H76" stroke="#3F4350" stroke-linecap="round"/>
<path d="M73 62H67" stroke="#3F4350" stroke-linecap="round"/>
<circle cx="2.5" cy="94.5" r="2.5" fill="#3F4350" fill-opacity="0.48"/>
</g>
<defs>
<clipPath id="clip0_3901_6947">
<rect width="128" height="101" fill="white"/>
</clipPath>
</defs>
</svg>
