<svg width="216" height="127" viewBox="0 0 216 127" fill="none" xmlns="http://www.w3.org/2000/svg">
<rect x="2.6084" y="30" width="195" height="67" rx="3" fill="#3F4350" fill-opacity="0.12"/>
<path d="M167.94 75.5L167.94 59.8333L93.1084 59.8333L93.1084 53" stroke="#3F4350" stroke-opacity="0.32" stroke-linecap="round"/>
<path d="M166.276 83.9999L162.61 80.3333L162.61 67.4999L148.61 67.4999" stroke="#3F4350" stroke-opacity="0.32" stroke-linecap="round"/>
<circle cx="167.941" cy="76.6666" r="1.66667" transform="rotate(-180 167.941 76.6666)" fill="#3F4350" fill-opacity="0.48"/>
<circle cx="1.66667" cy="1.66667" r="1.66667" transform="matrix(-1 -8.74228e-08 -8.74228e-08 1 168.939 83)" fill="#3F4350" fill-opacity="0.48"/>
<circle cx="1.66667" cy="1.66667" r="1.66667" transform="matrix(-1 -8.74228e-08 -8.74228e-08 1 94.9404 50)" fill="#3F4350" fill-opacity="0.48"/>
<rect x="110.108" y="22.3334" width="43" height="79" rx="7.5" fill="white" stroke="#3F4350" stroke-width="3"/>
<path d="M111.608 29.3334C111.608 26.2958 114.071 23.8334 117.108 23.8334H146.108C149.146 23.8334 151.608 26.2958 151.608 29.3334V30.8334H111.608V29.3334Z" fill="#1E325C"/>
<rect opacity="0.32" x="123.608" y="26.8334" width="16" height="1" rx="0.5" fill="white"/>
<path d="M104.608 72L104.608 84L113.608 84" stroke="#3F4350" stroke-opacity="0.8" stroke-linecap="round" stroke-linejoin="round"/>
<path d="M104.608 70L104.608 66" stroke="#3F4350" stroke-opacity="0.8" stroke-linecap="round" stroke-linejoin="round"/>
<path d="M104.608 64L104.608 63" stroke="#3F4350" stroke-opacity="0.8" stroke-linecap="round" stroke-linejoin="round"/>
<ellipse cx="0.512534" cy="0.512534" rx="0.512534" ry="0.512534" transform="matrix(1 8.74228e-08 8.74228e-08 -1 110.334 61.5956)" fill="#3F4350" fill-opacity="0.48"/>
<ellipse cx="0.512534" cy="0.512534" rx="0.512534" ry="0.512534" transform="matrix(1 8.74228e-08 8.74228e-08 -1 152.533 67.9169)" fill="#3F4350" fill-opacity="0.48"/>
<path d="M132.312 48.8281C136.94 53.1077 141.345 54.6581 145.656 54.6582H145.675L145.691 54.6621L145.734 54.6709L145.882 54.7021L145.87 54.8516C145.065 65.2192 143.037 74.5574 133.992 79.5859L132.279 80.5381L132.196 80.584L132.113 80.5381L130.345 79.5488C121.377 74.5371 119.385 65.2841 118.536 54.999L118.522 54.8408L118.68 54.8164L119.337 54.7119L119.344 54.7109H119.352C122.344 54.498 124.554 54.1362 126.497 53.2793C128.438 52.4236 130.128 51.0671 132.068 48.8408L132.184 48.708L132.312 48.8281Z" fill="white" stroke="#3F4350" stroke-width="0.341689"/>
<path d="M119.048 66.3793C119.5 67.9022 120.043 69.365 120.699 70.7555M121.182 71.728C122.309 73.8786 123.733 75.84 125.545 77.563M126.074 78.0493C126.449 78.3832 126.841 78.7075 127.248 79.0218" stroke="#3F4350" stroke-width="0.341689" stroke-linecap="round" stroke-linejoin="round"/>
<path d="M132.198 77.655L130.698 76.8383C123.163 72.7368 121.476 65.1648 120.756 56.6696L121.313 56.5836C126.4 56.2312 128.89 55.3839 132.198 51.6866C136.146 55.2433 139.916 56.541 143.613 56.541L143.649 56.5484C142.966 65.1111 141.25 72.7535 133.65 76.8688L132.198 77.655Z" fill="#3F4350" fill-opacity="0.12"/>
<path d="M123.682 61.4633H138.758" stroke="#3F4350" stroke-opacity="0.12" stroke-width="0.341689" stroke-linecap="round"/>
<path d="M125.927 63.3878H141.004" stroke="#3F4350" stroke-opacity="0.12" stroke-width="0.341689" stroke-linecap="round"/>
<path d="M124.324 65.6332H139.4" stroke="#3F4350" stroke-opacity="0.12" stroke-width="0.341689" stroke-linecap="round"/>
<path d="M127.211 69.4825H134.268" stroke="#3F4350" stroke-opacity="0.12" stroke-width="0.341689" stroke-linecap="round"/>
<path d="M122.399 59.5811H127.21" stroke="#3F4350" stroke-opacity="0.12" stroke-width="0.341689" stroke-linecap="round"/>
<path d="M128.173 59.5811H135.23" stroke="#3F4350" stroke-opacity="0.12" stroke-width="0.341689" stroke-linecap="round"/>
<path d="M136.192 59.5811H142.287" stroke="#3F4350" stroke-opacity="0.12" stroke-width="0.341689" stroke-linecap="round"/>
<path d="M131.701 71.4072H137.796" stroke="#3F4350" stroke-opacity="0.12" stroke-width="0.341689" stroke-linecap="round"/>
<path d="M127.211 71.4072H130.739" stroke="#3F4350" stroke-opacity="0.12" stroke-width="0.341689" stroke-linecap="round"/>
<path d="M124.965 67.4651H132.022" stroke="#3F4350" stroke-opacity="0.12" stroke-width="0.341689" stroke-linecap="round"/>
<path d="M132.984 67.465H139.079" stroke="#3F4350" stroke-opacity="0.12" stroke-width="0.341689" stroke-linecap="round"/>
<path d="M123.682 57.7744H131.701" stroke="#3F4350" stroke-opacity="0.12" stroke-width="0.341689" stroke-linecap="round"/>
<path d="M132.984 57.7744H141.003" stroke="#3F4350" stroke-opacity="0.12" stroke-width="0.341689" stroke-linecap="round"/>
<path d="M134.424 49.2949C134.424 49.2949 137.558 52.5852 143.991 53.7368" stroke="#3F4350" stroke-width="0.341689" stroke-linecap="round" stroke-linejoin="round"/>
<path d="M132.373 69.7962C135.015 69.7962 137.157 67.6545 137.157 65.0125C137.157 62.3706 135.015 60.2289 132.373 60.2289C129.732 60.2289 127.59 62.3706 127.59 65.0125C127.59 67.6545 129.732 69.7962 132.373 69.7962Z" fill="#3DB887"/>
<path d="M129.982 64.9271L131.744 66.721L134.765 63.6458" stroke="white" stroke-width="0.40661" stroke-linecap="round" stroke-linejoin="round"/>
<path d="M9.1084 26L9.1084 53L35.6084 53" stroke="#3F4350" stroke-opacity="0.32" stroke-linecap="round"/>
<circle cx="9.1084" cy="23.5" r="2.5" fill="#3F4350" fill-opacity="0.48"/>
<circle cx="61.1084" cy="27.5" r="1.5" fill="#3F4350" fill-opacity="0.48"/>
<circle cx="69.1084" cy="27.5" r="1.5" fill="#3F4350" fill-opacity="0.48"/>
<circle cx="77.1084" cy="27.5" r="1.5" fill="#3F4350" fill-opacity="0.48"/>
<rect x="26.5084" y="8.5001" width="60.2" height="110.6" rx="10.5" fill="white" stroke="#3F4350" stroke-width="4.2"/>
<path d="M26.9817 58.0777L26.9817 62.212L77.8548 62.212L77.8548 66.6219L85.3672 66.6219" stroke="#3F4350" stroke-opacity="0.24" stroke-width="0.474679" stroke-linecap="round"/>
<path d="M72.551 78.9636L72.551 71.8434L65.4308 71.8434" stroke="#3F4350" stroke-opacity="0.24" stroke-width="0.474679" stroke-linecap="round"/>
<ellipse cx="0.712018" cy="0.712018" rx="0.712018" ry="0.712018" transform="matrix(1 8.74228e-08 8.74228e-08 -1 26.0325 58.5524)" fill="#3F4350" fill-opacity="0.48"/>
<ellipse cx="72.3136" cy="79.6756" rx="0.712018" ry="0.712018" transform="rotate(180 72.3136 79.6756)" fill="#3F4350" fill-opacity="0.48"/>
<ellipse cx="0.712018" cy="0.712018" rx="0.712018" ry="0.712018" transform="matrix(1 8.74228e-08 8.74228e-08 -1 84.8926 67.0966)" fill="#3F4350" fill-opacity="0.48"/>
<path d="M56.8018 40.8154C63.2304 46.7609 69.3509 48.915 75.3398 48.915H75.3643L75.3887 48.9209L75.4473 48.9326L75.6514 48.9756L75.6357 49.1836C74.5342 63.3612 71.7881 76.1533 59.7178 83.2129L59.1357 83.5449L56.7559 84.8672L56.6406 84.9316L56.5254 84.8672L54.0684 83.4932C41.6107 76.5309 38.843 63.6767 37.6631 49.3887L37.6445 49.1689L37.8623 49.1348L38.7754 48.9902L38.7852 48.9883L38.7959 48.9873C42.9538 48.6915 46.0228 48.1894 48.7227 46.999C51.4186 45.8102 53.7665 43.9258 56.4619 40.833L56.6221 40.6494L56.8018 40.8154Z" fill="white" stroke="#3F4350" stroke-width="0.474679"/>
<path d="M38.3741 65.1979C39.0029 67.3135 39.7569 69.3457 40.6677 71.2774M41.3394 72.6284C42.9044 75.6161 44.8826 78.3408 47.3997 80.7345M48.1344 81.41C48.6562 81.8739 49.1999 82.3244 49.7664 82.761" stroke="#3F4350" stroke-width="0.474679" stroke-linecap="round" stroke-linejoin="round"/>
<path d="M56.6422 80.8623L54.5584 79.7276C44.0917 74.0298 41.7481 63.5107 40.7476 51.7091L41.5219 51.5896C48.5876 51.1 52.0468 49.9229 56.6422 44.7867C62.127 49.7276 67.3648 51.5305 72.5006 51.5305L72.551 51.5407C71.6022 63.4361 69.2172 74.0529 58.66 79.77L56.6422 80.8623Z" fill="#3F4350" fill-opacity="0.12"/>
<path d="M44.8123 58.3684H65.7562" stroke="#3F4350" stroke-opacity="0.12" stroke-width="0.474679" stroke-linecap="round"/>
<path d="M47.9316 61.0421H68.8756" stroke="#3F4350" stroke-opacity="0.12" stroke-width="0.474679" stroke-linecap="round"/>
<path d="M45.7034 64.1614H66.6474" stroke="#3F4350" stroke-opacity="0.12" stroke-width="0.474679" stroke-linecap="round"/>
<path d="M49.7141 69.5089H59.5177" stroke="#3F4350" stroke-opacity="0.12" stroke-width="0.474679" stroke-linecap="round"/>
<path d="M43.0295 55.7537H49.7138" stroke="#3F4350" stroke-opacity="0.12" stroke-width="0.474679" stroke-linecap="round"/>
<path d="M51.0505 55.7537H60.8541" stroke="#3F4350" stroke-opacity="0.12" stroke-width="0.474679" stroke-linecap="round"/>
<path d="M62.1912 55.7537H70.6579" stroke="#3F4350" stroke-opacity="0.12" stroke-width="0.474679" stroke-linecap="round"/>
<path d="M55.9526 72.1827H64.4194" stroke="#3F4350" stroke-opacity="0.12" stroke-width="0.474679" stroke-linecap="round"/>
<path d="M49.7141 72.1827H54.6159" stroke="#3F4350" stroke-opacity="0.12" stroke-width="0.474679" stroke-linecap="round"/>
<path d="M46.5947 66.7063H56.3983" stroke="#3F4350" stroke-opacity="0.12" stroke-width="0.474679" stroke-linecap="round"/>
<path d="M57.7351 66.7062H66.2018" stroke="#3F4350" stroke-opacity="0.12" stroke-width="0.474679" stroke-linecap="round"/>
<path d="M44.8123 53.2438H55.9527" stroke="#3F4350" stroke-opacity="0.12" stroke-width="0.474679" stroke-linecap="round"/>
<path d="M57.7351 53.2438H68.8755" stroke="#3F4350" stroke-opacity="0.12" stroke-width="0.474679" stroke-linecap="round"/>
<path fill-rule="evenodd" clip-rule="evenodd" d="M51.6656 61.11H61.6894C62.1533 61.11 62.5278 61.4831 62.5278 61.9455V65.6339C62.5278 68.783 61.1152 71.3364 57.9587 71.3364H55.3963C52.2398 71.3364 50.8271 68.783 50.8271 65.6339V61.9455C50.8271 61.4847 51.2033 61.11 51.6656 61.11ZM56.4937 63.2634H56.0487V64.3088V66.148L56.6389 66.7381L56.0487 67.3283V68.1075H57.6634V64.896L57.2122 64.4448L57.6634 63.9936V63.2634H56.4937Z" fill="#1C58D9"/>
<path fill-rule="evenodd" clip-rule="evenodd" d="M59.4375 59.5527V61.1286C59.4375 61.1382 59.4379 61.1477 59.4386 61.157H60.8501C60.8509 61.1477 60.8512 61.1382 60.8512 61.1286V59.5527C60.8512 57.1925 59.3056 55.2715 57.0325 55.2715H56.07C53.7968 55.2715 52.2512 57.1925 52.2512 59.5527V61.1286C52.2512 61.1382 52.2516 61.1477 52.2523 61.157H53.6611C53.6618 61.1477 53.6622 61.1382 53.6622 61.1286V59.5527C53.6622 57.9468 54.6671 56.7237 55.859 56.7237H57.2407C58.512 56.7237 59.4375 57.9468 59.4375 59.5527Z" fill="#1C58D9"/>
<path d="M59.7346 41.4639C59.7346 41.4639 64.0886 46.0349 73.0256 47.6347" stroke="#3F4350" stroke-width="0.474679" stroke-linecap="round" stroke-linejoin="round"/>
<path d="M28.6084 16.9001C28.6084 13.4207 31.429 10.6001 34.9084 10.6001H78.3084C81.7878 10.6001 84.6084 13.4207 84.6084 16.9001V20.4001H28.6084V16.9001Z" fill="#1C58D9" fill-opacity="0.16"/>
<rect x="45.4084" y="14.8" width="22.4" height="1.4" rx="0.7" fill="#3F4350"/>
<path d="M120.14 109L110.858 109" stroke="#3F4350" stroke-linecap="round"/>
<path d="M107.765 109L103.64 109" stroke="#3F4350" stroke-linecap="round"/>
<path d="M100.546 109L69.6084 109" stroke="#3F4350" stroke-linecap="round"/>
<path d="M123.233 109L135.608 109L135.608 96" stroke="#3F4350" stroke-linecap="round" stroke-linejoin="round"/>
<rect opacity="0.16" x="130.608" y="10" width="83" height="50" rx="4" fill="#090A0B"/>
<rect x="133.108" y="6.5" width="82" height="49" rx="3.5" fill="white" stroke="#3F4350"/>
<path d="M174.608 16H189.089" stroke="#3F4350" stroke-opacity="0.56" stroke-linecap="round"/>
<path d="M174.608 22H197.608" stroke="#3F4350" stroke-opacity="0.56" stroke-linecap="round"/>
<path d="M174.608 28H204.608" stroke="#3F4350" stroke-opacity="0.56" stroke-linecap="round"/>
<path d="M174.608 34H204.608" stroke="#3F4350" stroke-opacity="0.56" stroke-linecap="round"/>
<path d="M191.499 16H201.134" stroke="#3F4350" stroke-opacity="0.56" stroke-linecap="round"/>
<path d="M203.54 16H206.554" stroke="#3F4350" stroke-opacity="0.56" stroke-linecap="round"/>
<path fill-rule="evenodd" clip-rule="evenodd" d="M150.117 12.918H153.109L153.487 15.3795C154.403 15.5876 155.26 15.9489 156.03 16.4351L158.043 14.9589L160.158 17.0739L158.665 19.1106C159.13 19.8733 159.473 20.7179 159.669 21.6177L162.2 22.007V24.9982L159.604 25.3976C159.387 26.2497 159.037 27.0485 158.576 27.7704L160.158 29.9276L158.043 32.0426L155.835 30.4233C155.129 30.8414 154.355 31.1567 153.534 31.3485L153.113 34.0859H150.122L149.697 31.3257C148.89 31.127 148.131 30.8087 147.438 30.3908L145.185 32.0425L143.07 29.9274L144.705 27.6981C144.27 26.9993 143.936 26.2302 143.726 25.4116L141.03 24.9969V22.0057L143.661 21.601C143.851 20.7356 144.179 19.9214 144.619 19.1824L143.072 17.0737L145.187 14.9587L147.245 16.4677C148 15.9839 148.839 15.6202 149.735 15.404L150.117 12.918ZM155.649 23.3689C155.649 25.5704 153.864 27.355 151.663 27.355C149.461 27.355 147.677 25.5704 147.677 23.3689C147.677 21.1675 149.461 19.3828 151.663 19.3828C153.864 19.3828 155.649 21.1675 155.649 23.3689Z" fill="#3F4350" fill-opacity="0.56"/>
<path fill-rule="evenodd" clip-rule="evenodd" d="M161.014 36.9492H162.646L162.853 38.2907C163.353 38.4044 163.822 38.602 164.243 38.8679L165.339 38.0643L166.493 39.2188L165.68 40.3279C165.933 40.744 166.121 41.2048 166.228 41.6957L167.608 41.9081V43.5407L166.192 43.7585C166.074 44.2245 165.882 44.6613 165.63 45.0558L166.493 46.2329L165.339 47.3874L164.133 46.5032C163.749 46.7307 163.328 46.9023 162.881 47.0069L162.65 48.5039H161.018L160.785 46.9948C160.346 46.8867 159.932 46.7135 159.554 46.4861L158.323 47.3888L157.169 46.2344L158.062 45.0171C157.823 44.6355 157.641 44.2155 157.526 43.7683L156.054 43.5418V41.9092L157.49 41.6882C157.594 41.2163 157.772 40.7723 158.011 40.3692L157.169 39.2202L158.323 38.0657L159.443 38.887C159.856 38.6218 160.315 38.4226 160.805 38.3043L161.014 36.9492ZM164.034 42.6523C164.034 43.8539 163.06 44.828 161.858 44.828C160.657 44.828 159.683 43.8539 159.683 42.6523C159.683 41.4507 160.657 40.4766 161.858 40.4766C163.06 40.4766 164.034 41.4507 164.034 42.6523Z" fill="#3F4350" fill-opacity="0.56"/>
<path d="M25.3089 74.0782C26.0049 72.6981 27.9754 72.6981 28.6714 74.0782L46.269 108.97C46.9006 110.222 45.9903 111.701 44.5877 111.701H9.39264C7.98996 111.701 7.07969 110.222 7.71134 108.97L25.3089 74.0782Z" fill="#FFBC1F"/>
<path d="M24.3333 72.9639C24.9133 71.814 26.5559 71.8141 27.136 72.9639L44.7336 107.856C45.2599 108.899 44.5011 110.131 43.3323 110.131H8.13696C6.96824 110.131 6.21024 108.899 6.73657 107.856L24.3333 72.9639Z" stroke="#3F4350" stroke-width="0.627677"/>
<path d="M31.0964 74.0337L33.1972 78.101M47.0269 104.878L43.0005 97.082L41.9501 95.0483L40.5497 92.3368L38.624 88.6083M37.2235 85.8968L34.5976 80.8126" stroke="#3F4350" stroke-opacity="0.56" stroke-width="0.677891" stroke-linecap="round"/>
<path d="M23.8621 87.242L25.2936 96.4355C25.3074 96.618 25.393 96.7886 25.5331 96.9132C25.6732 97.0378 25.8575 97.1071 26.0488 97.1071C26.2402 97.1071 26.4244 97.0378 26.5645 96.9132C26.7046 96.7886 26.7902 96.618 26.804 96.4355L28.2355 87.242C28.4958 83.6574 23.5979 83.6574 23.8621 87.242Z" fill="#3F4350"/>
<path d="M25.7393 100.873C26.2357 100.874 26.7207 101.022 27.133 101.298C27.5453 101.575 27.8664 101.967 28.0557 102.426C28.2451 102.885 28.2941 103.39 28.1967 103.876C28.0993 104.363 27.8599 104.81 27.5086 105.161C27.1573 105.511 26.7099 105.75 26.223 105.847C25.7361 105.943 25.2315 105.893 24.773 105.703C24.3145 105.513 23.9226 105.191 23.6469 104.778C23.3712 104.366 23.2241 103.88 23.2241 103.384C23.2241 103.054 23.2892 102.727 23.4156 102.422C23.5421 102.117 23.7274 101.84 23.9611 101.607C24.1947 101.374 24.472 101.189 24.7772 101.063C25.0823 100.937 25.4092 100.873 25.7393 100.873Z" fill="#3F4350"/>
<path d="M30.4185 114.368H43.9763" stroke="#3F4350" stroke-opacity="0.56" stroke-width="0.677891" stroke-linecap="round"/>
<path d="M6.27734 102.756L16.3202 83.2982" stroke="#3F4350" stroke-opacity="0.56" stroke-width="0.677891" stroke-linecap="round"/>
</svg>
