<svg width="137" height="119" viewBox="0 0 137 119" fill="none" xmlns="http://www.w3.org/2000/svg">
<g clip-path="url(#clip0_3901_5998)">
<ellipse cx="68.4258" cy="59.5" rx="59.5" ry="59.5" fill="#3F4350" fill-opacity="0.08"/>
<path d="M1.48755 49.6825L1.48755 58.6075L116.323 58.6075L116.323 68.1275L133.28 68.1275" stroke="#3F4350" stroke-opacity="0.24" stroke-linecap="round"/>
<path d="M24.0974 81.515L24.0974 65.45L39.8649 65.45" stroke="#3F4350" stroke-opacity="0.24" stroke-linecap="round"/>
<ellipse cx="1.4875" cy="1.4875" rx="1.4875" ry="1.4875" transform="matrix(1 8.74228e-08 8.74228e-08 -1 0 49.98)" fill="#3F4350" fill-opacity="0.48"/>
<ellipse cx="1.4875" cy="1.4875" rx="1.4875" ry="1.4875" transform="matrix(1 8.74228e-08 8.74228e-08 -1 22.6101 84.49)" fill="#3F4350" fill-opacity="0.48"/>
<ellipse cx="1.4875" cy="1.4875" rx="1.4875" ry="1.4875" transform="matrix(1 8.74228e-08 8.74228e-08 -1 132.09 69.615)" fill="#3F4350" fill-opacity="0.48"/>
<path d="M99 77L111 77L111 90" stroke="#3F4350" stroke-linecap="round" stroke-linejoin="round"/>
<path d="M96 77L93 77" stroke="#3F4350" stroke-linecap="round" stroke-linejoin="round"/>
<path d="M91 77L89 77" stroke="#3F4350" stroke-linecap="round" stroke-linejoin="round"/>
<circle cx="68" cy="60" r="38.35" fill="#3F4350" fill-opacity="0.24" stroke="#3F4350" stroke-width="1.3"/>
<circle cx="67.9997" cy="59.9998" r="27.2071" fill="white" stroke="#3F4350" stroke-width="1.3"/>
<path fill-rule="evenodd" clip-rule="evenodd" d="M62.4287 43.2861H65.5H73.5716V51.037L70.7861 53.8224L73.5716 56.6078V76.7147H62.4287V67.9657L65.2148 65.1795L62.4287 62.3934V50.5V43.2861Z" fill="#090A0B"/>
<path d="M68.1807 17.5733C76.1231 17.5231 83.4249 19.5799 90.0759 23.7439C92.8065 25.4534 95.4274 27.5181 97.9379 29.9379C101.041 33.1597 103.556 36.5843 105.482 40.2134M68.1807 101.59C58.9066 101.52 50.5135 98.7487 43.0254 93.2524C41.4563 92.1007 39.927 90.8293 38.4376 89.4381C34.5702 85.2891 31.6194 80.8769 29.5824 76.1983M26.1722 59.5818C26.1792 54.0378 27.1954 48.7881 29.2206 43.8327C31.2671 38.825 34.3442 34.1179 38.4518 29.7113M108.89 49.0031C109.756 52.3785 110.189 55.9044 110.189 59.5818C110.184 64.0291 109.547 68.2587 108.279 72.2698M107.386 44.3497C107.669 45.0714 107.932 45.8005 108.172 46.5371" stroke="#3F4350" stroke-opacity="0.48" stroke-width="1.03408"/>
<path d="M96.0652 94L96.0652 101" stroke="#3F4350" stroke-opacity="0.48" stroke-linecap="round"/>
<path d="M93 95.7235L99.0622 99.2235" stroke="#3F4350" stroke-opacity="0.48" stroke-linecap="round"/>
<path d="M93.0693 99.2236L99.1315 95.7236" stroke="#3F4350" stroke-opacity="0.48" stroke-linecap="round"/>
<path d="M105.932 94L105.932 101" stroke="#3F4350" stroke-opacity="0.48" stroke-linecap="round"/>
<path d="M102.867 95.7235L108.929 99.2235" stroke="#3F4350" stroke-opacity="0.48" stroke-linecap="round"/>
<path d="M102.937 99.2236L108.999 95.7236" stroke="#3F4350" stroke-opacity="0.48" stroke-linecap="round"/>
<path d="M115.8 94L115.8 101" stroke="#3F4350" stroke-opacity="0.48" stroke-linecap="round"/>
<path d="M112.734 95.7235L118.797 99.2235" stroke="#3F4350" stroke-opacity="0.48" stroke-linecap="round"/>
<path d="M112.804 99.2236L118.866 95.7236" stroke="#3F4350" stroke-opacity="0.48" stroke-linecap="round"/>
<path d="M125.667 94L125.667 101" stroke="#3F4350" stroke-opacity="0.48" stroke-linecap="round"/>
<path d="M122.602 95.7235L128.664 99.2235" stroke="#3F4350" stroke-opacity="0.48" stroke-linecap="round"/>
<path d="M122.671 99.2236L128.733 95.7236" stroke="#3F4350" stroke-opacity="0.48" stroke-linecap="round"/>
</g>
<defs>
<clipPath id="clip0_3901_5998">
<rect width="136.255" height="119" fill="white"/>
</clipPath>
</defs>
</svg>
