<svg width="125" height="97" viewBox="0 0 125 97" fill="none" xmlns="http://www.w3.org/2000/svg">
<g clip-path="url(#clip0_3901_6538)">
<rect opacity="0.08" width="50" height="50" rx="2" fill="white"/>
<rect x="30" y="50" width="95" height="28" rx="2" fill="white" fill-opacity="0.08"/>
<circle cx="92.5" cy="35.5" r="2.5" fill="white" fill-opacity="0.32"/>
<circle cx="104" cy="35.5" r="2.5" fill="white" fill-opacity="0.32"/>
<circle cx="115.5" cy="35.5" r="2.5" fill="white" fill-opacity="0.32"/>
<path d="M95.0443 87.1199L105 97V46C105 44.8954 104.105 44 103 44H55C53.8954 44 53 44.8954 53 46V84.5395C53 85.644 53.8954 86.5395 55 86.5395H93.6355C94.1633 86.5395 94.6697 86.7481 95.0443 87.1199Z" fill="#32539A"/>
<path opacity="0.4" d="M67 65H97" stroke="white" stroke-linecap="round"/>
<path opacity="0.4" d="M67 72H86" stroke="white" stroke-linecap="round"/>
<path opacity="0.4" d="M67 59H77" stroke="white" stroke-linecap="round"/>
<path opacity="0.4" d="M80 59H93" stroke="white" stroke-linecap="round"/>
<path d="M16 12.5H82C82.8284 12.5 83.5 13.1716 83.5 14V66.9873C83.4998 67.8155 82.8283 68.4873 82 68.4873H29.0107C28.3532 68.4873 27.7218 68.746 27.2539 69.208L14.5 81.8027V14C14.5 13.1716 15.1716 12.5 16 12.5Z" fill="#1E325C" stroke="white"/>
<path d="M47 27H63" stroke="white" stroke-opacity="0.56" stroke-linecap="round"/>
<path d="M24 51H74" stroke="white" stroke-opacity="0.56" stroke-linecap="round"/>
<path d="M24 58H46" stroke="white" stroke-opacity="0.56" stroke-linecap="round"/>
<path d="M47 33H72" stroke="white" stroke-opacity="0.56" stroke-linecap="round"/>
<path d="M24 45H41" stroke="white" stroke-opacity="0.64" stroke-linecap="round"/>
<path d="M45 45H63" stroke="white" stroke-opacity="0.56" stroke-linecap="round"/>
<path d="M32 40C36.9706 40 41 35.9706 41 31C41 26.0294 36.9706 22 32 22C27.0294 22 23 26.0294 23 31C23 35.9706 27.0294 40 32 40Z" fill="#3DB887"/>
<path d="M28 31.5L31 34.5L37 28.5" stroke="#1E325C" stroke-linecap="round" stroke-linejoin="round"/>
</g>
<defs>
<clipPath id="clip0_3901_6538">
<rect width="125" height="97" fill="white"/>
</clipPath>
</defs>
</svg>
