<svg width="97" height="87" viewBox="0 0 97 87" fill="none" xmlns="http://www.w3.org/2000/svg">
<g clip-path="url(#clip0_3901_7072)">
<path d="M3.00001 35L3.00001 56L15 56" stroke="#3F4350" stroke-opacity="0.32" stroke-linecap="round"/>
<path d="M3 31L3 25" stroke="#3F4350" stroke-opacity="0.32" stroke-linecap="round"/>
<path d="M3 22L3 20" stroke="#3F4350" stroke-opacity="0.32" stroke-linecap="round"/>
<path opacity="0.16" d="M81.8691 78.899L90 87V45C90 43.8954 89.1046 43 88 43H49C47.8954 43 47 43.8954 47 45V76.3158C47 77.4204 47.8954 78.3158 49 78.3158H80.4575C80.9867 78.3158 81.4943 78.5255 81.8691 78.899Z" fill="#1C58D9"/>
<path d="M65.7695 65.5385H73.4618" stroke="white" stroke-linecap="round"/>
<path d="M23.605 67.5638L10 81V12C10 10.8954 10.8954 10 12 10H78C79.1046 10 80 10.8954 80 12V64.9868C80 66.0914 79.1046 66.9868 78 66.9868H25.0103C24.4842 66.9868 23.9793 67.1941 23.605 67.5638Z" fill="white"/>
<path d="M12 10.5H78C78.8284 10.5 79.5 11.1716 79.5 12V64.9873C79.4998 65.8155 78.8283 66.4873 78 66.4873H25.0107C24.3532 66.4873 23.7218 66.746 23.2539 67.208L10.5 79.8027V12C10.5 11.1716 11.1716 10.5 12 10.5Z" stroke="#3F4350" stroke-opacity="0.8"/>
<circle cx="28" cy="29" r="9" fill="#3F4350" fill-opacity="0.32"/>
<path d="M43 25H59" stroke="#3F4350" stroke-opacity="0.48" stroke-linecap="round"/>
<path d="M20 49H53" stroke="#3F4350" stroke-opacity="0.48" stroke-linecap="round"/>
<path d="M20 56H42" stroke="#3F4350" stroke-opacity="0.48" stroke-linecap="round"/>
<path d="M43 31H68" stroke="#3F4350" stroke-opacity="0.48" stroke-linecap="round"/>
<path d="M20 43H37" stroke="#3F4350" stroke-opacity="0.48" stroke-linecap="round"/>
<path d="M41 43H59" stroke="#3F4350" stroke-opacity="0.48" stroke-linecap="round"/>
<circle cx="78" cy="19" r="19" fill="#32539A"/>
<path d="M79.9902 9L87.9902 17" stroke="white" stroke-linecap="round"/>
<path d="M80.4902 27.5L69.4902 16.5C69.4902 16.5 72.4902 15 74.9902 16L80.9902 10L86.9902 16L80.9902 22C81.9902 24.5 80.4902 27.5 80.4902 27.5Z" stroke="white" stroke-linecap="round"/>
<path d="M74.9902 22L69.9902 27" stroke="white" stroke-linecap="round"/>
<path d="M73 49L94 49L94 37" stroke="#3F4350" stroke-opacity="0.8" stroke-linecap="round" stroke-linejoin="round"/>
<path d="M69 49L63 49" stroke="#3F4350" stroke-opacity="0.8" stroke-linecap="round" stroke-linejoin="round"/>
<path d="M60 49L58 49" stroke="#3F4350" stroke-opacity="0.8" stroke-linecap="round" stroke-linejoin="round"/>
</g>
<defs>
<clipPath id="clip0_3901_7072">
<rect width="97" height="87" fill="white"/>
</clipPath>
</defs>
</svg>
