<svg width="130" height="102" viewBox="0 0 130 102" fill="none" xmlns="http://www.w3.org/2000/svg">
<g clip-path="url(#clip0_3901_5495)">
<path d="M2.50001 16L2.5 31L127.5 31L127.5 75L66 75" stroke="#3F4350" stroke-opacity="0.32" stroke-linecap="round"/>
<path d="M2.5 69L2.5 42L29 42" stroke="#3F4350" stroke-opacity="0.32" stroke-linecap="round"/>
<path d="M18.5 70.5L18.5 56.5L106 56.5" stroke="#3F4350" stroke-opacity="0.32" stroke-linecap="round"/>
<circle cx="2.5" cy="2.5" r="2.5" transform="matrix(1 8.74228e-08 8.74228e-08 -1 0 16)" fill="#3F4350" fill-opacity="0.32"/>
<circle cx="2.5" cy="2.5" r="2.5" transform="matrix(1 8.74228e-08 8.74228e-08 -1 0 74)" fill="#3F4350" fill-opacity="0.32"/>
<circle cx="2.5" cy="2.5" r="2.5" transform="matrix(1 8.74228e-08 8.74228e-08 -1 16 74)" fill="#3F4350" fill-opacity="0.32"/>
<circle cx="71" cy="59" r="43" fill="#3F4350" fill-opacity="0.12"/>
<path d="M110.749 91.5258L119 100V56C119 54.8954 118.105 54 117 54H76.0005C74.896 54 74.0005 54.8954 74.0005 56V88.9211C74.0005 90.0256 74.896 90.9211 76.0005 90.9211H109.316C109.855 90.9211 110.372 91.1391 110.749 91.5258Z" fill="#28427B"/>
<circle opacity="0.48" cx="86.831" cy="65.831" r="5.83099" fill="white"/>
<path opacity="0.4" d="M96 64H112" stroke="white" stroke-linecap="round"/>
<path opacity="0.4" d="M82 79H103.38" stroke="white" stroke-linecap="round"/>
<path opacity="0.4" d="M82 83H96.2535" stroke="white" stroke-linecap="round"/>
<path opacity="0.4" d="M96 68H110" stroke="white" stroke-linecap="round"/>
<path opacity="0.4" d="M82 75H93.0141" stroke="white" stroke-linecap="round"/>
<path opacity="0.4" d="M95.6064 75H107.268" stroke="white" stroke-linecap="round"/>
<path d="M28.605 67.5638L15 81V12C15 10.8954 15.8954 10 17 10H83C84.1046 10 85 10.8954 85 12V64.9868C85 66.0914 84.1046 66.9868 83 66.9868H30.0103C29.4842 66.9868 28.9793 67.1941 28.605 67.5638Z" fill="white"/>
<path d="M17 10.5H83C83.8284 10.5 84.5 11.1716 84.5 12V64.9873C84.4998 65.8155 83.8283 66.4873 83 66.4873H30.0107C29.3532 66.4873 28.7218 66.746 28.2539 67.208L15.5 79.8027V12C15.5 11.1716 16.1716 10.5 17 10.5Z" stroke="#3F4350" stroke-opacity="0.8"/>
<circle cx="33" cy="29" r="9" fill="#3F4350" fill-opacity="0.4"/>
<path d="M48 25H64" stroke="#3F4350" stroke-opacity="0.4" stroke-linecap="round"/>
<path d="M25 49H62" stroke="#3F4350" stroke-opacity="0.4" stroke-linecap="round"/>
<path d="M25 55H47" stroke="#3F4350" stroke-opacity="0.4" stroke-linecap="round"/>
<path d="M48 31H73" stroke="#3F4350" stroke-opacity="0.4" stroke-linecap="round"/>
<path d="M25 43H42" stroke="#3F4350" stroke-opacity="0.4" stroke-linecap="round"/>
<path d="M46 43H64" stroke="#3F4350" stroke-opacity="0.4" stroke-linecap="round"/>
<circle cx="78" cy="19" r="19" fill="white"/>
<circle cx="78" cy="19" r="19" fill="#32539A"/>
<path d="M98 49L80 49" stroke="#3F4350" stroke-opacity="0.8" stroke-linecap="round" stroke-linejoin="round"/>
<path d="M76 49L70 49" stroke="#3F4350" stroke-opacity="0.8" stroke-linecap="round" stroke-linejoin="round"/>
<path d="M67 49L65 49" stroke="#3F4350" stroke-opacity="0.8" stroke-linecap="round" stroke-linejoin="round"/>
<circle cx="44" cy="75" r="2" fill="#3F4350" fill-opacity="0.32"/>
<circle cx="52" cy="75" r="2" fill="#3F4350" fill-opacity="0.32"/>
<circle cx="60" cy="75" r="2" fill="#3F4350" fill-opacity="0.32"/>
<rect x="70.5" y="15.5" width="15" height="12" rx="1.5" stroke="white"/>
<path d="M73 16V13C73 10.2386 75.2386 8 78 8C80.7614 8 83 10.2386 83 13V16" stroke="white"/>
</g>
<defs>
<clipPath id="clip0_3901_5495">
<rect width="130" height="102" fill="white"/>
</clipPath>
</defs>
</svg>
