<svg width="114" height="127" viewBox="0 0 114 127" fill="none" xmlns="http://www.w3.org/2000/svg">
<path d="M3 93.1839C3 90.8732 4.87318 89 7.18386 89H36.2094C38.5201 89 40.3932 90.8732 40.3932 93.1839V122.209C40.3932 124.52 38.5201 126.393 36.2094 126.393H7.18386C4.87318 126.393 3 124.52 3 122.209V93.1839Z" fill="#1C58D9" fill-opacity="0.16"/>
<path opacity="0.5" fill-rule="evenodd" clip-rule="evenodd" d="M16.6069 116.08V116.607H12.2969V104.754H16.6069V105.195C16.6445 103.938 17.4073 103.278 18.3655 102.448C19.387 101.563 20.6305 100.486 21.4543 98.2893C23.0705 93.9792 24.6868 97.7506 24.6868 99.3668C24.6868 100.983 23.0705 104.754 23.0705 104.754C23.0705 104.754 28.4581 104.754 30.0744 105.293C31.6906 105.832 31.1519 108.526 30.0744 108.526C31.1519 109.603 30.6131 111.758 29.5356 111.758C30.6131 112.836 29.5356 114.991 28.4581 114.991C29.5356 116.607 26.8418 117.146 22.5318 117.146C16.9764 117.146 16.6287 116.199 16.6069 116.08Z" fill="white"/>
<path d="M23.0705 104.754C23.0705 104.754 28.4581 104.754 30.0744 105.293C31.6906 105.832 31.1519 108.526 30.0744 108.526C31.1519 109.603 30.6131 111.758 29.5356 111.758C30.6131 112.836 29.5356 114.991 28.4581 114.991C29.5356 116.607 26.8418 117.146 22.5318 117.146C16.6055 117.146 16.6055 116.068 16.6055 116.068V105.293C16.6055 102.599 19.838 102.599 21.4543 98.2893C23.0705 93.9793 24.6868 97.7506 24.6868 99.3669C24.6868 100.983 23.0705 104.754 23.0705 104.754ZM23.0705 104.754H21.4543" stroke="#3F4350" stroke-linecap="round"/>
<path d="M12.2969 104.754H16.6069V116.607H12.2969V104.754Z" stroke="#3F4350"/>
<path d="M75 93.6571C75 92.1896 76.1896 91 77.6571 91H96.0903C97.5578 91 98.7474 92.1896 98.7474 93.6571V112.09C98.7474 113.558 97.5578 114.747 96.0903 114.747H77.6571C76.1896 114.747 75 113.558 75 112.09V93.6571Z" fill="#3F4350" fill-opacity="0.08"/>
<circle opacity="0.5" cx="86.5" cy="102.5" r="6.5" fill="white"/>
<circle cx="86.5" cy="102.5" r="6.5" fill="white" stroke="#3F4350" stroke-linecap="round"/>
<path d="M89 105C88.329 105.623 87.4554 106 86.5 106C85.5446 106 84.671 105.623 84 105" stroke="#3F4350" stroke-linecap="round"/>
<circle cx="84" cy="101" r="1" fill="#3F4350"/>
<circle cx="89" cy="101" r="1" fill="#3F4350"/>
<path d="M91.332 75.5L91.332 59.8333L16.5 59.8333L16.5 53" stroke="#3F4350" stroke-opacity="0.32" stroke-linecap="round"/>
<path d="M89.668 83.9999L86.0013 80.3333L86.0013 67.4999L72.0013 67.4999" stroke="#3F4350" stroke-opacity="0.32" stroke-linecap="round"/>
<circle cx="91.332" cy="76.6666" r="1.66667" transform="rotate(-180 91.332 76.6666)" fill="#3F4350" fill-opacity="0.48"/>
<circle cx="1.66667" cy="1.66667" r="1.66667" transform="matrix(-1 -8.74228e-08 -8.74228e-08 1 92.3307 83)" fill="#3F4350" fill-opacity="0.48"/>
<circle cx="1.66667" cy="1.66667" r="1.66667" transform="matrix(-1 -8.74228e-08 -8.74228e-08 1 18.332 50)" fill="#3F4350" fill-opacity="0.48"/>
<path d="M74 19.4755C74 17.0038 76.0038 15 78.4755 15H109.524C111.996 15 114 17.0038 114 19.4755V50.5245C114 52.9962 111.996 55 109.524 55H78.4755C76.0038 55 74 52.9962 74 50.5245V19.4755Z" fill="#1C58D9" fill-opacity="0.08"/>
<path d="M92.9785 22.8036L89.8449 30.1003L81.8047 30.7933L86.5464 34.8697L87.907 36.011L86.0928 43.7969L91.4117 40.5766L92.9785 39.6798L94.5454 40.5766L99.8643 43.7561L98.0501 36.011L99.4107 34.8697L104.152 30.7933L96.1122 30.1003L95.4112 28.4697L92.9785 22.8036Z" fill="#1C58D9" fill-opacity="0.12"/>
<path d="M93.4385 22.6063L95.8711 28.2723H95.8701L96.4521 29.6278L104.195 30.2948L105.38 30.3973L104.479 31.1727L99.7363 35.2489L99.7324 35.2528L98.6064 36.1962L100.352 43.6425L100.62 44.7909L99.6074 44.1854L94.2969 41.0106L92.9785 40.2557L91.6699 41.0038L86.3516 44.2245L85.3369 44.8397L85.6055 43.6835L87.3496 36.1962L86.2246 35.2528L86.2207 35.2489L81.4785 31.1727L80.5771 30.3973L81.7617 30.2948L89.5029 29.6278L92.5195 22.6063L92.9785 21.536L93.4385 22.6063Z" stroke="#3F4350"/>
<rect x="33.5" y="22.3334" width="43" height="79" rx="7.5" fill="white" stroke="#3F4350" stroke-width="3"/>
<path d="M35 29.3334C35 26.2958 37.4624 23.8334 40.5 23.8334H69.5C72.5376 23.8334 75 26.2958 75 29.3334V30.8334H35V29.3334Z" fill="#1E325C"/>
<circle cx="44.831" cy="66.6644" r="5.83099" fill="#3F4350" fill-opacity="0.32"/>
<path d="M54.5508 64.8334H64.917" stroke="#3F4350" stroke-opacity="0.48" stroke-linecap="round"/>
<path d="M40 75.8334H66" stroke="#3F4350" stroke-opacity="0.48" stroke-linecap="round"/>
<path d="M40 83.8334H60" stroke="#3F4350" stroke-opacity="0.48" stroke-linecap="round"/>
<path d="M54.5508 68.8334H70.748" stroke="#3F4350" stroke-opacity="0.48" stroke-linecap="round"/>
<path d="M40 79.8334H56" stroke="#3F4350" stroke-opacity="0.48" stroke-linecap="round"/>
<path d="M59 79.8334L71 79.8334" stroke="#3F4350" stroke-opacity="0.48" stroke-linecap="round"/>
<rect opacity="0.32" x="47" y="26.8334" width="16" height="1" rx="0.5" fill="white"/>
<path d="M28 72L28 84L37 84" stroke="#3F4350" stroke-opacity="0.8" stroke-linecap="round" stroke-linejoin="round"/>
<path d="M28 70L28 66" stroke="#3F4350" stroke-opacity="0.8" stroke-linecap="round" stroke-linejoin="round"/>
<path d="M28 64L28 63" stroke="#3F4350" stroke-opacity="0.8" stroke-linecap="round" stroke-linejoin="round"/>
<path d="M35.6531 36.6599L44.6857 45.6747V1.785C44.6857 0.799172 43.8865 0 42.9007 0H1.91C0.924175 0 0.125004 0.799173 0.125004 1.785V34.8749C0.125004 35.8608 0.924175 36.6599 1.91 36.6599H35.6531Z" fill="#CCC4AE"/>
<path d="M11.2611 11.1401H24.6293" stroke="#3F4350" stroke-linecap="round"/>
<path d="M11.2611 16.7103H35.7695" stroke="#3F4350" stroke-linecap="round"/>
<path d="M11.2611 23.3943H21.2873" stroke="#3F4350" stroke-linecap="round"/>
<path d="M23.5123 23.3943H33.5385" stroke="#3F4350" stroke-linecap="round"/>
</svg>
