<svg width="222" height="135" viewBox="0 0 222 135" fill="none" xmlns="http://www.w3.org/2000/svg">
<rect width="63" height="52" rx="3.01587" transform="matrix(1 0 0 -1 19 98)" fill="#3F4350" fill-opacity="0.16"/>
<rect width="63" height="52" rx="3.01587" transform="matrix(1 0 0 -1 139 127)" fill="#3F4350" fill-opacity="0.16"/>
<path d="M12 24.2963L12 38L167 38" stroke="#3F4350" stroke-opacity="0.32" stroke-linecap="round"/>
<ellipse cx="2" cy="2" rx="2" ry="2" transform="matrix(1 8.74228e-08 8.74228e-08 -1 10 24)" fill="#3F4350" fill-opacity="0.48"/>
<path d="M211.75 114.232L211.75 89.9336L187.902 89.9336" stroke="#3F4350" stroke-opacity="0.32" stroke-linecap="round"/>
<circle cx="211.75" cy="116.482" r="2.24985" transform="rotate(180 211.75 116.482)" fill="#3F4350" fill-opacity="0.48"/>
<rect x="37.6801" y="16.5485" width="149.372" height="97.7757" rx="5.41732" fill="white" stroke="#3F4350" stroke-width="5.41732"/>
<rect width="137.691" height="85.4942" transform="translate(43.5203 22.8398)" fill="white"/>
<rect x="44" y="23" width="45" height="85" fill="#1C58D9" fill-opacity="0.16"/>
<path d="M59.3313 29.8669L76.0206 29.8669" stroke="#3F4350" stroke-opacity="0.32" stroke-linecap="round"/>
<path d="M59.3313 32.5021L68.9935 32.5021" stroke="#3F4350" stroke-opacity="0.32" stroke-linecap="round"/>
<path d="M94.4666 30.3063H115.548" stroke="#3F4350" stroke-opacity="0.32" stroke-linecap="round"/>
<path d="M47.9124 41.2861H61.0881" stroke="#3F4350" stroke-opacity="0.32" stroke-linecap="round"/>
<circle cx="51.0298" cy="30.3493" r="4.34771" fill="#3F4350" fill-opacity="0.32"/>
<circle cx="48.9995" cy="46.0006" r="2" fill="#3F4350" fill-opacity="0.32"/>
<path d="M54.939 46.0006H79.5338" stroke="#3F4350" stroke-opacity="0.32" stroke-linecap="round"/>
<circle cx="104" cy="44.0007" r="5" fill="#3F4350" fill-opacity="0.32"/>
<path d="M112 44.0007H165.056" stroke="#3F4350" stroke-opacity="0.32" stroke-linecap="round"/>
<path d="M112 48.0007H165.056" stroke="#3F4350" stroke-opacity="0.32" stroke-linecap="round"/>
<path d="M112 40.0007H125.176" stroke="#3F4350" stroke-opacity="0.32" stroke-linecap="round"/>
<circle cx="104" cy="63.0005" r="5" fill="#3F4350" fill-opacity="0.32"/>
<path d="M112 63.0005H165.056" stroke="#3F4350" stroke-opacity="0.32" stroke-linecap="round"/>
<path d="M112 67.0005H165.056" stroke="#3F4350" stroke-opacity="0.32" stroke-linecap="round"/>
<path d="M112 59.0005H125.176" stroke="#3F4350" stroke-opacity="0.32" stroke-linecap="round"/>
<circle cx="104" cy="82.0002" r="5" fill="#3F4350" fill-opacity="0.32"/>
<path d="M112 82.0002H165.056" stroke="#3F4350" stroke-opacity="0.32" stroke-linecap="round"/>
<path d="M112 86.0002H165.056" stroke="#3F4350" stroke-opacity="0.32" stroke-linecap="round"/>
<path d="M112 78.0002H125.176" stroke="#3F4350" stroke-opacity="0.32" stroke-linecap="round"/>
<circle cx="48.9995" cy="53.0007" r="2" fill="#3F4350" fill-opacity="0.32"/>
<path d="M54.939 53.0007H74.2635" stroke="#3F4350" stroke-opacity="0.32" stroke-linecap="round"/>
<circle cx="48.9995" cy="61.0004" r="2" fill="#3F4350" fill-opacity="0.32"/>
<path d="M54.939 61.0004H82.1689" stroke="#3F4350" stroke-opacity="0.32" stroke-linecap="round"/>
<circle cx="48.9995" cy="68.0005" r="2" fill="#3F4350" fill-opacity="0.32"/>
<path d="M54.939 68.0005H79.5338" stroke="#3F4350" stroke-opacity="0.32" stroke-linecap="round"/>
<circle cx="48.9995" cy="75.0005" r="2" fill="#3F4350" fill-opacity="0.32"/>
<path d="M54.939 75.0005H74.2635" stroke="#3F4350" stroke-opacity="0.32" stroke-linecap="round"/>
<circle cx="48.9995" cy="82.0006" r="2" fill="#3F4350" fill-opacity="0.32"/>
<path d="M54.939 82.0006H82.1689" stroke="#3F4350" stroke-opacity="0.32" stroke-linecap="round"/>
<path opacity="0.16" d="M177.5 60C193.24 60 206 47.2401 206 31.5C206 15.7599 193.24 3 177.5 3C161.76 3 149 15.7599 149 31.5C149 47.2401 161.76 60 177.5 60Z" fill="#090A0B"/>
<path d="M177.5 57C193.24 57 206 44.2401 206 28.5C206 12.7599 193.24 0 177.5 0C161.76 0 149 12.7599 149 28.5C149 44.2401 161.76 57 177.5 57Z" fill="#28427B"/>
<circle cx="177.489" cy="27.5" r="7.23684" stroke="white" stroke-width="1.44737"/>
<path d="M177.5 15.1974C168.816 15.1974 161.82 22.9167 159.408 26.7763C161.579 31.1184 168.237 39.8027 177.5 39.8027C186.763 39.8027 193.421 31.1184 195.592 26.7763C193.18 22.9167 186.184 15.1974 177.5 15.1974Z" stroke="white" stroke-width="1.44737" stroke-linecap="round"/>
</svg>
