<svg width="137" height="119" viewBox="0 0 137 119" fill="none" xmlns="http://www.w3.org/2000/svg">
<g clip-path="url(#clip0_3901_5955)">
<ellipse cx="68.4258" cy="59.5" rx="59.5" ry="59.5" fill="#3F4350" fill-opacity="0.08"/>
<path d="M1.48755 49.6825L1.48755 58.6075L116.323 58.6075L116.323 68.1275L133.28 68.1275" stroke="#3F4350" stroke-opacity="0.24" stroke-linecap="round"/>
<path d="M24.0974 81.515L24.0974 65.45L39.8649 65.45" stroke="#3F4350" stroke-opacity="0.24" stroke-linecap="round"/>
<ellipse cx="1.4875" cy="1.4875" rx="1.4875" ry="1.4875" transform="matrix(1 8.74228e-08 8.74228e-08 -1 0 49.98)" fill="#3F4350" fill-opacity="0.48"/>
<ellipse cx="1.4875" cy="1.4875" rx="1.4875" ry="1.4875" transform="matrix(1 8.74228e-08 8.74228e-08 -1 22.6101 84.49)" fill="#3F4350" fill-opacity="0.48"/>
<ellipse cx="1.4875" cy="1.4875" rx="1.4875" ry="1.4875" transform="matrix(1 8.74228e-08 8.74228e-08 -1 132.09 69.615)" fill="#3F4350" fill-opacity="0.48"/>
<path d="M32.127 43.4351L68.8713 15.4701C83.5766 26.6619 105.312 43.4351 105.312 43.4351V95.2001H32.127V43.4351Z" fill="white" stroke="#3F4350" stroke-linejoin="round"/>
<path fill-rule="evenodd" clip-rule="evenodd" d="M34.3135 44.1455L68.8641 17.8501C82.6915 28.3737 103.129 44.1455 103.129 44.1455V92.8201H34.3135V44.1455Z" fill="#1C58D9" fill-opacity="0.16"/>
<mask id="mask0_3901_5955" style="mask-type:alpha" maskUnits="userSpaceOnUse" x="33" y="22" width="71" height="49">
<path d="M68.8662 70.8051L33.9143 44.6251V22.6101H103.529V44.6251C103.529 44.6251 82.8542 60.3276 68.8662 70.8051Z" fill="#D9D9D9"/>
</mask>
<g mask="url(#mask0_3901_5955)">
<rect x="91.7249" y="25.4901" width="66.235" height="46.005" transform="rotate(90 91.7249 25.4901)" fill="white" stroke="#3F4350"/>
</g>
<path d="M68.8654 70.7708L104.123 44.03V94.605H33.3184V44.03L68.8654 70.7708Z" fill="white"/>
<path d="M33.9133 44.625L68.8653 70.805C82.8533 60.3276 103.528 44.625 103.528 44.625" stroke="#3F4350" stroke-linejoin="round"/>
<rect x="62" y="29" width="13" height="3" rx="1" fill="#3F4350" fill-opacity="0.24"/>
<path d="M54.0652 40L54.0652 47" stroke="#3F4350" stroke-linecap="round"/>
<path d="M51 41.7235L57.0622 45.2235" stroke="#3F4350" stroke-linecap="round"/>
<path d="M51.0693 45.2236L57.1315 41.7236" stroke="#3F4350" stroke-linecap="round"/>
<path d="M63.9324 40L63.9324 47" stroke="#3F4350" stroke-linecap="round"/>
<path d="M60.8672 41.7235L66.9293 45.2235" stroke="#3F4350" stroke-linecap="round"/>
<path d="M60.9365 45.2236L66.9987 41.7236" stroke="#3F4350" stroke-linecap="round"/>
<path d="M73.7996 40L73.7996 47" stroke="#3F4350" stroke-linecap="round"/>
<path d="M70.7344 41.7235L76.7965 45.2235" stroke="#3F4350" stroke-linecap="round"/>
<path d="M70.8037 45.2236L76.8659 41.7236" stroke="#3F4350" stroke-linecap="round"/>
<path d="M83.6667 40L83.6667 47" stroke="#3F4350" stroke-linecap="round"/>
<path d="M80.6016 41.7235L86.6637 45.2235" stroke="#3F4350" stroke-linecap="round"/>
<path d="M80.6709 45.2236L86.733 41.7236" stroke="#3F4350" stroke-linecap="round"/>
<path d="M99 77L111 77L111 90" stroke="#3F4350" stroke-linecap="round" stroke-linejoin="round"/>
<path d="M96 77L93 77" stroke="#3F4350" stroke-linecap="round" stroke-linejoin="round"/>
<path d="M91 77L89 77" stroke="#3F4350" stroke-linecap="round" stroke-linejoin="round"/>
<circle cx="27" cy="30" r="2" fill="#3F4350" fill-opacity="0.24"/>
<circle cx="33" cy="30" r="2" fill="#3F4350" fill-opacity="0.24"/>
<circle cx="39" cy="30" r="2" fill="#3F4350" fill-opacity="0.24"/>
<path d="M35.5 51.5V91.5H58M60 91.5H64M66 91.5H68" stroke="#3F4350" stroke-opacity="0.24" stroke-linecap="round" stroke-linejoin="round"/>
</g>
<defs>
<clipPath id="clip0_3901_5955">
<rect width="136.255" height="119" fill="white"/>
</clipPath>
</defs>
</svg>
