<svg width="142" height="87" viewBox="0 0 142 87" fill="none" xmlns="http://www.w3.org/2000/svg">
<g clip-path="url(#clip0_3901_7025)">
<rect x="15" y="15" width="112" height="44" rx="3" fill="#1C58D9" fill-opacity="0.12"/>
<path d="M29.5 75L29.5 47L40 47" stroke="#3F4350" stroke-opacity="0.32" stroke-linecap="round"/>
<path d="M45 43H29.5V9.5L22.5 2.5" stroke="#3F4350" stroke-opacity="0.32" stroke-linecap="round"/>
<circle cx="2.5" cy="2.5" r="2.5" transform="matrix(1 0 0 -1 20 5)" fill="#3F4350" fill-opacity="0.48"/>
<circle cx="2.5" cy="2.5" r="2.5" transform="matrix(1 0 0 -1 27 78)" fill="#3F4350" fill-opacity="0.48"/>
<path d="M127 22.5L117 22.5L117 49" stroke="#3F4350" stroke-opacity="0.32" stroke-linecap="round"/>
<circle cx="128.5" cy="22.5" r="2.5" fill="#3F4350" fill-opacity="0.48"/>
<path d="M54.605 67.5638L41 81V12C41 10.8954 41.8954 10 43 10H109C110.105 10 111 10.8954 111 12V64.9868C111 66.0914 110.105 66.9868 109 66.9868H56.0103C55.4842 66.9868 54.9793 67.1941 54.605 67.5638Z" fill="#28427B"/>
<path d="M49.605 62.5638L36 76V7C36 5.89543 36.8954 5 38 5H104C105.105 5 106 5.89543 106 7V59.9868C106 61.0914 105.105 61.9868 104 61.9868H51.0103C50.4842 61.9868 49.9793 62.1941 49.605 62.5638Z" fill="white"/>
<path d="M38 5.5H104C104.828 5.5 105.5 6.17157 105.5 7V59.9873C105.5 60.8155 104.828 61.4873 104 61.4873H51.0107C50.3532 61.4873 49.7218 61.746 49.2539 62.208L36.5 74.8027V7C36.5 6.17157 37.1716 5.5 38 5.5Z" stroke="#3F4350" stroke-opacity="0.8"/>
<circle cx="54" cy="24" r="9" fill="#3F4350" fill-opacity="0.32"/>
<path d="M69 20H85" stroke="#3F4350" stroke-opacity="0.48" stroke-linecap="round"/>
<path d="M46 44H96" stroke="#3F4350" stroke-opacity="0.48" stroke-linecap="round"/>
<path d="M46 51H68" stroke="#3F4350" stroke-opacity="0.48" stroke-linecap="round"/>
<path d="M69 26H94" stroke="#3F4350" stroke-opacity="0.48" stroke-linecap="round"/>
<path d="M46 38H63" stroke="#3F4350" stroke-opacity="0.48" stroke-linecap="round"/>
<path d="M67 38H85" stroke="#3F4350" stroke-opacity="0.48" stroke-linecap="round"/>
<path opacity="0.32" d="M114.218 87.29C106.772 87.1409 100.598 84.5917 95.6936 79.6423C90.7897 74.6929 88.2252 68.5281 88 61.1479C88.2213 53.7639 90.7859 47.5971 95.6936 42.6477C100.601 37.6983 106.776 35.1491 114.218 35C121.591 35.1529 127.73 37.7021 132.633 42.6477C137.537 47.5933 140.102 53.76 140.327 61.1479C140.098 68.5319 137.534 74.6967 132.633 79.6423C127.733 84.5879 121.595 87.1371 114.218 87.29Z" fill="#3F4350" fill-opacity="0.32"/>
<path d="M111.217 31.5C118.464 31.6523 124.474 34.1544 129.278 39C134.084 43.8463 136.601 49.8847 136.826 57.1475C136.598 64.4067 134.08 70.4435 129.278 75.29C124.477 80.1354 118.468 82.6368 111.217 82.7891C103.896 82.6401 97.8521 80.1379 93.0488 75.29C88.243 70.4396 85.7245 64.4028 85.5 57.1475C85.7209 49.8886 88.2394 43.8503 93.0488 39C97.8561 34.1519 103.9 31.649 111.217 31.5Z" fill="white" stroke="#3F4350"/>
<path d="M111.042 77C105.35 76.886 100.63 74.9359 96.8812 71.1498C93.1325 67.3636 91.1721 62.6478 91 57.0022C91.1692 51.3537 93.1296 46.6364 96.8812 42.8502C100.633 39.0641 105.353 37.114 111.042 37C116.678 37.1169 121.37 39.067 125.119 42.8502C128.867 46.6334 130.828 51.3508 131 57.0022C130.825 62.6507 128.865 67.3666 125.119 71.1498C121.373 74.933 116.681 76.8831 111.042 77Z" fill="white"/>
<path d="M111.041 37.5C116.551 37.6165 121.114 39.5191 124.764 43.2021C128.414 46.8861 130.327 51.4754 130.499 57.002C130.325 62.5258 128.411 67.1138 124.764 70.7979C121.117 74.4807 116.554 76.3825 111.041 76.499C105.474 76.3852 100.885 74.4825 97.2363 70.7979C93.5857 67.1107 91.6715 62.5227 91.5 57.002C91.6687 51.4784 93.583 46.8892 97.2363 43.2021C100.888 39.5173 105.477 37.6138 111.041 37.5Z" stroke="#3F4350" stroke-opacity="0.32"/>
<path d="M111 35.5V57L120.5 66.5" stroke="#3F4350" stroke-opacity="0.8" stroke-linejoin="round"/>
<circle cx="111" cy="57" r="2" fill="#3F4350" fill-opacity="0.8"/>
</g>
<defs>
<clipPath id="clip0_3901_7025">
<rect width="142" height="87" fill="white"/>
</clipPath>
</defs>
</svg>
