<svg width="122" height="99" viewBox="0 0 122 99" fill="none" xmlns="http://www.w3.org/2000/svg">
<g clip-path="url(#clip0_3901_5875)">
<rect y="32" width="107" height="31" rx="3.75" fill="#1C58D9" fill-opacity="0.12"/>
<rect x="46" width="76" height="27" rx="3.75" fill="#1C58D9" fill-opacity="0.12"/>
<rect x="46" y="67" width="76" height="27" rx="3.75" fill="#1C58D9" fill-opacity="0.12"/>
<path d="M62.3263 6.60593C70.007 6.55738 77.0682 8.54646 83.5 12.5732C86.1406 14.2264 88.6751 16.223 91.1029 18.5631C94.1039 21.6787 96.5361 24.9905 98.398 28.5M62.3263 87.8542C53.3579 87.7863 45.2413 85.1063 38 79.7911C36.4827 78.6774 35.0037 77.4479 33.5635 76.1025C29.8234 72.0903 26.9699 67.8234 25 63.299M21.7022 47.2301C21.709 41.8688 22.6916 36.7921 24.6501 32C26.6293 27.1573 29.6049 22.6053 33.5772 18.3439M101.694 37C102.531 40.2642 102.95 43.6739 102.95 47.2301C102.945 51.5308 102.33 55.6211 101.103 59.5M100.24 32.5C100.514 33.1979 100.767 33.903 101 34.6153" stroke="#3F4350" stroke-opacity="0.48"/>
<path d="M82.4001 5.72396C90.2441 9.4225 96.4629 14.8934 101.047 22.1318C102.929 25.1036 104.535 28.3733 105.865 31.9406" stroke="#3F4350" stroke-opacity="0.48"/>
<rect x="89.6328" y="69.3516" width="33.9752" height="7.45395" rx="1" transform="rotate(45 89.6328 69.3516)" fill="#3F4350" fill-opacity="0.48"/>
<rect x="89.6328" y="70.0587" width="32.9752" height="6.45395" rx="0.5" transform="rotate(45 89.6328 70.0587)" stroke="#3F4350" stroke-opacity="0.8"/>
<path d="M62.3157 11.2232C71.9183 11.1625 80.4283 14.6952 87.8214 21.8213C94.814 29.0809 98.3224 37.5423 98.3224 47.2299C98.3102 56.9053 94.814 65.3789 87.8214 72.6385C80.4283 79.7646 71.9426 83.2973 62.3157 83.2366C52.701 83.1637 44.191 79.7039 36.8221 72.8206C29.8174 65.3061 26.3211 56.7839 26.309 47.2299C26.3211 37.6759 29.8296 29.1416 36.8342 21.627C44.2152 14.7559 52.7131 11.2839 62.3157 11.2232Z" fill="white"/>
<path d="M87.4677 22.1746C94.3704 29.3439 97.8226 37.6801 97.8229 47.2285L97.8222 47.2292C97.8102 56.7668 94.3699 65.1148 87.4677 72.2839C80.3911 79.1022 72.3246 82.5755 63.2051 82.7316L62.3191 82.7365C52.8409 82.6646 44.4546 79.2601 37.1761 72.4662C30.475 65.272 27.0392 57.1658 26.8201 48.109L26.8091 47.2292C26.8214 37.8175 30.2705 29.4068 37.1878 21.9805C44.4792 15.1981 52.8544 11.7832 62.3191 11.7233C71.7786 11.6636 80.1631 15.1368 87.4677 22.1746Z" stroke="#3F4350" stroke-opacity="0.8"/>
<path fill-rule="evenodd" clip-rule="evenodd" d="M87.8209 21.8213C80.4278 14.6952 71.9178 11.1625 62.3152 11.2232C52.7126 11.2839 44.2147 14.7559 36.8337 21.627C29.8291 29.1416 26.3207 37.6759 26.3085 47.2299C26.3207 56.7839 29.8169 65.3061 36.8216 72.8206C44.1905 79.7039 52.7005 83.1638 62.3152 83.2366C71.9421 83.2973 80.4278 79.7646 87.8209 72.6385C94.8135 65.3789 98.3097 56.9053 98.3219 47.2299C98.3219 37.5423 94.8135 29.0809 87.8209 21.8213ZM84.3086 25.3086C77.9302 19.1606 70.5882 16.1128 62.3035 16.1652C54.0189 16.2175 46.6874 19.213 40.3194 25.1411C34.2761 31.6242 31.2493 38.9872 31.2388 47.2299C31.2493 55.4726 34.2657 62.8251 40.309 69.3083C46.6664 75.2468 54.0084 78.2318 62.3035 78.2947C70.6091 78.347 77.9302 75.2992 84.3086 69.1512C90.3414 62.888 93.3578 55.5774 93.3683 47.2299C93.3683 38.872 90.3414 31.5719 84.3086 25.3086Z" fill="white"/>
<path fill-rule="evenodd" clip-rule="evenodd" d="M87.8209 21.8213C80.4278 14.6952 71.9178 11.1625 62.3152 11.2232C52.7126 11.2839 44.2147 14.7559 36.8337 21.627C29.8291 29.1416 26.3207 37.6759 26.3085 47.2299C26.3207 56.7839 29.8169 65.3061 36.8216 72.8206C44.1905 79.7039 52.7005 83.1638 62.3152 83.2366C71.9421 83.2973 80.4278 79.7646 87.8209 72.6385C94.8135 65.3789 98.3097 56.9053 98.3219 47.2299C98.3219 37.5423 94.8135 29.0809 87.8209 21.8213ZM84.3086 25.3086C77.9302 19.1606 70.5882 16.1128 62.3035 16.1652C54.0189 16.2175 46.6874 19.213 40.3194 25.1411C34.2761 31.6242 31.2493 38.9872 31.2388 47.2299C31.2493 55.4726 34.2657 62.8251 40.309 69.3083C46.6664 75.2468 54.0084 78.2318 62.3035 78.2947C70.6091 78.347 77.9302 75.2992 84.3086 69.1512C90.3414 62.888 93.3578 55.5774 93.3683 47.2299C93.3683 38.872 90.3414 31.5719 84.3086 25.3086Z" fill="#3F4350" fill-opacity="0.8"/>
<path d="M87.4674 22.1746C94.3702 29.3439 97.8223 37.6801 97.8227 47.2286L97.822 47.2293C97.81 56.7668 94.3696 65.1148 87.4674 72.2839C80.3909 79.1023 72.3243 82.5756 63.2048 82.7317L62.3189 82.7365C52.8407 82.6646 44.4543 79.2601 37.1758 72.4662C30.4748 65.272 27.039 57.1658 26.8199 48.109L26.8088 47.2293C26.8211 37.8175 30.2702 29.4068 37.1876 21.9806C44.4789 15.1982 52.8541 11.7832 62.3189 11.7234C71.7784 11.6636 80.1629 15.1368 87.4674 22.1746Z" stroke="#3F4350" stroke-opacity="0.8"/>
<circle cx="51" cy="36" r="9" fill="#3F4350" fill-opacity="0.32"/>
<path d="M43 56H85" stroke="#3F4350" stroke-opacity="0.8" stroke-linecap="round"/>
<path d="M43 63H65" stroke="#3F4350" stroke-opacity="0.8" stroke-linecap="round"/>
<path d="M43 50H60" stroke="#3F4350" stroke-opacity="0.8" stroke-linecap="round"/>
<path d="M65 50H80" stroke="#3F4350" stroke-opacity="0.8" stroke-linecap="round"/>
</g>
<defs>
<clipPath id="clip0_3901_5875">
<rect width="122" height="99" fill="white"/>
</clipPath>
</defs>
</svg>
