<svg width="260" height="147" viewBox="0 0 260 147" fill="none" xmlns="http://www.w3.org/2000/svg">
<rect x="0.998535" y="58" width="243" height="52" rx="3" fill="#3F4350" fill-opacity="0.16"/>
<rect x="42.2072" y="25.7087" width="166.583" height="109.249" rx="5.41732" fill="white" stroke="#3F4350" stroke-width="5.41732"/>
<g clip-path="url(#clip0_4144_2060)">
<rect width="153" height="95" transform="translate(48.9985 33)" fill="white"/>
<rect opacity="0.5" x="48.9985" y="33" width="45.6761" height="98.3792" fill="#1C58D9" fill-opacity="0.16"/>
<path d="M64.8101 40.0273L81.4994 40.0273" stroke="#3F4350" stroke-opacity="0.24" stroke-width="0.878386" stroke-linecap="round"/>
<path d="M64.8101 42.6621L74.4723 42.6621" stroke="#3F4350" stroke-opacity="0.24" stroke-width="0.878386" stroke-linecap="round"/>
<path d="M99.9448 40.4666H121.026" stroke="#3F4350" stroke-opacity="0.24" stroke-width="0.878386" stroke-linecap="round"/>
<path d="M53.3901 51.4463H66.5659" stroke="#3F4350" stroke-opacity="0.24" stroke-width="0.878386" stroke-linecap="round"/>
<circle cx="57.3433" cy="41.3443" r="4.83112" fill="#3F4350" fill-opacity="0.4"/>
<ellipse cx="55.4759" cy="58.6029" rx="2.15927" ry="2.15927" fill="#3F4350" fill-opacity="0.24"/>
<path d="M60.4175 58.4731H85.0123" stroke="#3F4350" stroke-opacity="0.24" stroke-width="0.878386" stroke-linecap="round"/>
<circle cx="115.756" cy="55.8377" r="5.27031" fill="#3F4350" fill-opacity="0.4"/>
<path d="M125.804 55.8242H178.861" stroke="#3F4350" stroke-opacity="0.24" stroke-width="0.878386" stroke-linecap="round"/>
<path d="M125.804 60.23H178.861" stroke="#3F4350" stroke-opacity="0.24" stroke-width="0.878386" stroke-linecap="round"/>
<path d="M125.418 51.4463H138.594" stroke="#3F4350" stroke-opacity="0.24" stroke-width="0.878386" stroke-linecap="round"/>
<circle cx="115.756" cy="76.9192" r="5.27031" fill="#3F4350" fill-opacity="0.4"/>
<path d="M125.804 76.9058H178.861" stroke="#3F4350" stroke-opacity="0.24" stroke-width="0.878386" stroke-linecap="round"/>
<path d="M125.804 81.3113H178.861" stroke="#3F4350" stroke-opacity="0.24" stroke-width="0.878386" stroke-linecap="round"/>
<path d="M125.418 72.5273H138.594" stroke="#3F4350" stroke-opacity="0.24" stroke-width="0.878386" stroke-linecap="round"/>
<circle cx="115.756" cy="98.0008" r="5.27031" fill="#3F4350" fill-opacity="0.4"/>
<path d="M125.804 97.9866H178.861" stroke="#3F4350" stroke-opacity="0.24" stroke-width="0.878386" stroke-linecap="round"/>
<path d="M125.804 102.393H178.861" stroke="#3F4350" stroke-opacity="0.24" stroke-width="0.878386" stroke-linecap="round"/>
<path d="M125.418 93.6086H138.594" stroke="#3F4350" stroke-opacity="0.24" stroke-width="0.878386" stroke-linecap="round"/>
<ellipse cx="55.4759" cy="66.7811" rx="2.15927" ry="2.15927" fill="#3F4350" fill-opacity="0.4"/>
<path d="M60.4175 66.3784H79.742" stroke="#3F4350" stroke-opacity="0.24" stroke-width="0.878386" stroke-linecap="round"/>
<ellipse cx="55.4759" cy="74.9596" rx="2.15927" ry="2.15927" fill="#3F4350" fill-opacity="0.4"/>
<path d="M60.4175 75.1624H87.6474" stroke="#3F4350" stroke-opacity="0.24" stroke-width="0.878386" stroke-linecap="round"/>
<ellipse cx="55.4759" cy="83.1378" rx="2.15927" ry="2.15927" fill="#3F4350" fill-opacity="0.4"/>
<path d="M60.4175 83.0078H85.0123" stroke="#3F4350" stroke-opacity="0.24" stroke-width="0.878386" stroke-linecap="round"/>
<ellipse cx="55.4759" cy="91.316" rx="2.15927" ry="2.15927" fill="#3F4350" fill-opacity="0.4"/>
<path d="M60.4175 90.9734H79.742" stroke="#3F4350" stroke-opacity="0.24" stroke-width="0.878386" stroke-linecap="round"/>
<ellipse cx="55.4759" cy="99.4942" rx="2.15927" ry="2.15927" fill="#3F4350" fill-opacity="0.4"/>
<path d="M60.4175 99.7576H87.6474" stroke="#3F4350" stroke-opacity="0.24" stroke-width="0.878386" stroke-linecap="round"/>
</g>
<path d="M233.499 118L233.499 91H206.999" stroke="#3F4350" stroke-opacity="0.24" stroke-linecap="round"/>
<circle cx="233.499" cy="120.5" r="2.5" transform="rotate(180 233.499 120.5)" fill="#3F4350" fill-opacity="0.48"/>
<path d="M16.4985 57L16.4985 84L42.9985 84" stroke="#3F4350" stroke-opacity="0.24" stroke-linecap="round"/>
<circle cx="16.4985" cy="54.5" r="2.5" fill="#3F4350" fill-opacity="0.48"/>
<rect x="26.9985" y="72" width="85" height="23" rx="3" fill="#28427B"/>
<path opacity="0.48" d="M107.999 76H30.9985V91H107.999V76Z" stroke="white" stroke-linecap="round"/>
<path d="M47.9985 87C49.6554 87 50.9985 85.6569 50.9985 84C50.9985 82.3431 49.6554 81 47.9985 81C46.3417 81 44.9985 82.3431 44.9985 84C44.9985 85.6569 46.3417 87 47.9985 87Z" fill="white"/>
<path d="M56.9985 87C58.6554 87 59.9985 85.6569 59.9985 84C59.9985 82.3431 58.6554 81 56.9985 81C55.3417 81 53.9985 82.3431 53.9985 84C53.9985 85.6569 55.3417 87 56.9985 87Z" fill="white"/>
<path opacity="0.5" d="M38.9985 87C40.6554 87 41.9985 85.6569 41.9985 84C41.9985 82.3431 40.6554 81 38.9985 81C37.3417 81 35.9985 82.3431 35.9985 84C35.9985 85.6569 37.3417 87 38.9985 87Z" fill="white"/>
<rect x="26.9985" y="98" width="85" height="23" rx="3" fill="#28427B"/>
<path opacity="0.48" d="M107.999 102H30.9985V117H107.999V102Z" stroke="white" stroke-linecap="round"/>
<path d="M47.9985 113C49.6554 113 50.9985 111.657 50.9985 110C50.9985 108.343 49.6554 107 47.9985 107C46.3417 107 44.9985 108.343 44.9985 110C44.9985 111.657 46.3417 113 47.9985 113Z" fill="white"/>
<path d="M56.9985 113C58.6554 113 59.9985 111.657 59.9985 110C59.9985 108.343 58.6554 107 56.9985 107C55.3417 107 53.9985 108.343 53.9985 110C53.9985 111.657 55.3417 113 56.9985 113Z" fill="white"/>
<path opacity="0.5" d="M38.9985 113C40.6554 113 41.9985 111.657 41.9985 110C41.9985 108.343 40.6554 107 38.9985 107C37.3417 107 35.9985 108.343 35.9985 110C35.9985 111.657 37.3417 113 38.9985 113Z" fill="white"/>
<rect x="26.9985" y="124" width="85" height="23" rx="3" fill="#28427B"/>
<path opacity="0.48" d="M107.999 128H30.9985V143H107.999V128Z" stroke="white" stroke-linecap="round"/>
<path d="M47.9985 139C49.6554 139 50.9985 137.657 50.9985 136C50.9985 134.343 49.6554 133 47.9985 133C46.3417 133 44.9985 134.343 44.9985 136C44.9985 137.657 46.3417 139 47.9985 139Z" fill="white"/>
<path d="M56.9985 139C58.6554 139 59.9985 137.657 59.9985 136C59.9985 134.343 58.6554 133 56.9985 133C55.3417 133 53.9985 134.343 53.9985 136C53.9985 137.657 55.3417 139 56.9985 139Z" fill="white"/>
<path opacity="0.5" d="M38.9985 139C40.6554 139 41.9985 137.657 41.9985 136C41.9985 134.343 40.6554 133 38.9985 133C37.3417 133 35.9985 134.343 35.9985 136C35.9985 137.657 37.3417 139 38.9985 139Z" fill="white"/>
<rect x="176.288" y="58.499" width="47.2105" height="87" rx="7.5" fill="white" stroke="#3F4350" stroke-width="3"/>
<path d="M177.788 64.499C177.788 62.0137 179.802 59.999 182.288 59.999H217.498C219.983 59.999 221.998 62.0137 221.998 64.499V67.7359H177.788V64.499Z" fill="#1C58D9" fill-opacity="0.16"/>
<circle cx="188.654" cy="107.339" r="6.44477" fill="#3F4350" fill-opacity="0.4"/>
<path d="M199.394 104.475H210.851" stroke="#3F4350" stroke-opacity="0.48" stroke-linecap="round"/>
<path d="M182.924 121.894H213.187" stroke="#3F4350" stroke-opacity="0.48" stroke-linecap="round"/>
<path d="M182.924 126.315H205.31" stroke="#3F4350" stroke-opacity="0.48" stroke-linecap="round"/>
<path d="M199.394 108.771H217.296" stroke="#3F4350" stroke-opacity="0.48" stroke-linecap="round"/>
<path d="M182.924 117.364H201.729" stroke="#3F4350" stroke-opacity="0.48" stroke-linecap="round"/>
<rect x="191.051" y="63.3149" width="17.6842" height="1.10526" rx="0.552632" fill="#3F4350"/>
<defs>
<clipPath id="clip0_4144_2060">
<rect width="153" height="95" fill="white" transform="translate(48.9985 33)"/>
</clipPath>
</defs>
</svg>
