<svg width="196" height="120" viewBox="0 0 196 120" fill="none" xmlns="http://www.w3.org/2000/svg">
<rect x="5.74512" y="22" width="181" height="78" rx="5.625" fill="#1C58D9" fill-opacity="0.12"/>
<path d="M14 11L19.5 16.5V70.5H40.5" stroke="#3F4350" stroke-opacity="0.24" stroke-linecap="round"/>
<circle cx="2.5" cy="2.5" r="2.5" transform="matrix(1 0 0 -1 10 12)" fill="#3F4350" fill-opacity="0.48"/>
<path d="M7 35L12.5 40.5V79.5H177.5V108.5" stroke="#3F4350" stroke-opacity="0.24" stroke-linecap="round"/>
<circle cx="2.5" cy="2.5" r="2.5" transform="matrix(1 0 0 -1 175 112)" fill="#3F4350" fill-opacity="0.48"/>
<circle cx="2.5" cy="2.5" r="2.5" transform="matrix(1 0 0 -1 3 36)" fill="#3F4350" fill-opacity="0.48"/>
<path opacity="0.32" d="M61.8756 22H129.615L133.745 115H57.7451L61.8756 22Z" fill="#3F4350" fill-opacity="0.24"/>
<rect opacity="0.32" width="92" height="5" transform="matrix(1 0 0 -1 49.7451 120)" fill="#3F4350" fill-opacity="0.48"/>
<rect x="29.7451" y="16" width="131" height="86" rx="4" fill="white" stroke="#3F4350" stroke-width="4"/>
<path d="M60.0254 44.2423C64.5106 44.2423 68.1466 40.6063 68.1466 36.1211C68.1466 31.636 64.5106 28 60.0254 28C55.5403 28 51.9043 31.636 51.9043 36.1211C51.9043 40.6063 55.5403 44.2423 60.0254 44.2423Z" fill="#3DB887"/>
<path d="M56.2031 35.723L59.0191 38.5097L63.8465 33.7325" stroke="white" stroke-width="1.19" stroke-linecap="round" stroke-linejoin="round"/>
<path d="M72.0527 32.4158H94.5334" stroke="#3F4350" stroke-linecap="round"/>
<path d="M96.9434 32.4158H106.578" stroke="#3F4350" stroke-linecap="round"/>
<path d="M108.984 32.4158H112.999" stroke="#3F4350" stroke-linecap="round"/>
<path opacity="0.5" d="M122.987 35.226H72.0527V41.3016H122.987V35.226Z" fill="#3F4350" fill-opacity="0.24"/>
<path d="M60.0254 67.5113C64.5106 67.5113 68.1466 63.8753 68.1466 59.3902C68.1466 54.905 64.5106 51.269 60.0254 51.269C55.5403 51.269 51.9043 54.905 51.9043 59.3902C51.9043 63.8753 55.5403 67.5113 60.0254 67.5113Z" fill="#3DB887"/>
<path d="M56.2031 58.9921L59.0191 61.7787L63.8465 57.0016" stroke="white" stroke-width="1.19" stroke-linecap="round" stroke-linejoin="round"/>
<path d="M72.0527 55.6848H94.5334" stroke="#3F4350" stroke-linecap="round"/>
<path d="M96.9434 55.6848H106.578" stroke="#3F4350" stroke-linecap="round"/>
<path d="M108.984 55.6848H112.999" stroke="#3F4350" stroke-linecap="round"/>
<path opacity="0.5" d="M138.987 58.495H72.0527V64.5706H138.987V58.495Z" fill="#3F4350" fill-opacity="0.24"/>
<rect x="110" width="83" height="50" rx="4" fill="#28427B"/>
<path d="M152 10H166.481" stroke="white" stroke-linecap="round"/>
<path d="M152 16H175" stroke="white" stroke-linecap="round"/>
<path d="M152 22H182" stroke="white" stroke-linecap="round"/>
<path d="M152 28H182" stroke="white" stroke-linecap="round"/>
<path d="M168.891 10H178.525" stroke="white" stroke-linecap="round"/>
<path d="M180.932 10H183.946" stroke="white" stroke-linecap="round"/>
<path fill-rule="evenodd" clip-rule="evenodd" d="M127.509 6.9187H130.5L130.879 9.38061C131.795 9.58876 132.652 9.95029 133.423 10.4368L135.435 8.96111L137.55 11.0762L136.057 13.1123C136.521 13.8746 136.865 14.7186 137.061 15.6178L139.592 16.0072V18.9983L136.996 19.3976C136.779 20.2503 136.428 21.0495 135.968 21.7718L137.55 23.9292L135.435 26.0442L133.226 24.4246C132.521 24.8427 131.747 25.158 130.926 25.3498L130.505 28.0866H127.513L127.089 25.3268C126.282 25.1281 125.523 24.81 124.83 24.3922L122.577 26.0441L120.462 23.9291L122.097 21.6996C121.661 21.0008 121.328 20.2316 121.118 19.413L118.422 18.9982V16.0071L121.053 15.6023C121.243 14.7371 121.57 13.9232 122.01 13.1843L120.464 11.0762L122.579 8.96117L124.636 10.4695C125.391 9.98536 126.23 9.62157 127.126 9.40523L127.509 6.9187ZM133.041 17.3707C133.041 19.5721 131.256 21.3568 129.055 21.3568C126.853 21.3568 125.068 19.5721 125.068 17.3707C125.068 15.1692 126.853 13.3846 129.055 13.3846C131.256 13.3846 133.041 15.1692 133.041 17.3707Z" fill="white"/>
<path fill-rule="evenodd" clip-rule="evenodd" d="M138.405 30.9484H140.038L140.245 32.292C140.744 32.4055 141.212 32.6027 141.633 32.868L142.73 32.0631L143.885 33.2176L143.071 34.3277C143.325 34.7441 143.512 35.2053 143.619 35.6966L145 35.909V37.5416L143.584 37.7594C143.466 38.2253 143.274 38.662 143.022 39.0566L143.885 40.233L142.73 41.3875L141.526 40.504C141.141 40.7318 140.719 40.9037 140.271 41.0083L140.042 42.5023H138.409L138.177 40.9961C137.737 40.8878 137.322 40.7142 136.944 40.4862L135.715 41.3876L134.56 40.2331L135.452 39.0169C135.214 38.6353 135.032 38.2152 134.917 37.7681L133.445 37.5416V35.909L134.882 35.688C134.986 35.2158 135.164 34.7717 135.404 34.3684L134.56 33.2176L135.715 32.0631L136.837 32.8865C137.249 32.6223 137.707 32.4237 138.196 32.3056L138.405 30.9484ZM141.426 36.6532C141.426 37.8549 140.452 38.829 139.25 38.829C138.048 38.829 137.074 37.8549 137.074 36.6532C137.074 35.4516 138.048 34.4775 139.25 34.4775C140.452 34.4775 141.426 35.4516 141.426 36.6532Z" fill="white"/>
<rect x="54.5" y="79.4823" width="84" height="11.0354" fill="white" stroke="#3F4350"/>
<rect opacity="0.3" x="57.0098" y="81.9911" width="78.9823" height="6.0177" fill="#3F4350" fill-opacity="0.24"/>
<rect x="57.0098" y="81.9911" width="52.6549" height="6.0177" fill="#3F4350" fill-opacity="0.24"/>
<path d="M150 108.5H122.5" stroke="#3F4350" stroke-linecap="round" stroke-linejoin="round"/>
<path d="M119 108.5H113" stroke="#3F4350" stroke-linecap="round"/>
<path d="M110 108.5H104" stroke="#3F4350" stroke-linecap="round"/>
</svg>
