<svg width="120" height="123" viewBox="0 0 120 123" fill="none" xmlns="http://www.w3.org/2000/svg">
<ellipse opacity="0.24" cx="60.4258" cy="59.5" rx="59.5" ry="59.5" fill="#3F4350" fill-opacity="0.16"/>
<path d="M11 50L11 58.7097L87.6772 58.7097L87.6772 47L99 47" stroke="#3F4350" stroke-opacity="0.24" stroke-linecap="round"/>
<path d="M27.3525 81.515L27.3525 65.45L55.0001 65.45" stroke="#3F4350" stroke-opacity="0.24" stroke-linecap="round"/>
<ellipse cx="1.4875" cy="1.4875" rx="1.4875" ry="1.4875" transform="matrix(1 8.74228e-08 8.74228e-08 -1 9.25488 49.98)" fill="#3F4350" fill-opacity="0.48"/>
<ellipse cx="1.4875" cy="1.4875" rx="1.4875" ry="1.4875" transform="matrix(1 8.74228e-08 8.74228e-08 -1 25.865 84.49)" fill="#3F4350" fill-opacity="0.48"/>
<ellipse cx="1.4875" cy="1.4875" rx="1.4875" ry="1.4875" transform="matrix(1 8.74228e-08 8.74228e-08 -1 99.345 48.615)" fill="#3F4350" fill-opacity="0.48"/>
<circle cx="20.2549" cy="38" r="2" fill="#3F4350" fill-opacity="0.24"/>
<circle cx="26.2549" cy="38" r="2" fill="#3F4350" fill-opacity="0.24"/>
<circle cx="32.2549" cy="38" r="2" fill="#3F4350" fill-opacity="0.24"/>
<path d="M74.4675 45.4541C72.5088 47.3326 70.7402 49.4043 69.1878 51.6384C67.3169 53.8195 66.2867 56.6111 66.2867 59.5C66.2867 62.3888 67.3169 65.1805 69.1878 67.3615C70.7368 69.5983 72.5057 71.6704 74.4675 73.5459C76.8568 75.6174 78.7692 78.1934 80.0703 81.093C81.3714 83.9927 82.0297 87.1456 81.999 90.3303V100H38.0009V90.3303C37.9738 87.0828 38.6589 83.8696 40.0067 80.9226C41.3342 78.0624 43.2802 75.5414 45.7005 73.5459C47.5975 71.6382 49.3292 69.5691 50.8768 67.3615C52.7477 65.1805 53.7779 62.3888 53.7779 59.5C53.7779 56.6111 52.7477 53.8195 50.8768 51.6384C49.3259 49.4335 47.5944 47.3647 45.7005 45.4541C43.2776 43.4612 41.3312 40.9394 40.0067 38.0773C38.6572 35.1309 37.9721 31.9174 38.0009 28.6697V19H81.999V28.6697C82.0297 31.8544 81.3714 35.0073 80.0703 37.9069C78.7692 40.8065 76.8568 43.3826 74.4675 45.4541Z" fill="white"/>
<path opacity="0.08" d="M74.4675 45.4541C72.5088 47.3326 70.7402 49.4043 69.1878 51.6384C67.3169 53.8195 66.2867 56.6111 66.2867 59.5C66.2867 62.3888 67.3169 65.1805 69.1878 67.3615C70.7368 69.5983 72.5057 71.6704 74.4675 73.5459C76.8568 75.6174 78.7692 78.1934 80.0703 81.093C81.3714 83.9927 82.0297 87.1456 81.999 90.3303V100H38.0009V90.3303C37.9738 87.0828 38.6589 83.8696 40.0067 80.9226C41.3342 78.0624 43.2802 75.5414 45.7005 73.5459C47.5975 71.6382 49.3292 69.5691 50.8768 67.3615C52.7477 65.1805 53.7779 62.3888 53.7779 59.5C53.7779 56.6111 52.7477 53.8195 50.8768 51.6384C49.3259 49.4335 47.5944 47.3647 45.7005 45.4541C43.2776 43.4612 41.3312 40.9394 40.0067 38.0773C38.6572 35.1309 37.9721 31.9174 38.0009 28.6697V19H81.999V28.6697C82.0297 31.8544 81.3714 35.0073 80.0703 37.9069C78.7692 40.8065 76.8568 43.3826 74.4675 45.4541Z" fill="white"/>
<path d="M38.501 90.3262C38.4745 87.1518 39.1437 84.011 40.4609 81.1309L40.46 81.1299C41.7562 78.3382 43.6569 75.8786 46.0186 73.9316L46.0381 73.916L46.0547 73.8984C47.9669 71.9753 49.7126 69.8895 51.2734 67.665C53.2111 65.396 54.2783 62.4982 54.2783 59.5C54.2783 56.5046 53.2135 53.609 51.2793 51.3408C49.7142 49.1167 47.9664 47.0303 46.0557 45.1025L46.0381 45.084L46.0186 45.0684L45.5801 44.6973C43.4183 42.8141 41.6722 40.4867 40.46 37.8672C39.1417 34.9882 38.4728 31.8476 38.501 28.6738V19.5H81.499V28.6748C81.529 31.7874 80.8857 34.8686 79.6143 37.7021C78.3428 40.5358 76.4737 43.0526 74.1396 45.0762L74.1309 45.085L74.1211 45.0928C72.1449 46.9881 70.3605 49.0782 68.793 51.3311C66.8536 53.6006 65.7871 56.5004 65.7871 59.5C65.7871 62.4954 66.851 65.3911 68.7852 67.6592C70.3512 69.9188 72.1396 72.0119 74.1221 73.9072L74.1309 73.916L74.1396 73.9238C76.4737 75.9474 78.3428 78.4642 79.6143 81.2979C80.8857 84.1313 81.529 87.2127 81.499 90.3252V99.5H38.501V90.3262Z" stroke="#3F4350"/>
<path d="M60.4219 35.5149C70.0166 35.5149 77 35.5139 77 35.5139C77 35.5139 75.7449 39.6919 74.2283 41.2567C72.7552 42.9087 71.1493 44.4365 69.4267 45.8247C68.0587 47.2678 66.8462 48.8514 65.8092 50.5494C64.5652 52.422 63.7845 54.5652 63.532 56.8011C63.5494 59.2888 63.3535 61.7734 62.9464 64.2274C62.543 66.4853 61.9054 67.9472 61.0075 68.6259L61.1767 68.7955C61.1717 68.9338 61.1393 69.0697 61.0815 69.1954C61.0236 69.321 60.9415 69.4339 60.8398 69.5274C60.7381 69.6209 60.6188 69.6932 60.489 69.7401C60.3592 69.787 60.2214 69.8075 60.0836 69.8005C59.459 69.8005 59.1467 69.4611 59.1467 68.7955C59.1354 68.6103 59.196 68.4279 59.3159 68.2865C58.5084 66.9834 58.018 65.5079 57.8845 63.9794C57.6112 62.0087 57.416 59.8943 57.2989 57.6495V57.3101C57.2326 54.88 56.5035 52.5147 55.1909 50.4711C54.1421 48.8055 52.9303 47.249 51.5734 45.8247C49.8335 44.4285 48.2022 42.9014 46.6936 41.2567C45.1288 39.7351 44 35.5139 44 35.5139C44 35.5139 50.8186 35.5236 60.4219 35.5149ZM54.7744 92.3536C52.1719 94.964 50.7145 96.5127 50.4022 97H70.4286C70.1033 96.5432 68.6329 94.9901 66.0564 92.3536C64.471 90.5095 62.5938 88.9398 60.5 87.7073C59.2638 88.1641 57.3509 89.7042 54.7744 92.3536ZM58.9905 86.1019C58.9905 86.7284 58.7043 87.0286 58.1447 87.0286C57.5852 87.0286 57.2989 86.7284 57.2989 86.1019C57.2989 85.4754 57.5852 85.1753 58.1447 85.1753C58.7043 85.1753 58.9905 85.4885 58.9905 86.1019ZM60.5 76.6395C60.5 76.8853 60.4027 77.121 60.2294 77.2948C60.0561 77.4686 59.8211 77.5662 59.5761 77.5662C59.3311 77.5662 59.0961 77.4686 58.9228 77.2948C58.7495 77.121 58.6522 76.8853 58.6522 76.6395C58.6223 76.3841 58.6924 76.1271 58.8478 75.9225C59.0031 75.718 59.2316 75.582 59.485 75.5432C59.624 75.5465 59.7609 75.5777 59.8877 75.635C60.0145 75.6922 60.1286 75.7743 60.2232 75.8765C60.3178 75.9787 60.391 76.0989 60.4386 76.23C60.4861 76.361 60.507 76.5002 60.5 76.6395ZM61.515 80.1896C61.488 80.418 61.3784 80.6286 61.2069 80.7814C61.0354 80.9343 60.814 81.0187 60.5846 81.0187C60.3552 81.0187 60.1338 80.9343 59.9623 80.7814C59.7908 80.6286 59.6812 80.418 59.6542 80.1896C59.6245 79.9322 59.6964 79.6734 59.8545 79.4686C60.0125 79.2637 60.2442 79.129 60.5 79.0932C60.639 79.0965 60.7759 79.1277 60.9027 79.185C61.0295 79.2422 61.1435 79.3244 61.2381 79.4266C61.3328 79.5288 61.406 79.6489 61.4535 79.7799C61.5011 79.911 61.522 80.0503 61.515 80.1896ZM62.0095 72.0845C62.0095 72.2062 61.9856 72.3267 61.9391 72.4392C61.8927 72.5516 61.8247 72.6537 61.7389 72.7398C61.6531 72.8258 61.5512 72.894 61.4391 72.9406C61.327 72.9872 61.2069 73.0112 61.0856 73.0112C60.9642 73.0112 60.8441 72.9872 60.732 72.9406C60.6199 72.894 60.5181 72.8258 60.4323 72.7398C60.3465 72.6537 60.2784 72.5516 60.232 72.4392C60.1856 72.3267 60.1617 72.2062 60.1617 72.0845C60.1547 71.9452 60.1756 71.8059 60.2231 71.6749C60.2707 71.5438 60.3439 71.4237 60.4385 71.3215C60.5331 71.2193 60.6472 71.1372 60.774 71.08C60.9007 71.0227 61.0377 70.9915 61.1767 70.9882C61.4301 71.0271 61.6586 71.163 61.8139 71.3676C61.9693 71.5721 62.0394 71.8291 62.0095 72.0845ZM62.517 84.2486C62.517 84.4944 62.4196 84.7301 62.2464 84.9039C62.0731 85.0777 61.8381 85.1753 61.5931 85.1753C61.348 85.1753 61.113 85.0777 60.9398 84.9039C60.7665 84.7301 60.6692 84.4944 60.6692 84.2486C60.6527 84.1209 60.6616 83.9911 60.6953 83.8669C60.7289 83.7426 60.7867 83.6262 60.8653 83.5244C60.9438 83.4225 61.0417 83.3372 61.1532 83.2734C61.2647 83.2095 61.3876 83.1683 61.515 83.1522C61.6534 83.1555 61.7898 83.1867 61.9159 83.2441C62.042 83.3016 62.1553 83.3839 62.2488 83.4863C62.3424 83.5887 62.4144 83.709 62.4605 83.84C62.5066 83.971 62.5258 84.11 62.517 84.2486Z" fill="#FFBC1F"/>
<path d="M35 19C35 17.3431 36.236 16 37.7607 16H82.2393C83.764 16 85 17.3431 85 19C85 20.6569 83.764 22 82.2393 22H37.7607C36.236 22 35 20.6569 35 19Z" fill="#3F4350"/>
<path d="M35 99.5C35 98.1193 36.236 97 37.7607 97H82.2393C83.764 97 85 98.1193 85 99.5C85 100.881 83.764 102 82.2393 102H37.7607C36.236 102 35 100.881 35 99.5Z" fill="#3F4350"/>
<path opacity="0.32" d="M88.218 122.29C80.7724 122.141 74.5976 119.592 69.6936 114.642C64.7897 109.693 62.2252 103.528 62 96.1479C62.2213 88.7639 64.7859 82.5971 69.6936 77.6477C74.6014 72.6983 80.7762 70.1491 88.218 70C95.591 70.1529 101.73 72.7021 106.633 77.6477C111.537 82.5933 114.102 88.76 114.327 96.1479C114.098 103.532 111.534 109.697 106.633 114.642C101.733 119.588 95.5948 122.137 88.218 122.29Z" fill="#3F4350" fill-opacity="0.32"/>
<path d="M89.2168 66.5C96.4645 66.6523 102.474 69.1544 107.278 74C112.084 78.8463 114.601 84.8847 114.826 92.1475C114.598 99.4067 112.08 105.444 107.278 110.29C102.477 115.135 96.4683 117.637 89.2168 117.789C81.8963 117.64 75.8521 115.138 71.0488 110.29C66.243 105.44 63.7245 99.4028 63.5 92.1475C63.7209 84.8886 66.2394 78.8503 71.0488 74C75.8561 69.1519 81.9002 66.649 89.2168 66.5Z" fill="white" stroke="#3F4350"/>
<path d="M89.0416 112C83.35 111.886 78.6299 109.936 74.8812 106.15C71.1325 102.364 69.1721 97.6478 69 92.0022C69.1692 86.3537 71.1296 81.6364 74.8812 77.8502C78.6328 74.0641 83.3529 72.114 89.0416 72C94.6777 72.1169 99.3701 74.067 103.119 77.8502C106.867 81.6334 108.828 86.3508 109 92.0022C108.825 97.6507 106.865 102.367 103.119 106.15C99.373 109.933 94.6806 111.883 89.0416 112Z" fill="white"/>
<path d="M89.041 72.5C94.5514 72.6165 99.1143 74.5191 102.764 78.2021C106.414 81.8861 108.327 86.4754 108.499 92.002C108.325 97.5258 106.411 102.114 102.764 105.798C99.1173 109.481 94.5543 111.383 89.041 111.499C83.4744 111.385 78.8845 109.483 75.2363 105.798C71.5857 102.111 69.6715 97.5227 69.5 92.002C69.6687 86.4784 71.583 81.8892 75.2363 78.2021C78.8876 74.5173 83.4774 72.6138 89.041 72.5Z" stroke="#3F4350" stroke-opacity="0.32"/>
<path d="M89 70.5V92L98.5 101.5" stroke="#3F4350" stroke-opacity="0.8" stroke-linejoin="round"/>
<circle cx="89" cy="92" r="2" fill="#3F4350" fill-opacity="0.8"/>
</svg>
