<svg width="222" height="136" viewBox="0 0 222 136" fill="none" xmlns="http://www.w3.org/2000/svg">
<rect width="82" height="78" rx="3.01587" transform="matrix(1 0 0 -1 121 83.1595)" fill="#3F4350" fill-opacity="0.16"/>
<rect width="63" height="52" rx="3.01587" transform="matrix(1 0 0 -1 19 130.16)" fill="#3F4350" fill-opacity="0.16"/>
<path d="M12 24.4558L12 38.1595L143.001 38.1595L143.001 3.65952" stroke="#3F4350" stroke-opacity="0.32" stroke-linecap="round"/>
<ellipse cx="2" cy="2" rx="2" ry="2" transform="matrix(1 8.74228e-08 8.74228e-08 -1 10 24.1595)" fill="#3F4350" fill-opacity="0.48"/>
<path d="M11.573 127.392L11.573 103.093L35.4214 103.093" stroke="#3F4350" stroke-opacity="0.32" stroke-linecap="round"/>
<circle cx="2.24985" cy="2.24985" r="2.24985" transform="matrix(1 8.74228e-08 8.74228e-08 -1 9.32312 131.891)" fill="#3F4350" fill-opacity="0.48"/>
<rect x="37.68" y="16.7081" width="149.372" height="97.7757" rx="5.41732" fill="white" stroke="#3F4350" stroke-width="5.41732"/>
<g clip-path="url(#clip0_3901_6341)">
<rect width="137.691" height="85.4942" transform="translate(43.5208 22.9988)" fill="white"/>
<rect x="43.5208" y="22.9988" width="45.6761" height="98.3792" fill="#1C58D9" fill-opacity="0.16"/>
<path d="M59.3319 30.0259L76.0212 30.0259" stroke="#3F4350" stroke-opacity="0.32" stroke-linecap="round"/>
<path d="M59.3319 32.661L68.9942 32.661" stroke="#3F4350" stroke-opacity="0.32" stroke-linecap="round"/>
<path d="M94.4672 30.4652H115.548" stroke="#3F4350" stroke-opacity="0.32" stroke-linecap="round"/>
<path d="M47.9127 41.445H61.0885" stroke="#3F4350" stroke-opacity="0.32" stroke-linecap="round"/>
<circle cx="51.0302" cy="30.5083" r="4.34771" fill="#3F4350" fill-opacity="0.32"/>
<circle cx="49.0001" cy="46.1595" r="2" fill="#3F4350" fill-opacity="0.32"/>
<path d="M54.9396 46.1595H79.5344" stroke="#3F4350" stroke-opacity="0.32" stroke-linecap="round"/>
<circle cx="104" cy="44.1596" r="5" fill="#3F4350" fill-opacity="0.32"/>
<path d="M112 44.1596H165.057" stroke="#3F4350" stroke-opacity="0.32" stroke-linecap="round"/>
<path d="M112 48.1596H165.057" stroke="#3F4350" stroke-opacity="0.32" stroke-linecap="round"/>
<path d="M112 40.1596H125.176" stroke="#3F4350" stroke-opacity="0.32" stroke-linecap="round"/>
<circle cx="104" cy="63.1594" r="5" fill="#3F4350" fill-opacity="0.32"/>
<path d="M112 63.1594H165.057" stroke="#3F4350" stroke-opacity="0.32" stroke-linecap="round"/>
<path d="M112 67.1594H165.057" stroke="#3F4350" stroke-opacity="0.32" stroke-linecap="round"/>
<path d="M112 59.1594H125.176" stroke="#3F4350" stroke-opacity="0.32" stroke-linecap="round"/>
<circle cx="104" cy="82.1592" r="5" fill="#3F4350" fill-opacity="0.32"/>
<path d="M112 82.1592H165.057" stroke="#3F4350" stroke-opacity="0.32" stroke-linecap="round"/>
<path d="M112 86.1592H165.057" stroke="#3F4350" stroke-opacity="0.32" stroke-linecap="round"/>
<path d="M112 78.1592H125.176" stroke="#3F4350" stroke-opacity="0.32" stroke-linecap="round"/>
<circle cx="49.0001" cy="53.1597" r="2" fill="#3F4350" fill-opacity="0.32"/>
<path d="M54.9396 53.1597H74.2641" stroke="#3F4350" stroke-opacity="0.32" stroke-linecap="round"/>
<circle cx="49.0001" cy="61.1593" r="2" fill="#3F4350" fill-opacity="0.32"/>
<path d="M54.9396 61.1593H82.1695" stroke="#3F4350" stroke-opacity="0.32" stroke-linecap="round"/>
<circle cx="49.0001" cy="68.1594" r="2" fill="#3F4350" fill-opacity="0.32"/>
<path d="M54.9396 68.1594H79.5344" stroke="#3F4350" stroke-opacity="0.32" stroke-linecap="round"/>
<circle cx="49.0001" cy="75.1595" r="2" fill="#3F4350" fill-opacity="0.32"/>
<path d="M54.9396 75.1595H74.2641" stroke="#3F4350" stroke-opacity="0.32" stroke-linecap="round"/>
<circle cx="49.0001" cy="82.1596" r="2" fill="#3F4350" fill-opacity="0.32"/>
<path d="M54.9396 82.1596H82.1695" stroke="#3F4350" stroke-opacity="0.32" stroke-linecap="round"/>
</g>
<circle cx="22.8517" cy="53.8661" r="22.028" fill="white" stroke="#3F4350"/>
<path d="M36.4628 50.9614L36.4232 50.8602L32.5904 40.8575C32.5125 40.6614 32.3744 40.4951 32.196 40.3824C32.0175 40.2716 31.8094 40.2182 31.5996 40.2295C31.3898 40.2408 31.1886 40.3162 31.023 40.4454C30.8593 40.5784 30.7405 40.7586 30.6828 40.9616L28.0949 48.8793H17.6156L15.0276 40.9616C14.9715 40.7575 14.8525 40.5764 14.6875 40.444C14.5219 40.3147 14.3206 40.2393 14.1109 40.228C13.9011 40.2168 13.6929 40.2701 13.5145 40.3809C13.3365 40.4941 13.1985 40.6602 13.12 40.856L9.27992 50.8544L9.2418 50.9556C8.69005 52.3972 8.62195 53.9791 9.04775 55.4628C9.47356 56.9465 10.3702 58.2516 11.6025 59.1812L11.6157 59.1915L11.6509 59.2164L17.4895 63.5888L20.378 65.775L22.1375 67.1034C22.3433 67.2597 22.5946 67.3443 22.853 67.3443C23.1115 67.3443 23.3628 67.2597 23.5686 67.1034L25.3281 65.775L28.2166 63.5888L34.0904 59.19L34.1051 59.1783C35.3346 58.2485 36.2291 56.9448 36.6543 55.4631C37.0795 53.9813 37.0123 52.4017 36.4628 50.9614Z" fill="#E24329"/>
<path d="M36.4628 50.9613L36.4232 50.8602C34.5556 51.2435 32.7958 52.0346 31.2693 53.1769L22.8516 59.5419C25.7181 61.7105 28.2137 63.5946 28.2137 63.5946L34.0875 59.1958L34.1021 59.1841C35.3334 58.2543 36.2293 56.9498 36.6551 55.4668C37.0808 53.9838 37.0134 52.4027 36.4628 50.9613Z" fill="#FC6D26"/>
<path d="M17.4895 63.5947L20.378 65.7809L22.1375 67.1093C22.3433 67.2656 22.5947 67.3502 22.8531 67.3502C23.1115 67.3502 23.3628 67.2656 23.5686 67.1093L25.3281 65.7809L28.2166 63.5947C28.2166 63.5947 25.7181 61.7047 22.8516 59.542C19.9851 61.7047 17.4895 63.5947 17.4895 63.5947Z" fill="#FCA326"/>
<path d="M14.4323 53.1768C12.9071 52.0322 11.1476 51.239 9.27992 50.8542L9.2418 50.9554C8.69005 52.397 8.62195 53.979 9.04775 55.4627C9.47356 56.9464 10.3702 58.2515 11.6025 59.1811L11.6157 59.1914L11.6509 59.2163L17.4895 63.5887C17.4895 63.5887 19.9821 61.7045 22.8516 59.5359L14.4323 53.1768Z" fill="#FC6D26"/>
<circle cx="80.6871" cy="111.462" r="12.468" fill="white" stroke="#3F4350"/>
<path d="M86.657 104.893H79.5129C79.5129 106.618 80.9583 108.022 82.7339 108.022H84.0554V109.245C84.0554 110.97 85.5007 112.373 87.2764 112.373V105.495C87.2764 105.154 87.008 104.893 86.657 104.893Z" fill="#2684FF"/>
<path d="M83.1267 108.343H75.9827C75.9827 110.067 77.428 111.471 79.2037 111.471H80.5251V112.714C80.5251 114.439 81.9705 115.843 83.7462 115.843V108.944C83.7462 108.623 83.4777 108.343 83.1267 108.343Z" fill="url(#paint0_linear_3901_6341)"/>
<path d="M79.596 111.812H72.4519C72.4519 113.536 73.8972 114.94 75.6729 114.94H76.9944V116.164C76.9944 117.888 78.4397 119.292 80.2154 119.292V112.413C80.2154 112.072 79.9264 111.812 79.596 111.812Z" fill="url(#paint1_linear_3901_6341)"/>
<circle cx="129.792" cy="120.069" r="13.876" fill="white" stroke="#3F4350"/>
<path d="M132.473 120.068L131.306 120.241L129.732 120.42L128.713 120.445L127.718 120.414L126.959 120.179L126.286 119.451L125.761 117.962L125.644 117.641L124.946 117.407L124.538 116.734L124.248 115.77L124.569 114.924L125.329 114.659L125.94 114.949L126.23 115.591L126.582 115.536L126.7 115.387L126.582 114.714L126.551 113.868L126.724 112.701L126.718 112.034L127.249 111.182L128.182 110.509L129.812 109.811L131.621 110.077L133.196 111.213L133.925 112.38L134.394 113.226L134.511 115.326L134.159 117.135L133.517 118.74L132.912 119.599" fill="#F0D6B7"/>
<path d="M131.486 125.113L127.317 125.286V125.984L127.669 128.435L127.496 128.639L124.582 127.645L124.378 127.293L124.088 123.996L123.402 122.02L123.254 121.55L125.588 119.945L126.317 119.655L126.959 120.445L127.515 120.939L128.157 121.143L128.447 121.229L128.799 122.748L129.065 123.069L129.738 122.835L129.269 123.742L131.801 124.94L131.486 125.113" fill="#335061"/>
<path d="M124.569 114.937L125.329 114.671L125.94 114.962L126.23 115.604L126.582 115.548L126.669 115.196L126.496 114.523L126.669 112.918L126.52 112.041L127.045 111.43L128.182 110.528L127.86 110.09L126.255 110.88L125.582 111.405L125.205 112.22L124.625 113.01L124.452 113.943L124.569 114.937Z" fill="#6D6B6D"/>
<path d="M125.767 112.195C125.767 112.195 126.206 111.114 127.953 110.589C129.701 110.064 128.04 110.213 128.04 110.213L126.144 110.941L125.415 111.67L125.094 112.25L125.767 112.195ZM124.89 114.733C124.89 114.733 124.279 112.689 126.613 112.399L126.527 112.047L124.921 112.423L124.452 113.942L124.569 114.936L124.89 114.733Z" fill="#DCD9D8"/>
<path d="M125.823 117.444L126.205 117.074C126.205 117.074 126.378 117.092 126.409 117.296C126.44 117.5 126.527 119.34 127.78 120.328C127.898 120.42 126.848 120.18 126.848 120.18L125.915 118.722M131.189 116.888C131.189 116.888 131.257 116.005 131.498 116.073C131.739 116.141 131.739 116.382 131.739 116.382C131.739 116.382 131.158 116.752 131.189 116.888ZM133.61 113.653C133.61 113.653 133.128 113.751 133.085 114.178C133.042 114.604 133.61 114.264 133.696 114.233M130.084 113.684C130.084 113.684 129.441 113.77 129.441 114.178C129.441 114.585 130.17 114.554 130.374 114.381M126.119 115.579C126.119 115.579 125.014 114.906 124.896 115.548C124.779 116.191 124.52 116.654 125.069 117.327L124.693 117.209L124.341 116.308L124.223 115.431L124.896 114.733L125.656 114.789L126.094 115.141L126.119 115.579M126.644 113.739C126.644 113.739 127.138 111.17 129.645 110.676C131.708 110.269 132.795 110.763 133.202 111.232C133.202 111.232 131.362 109.046 129.614 109.713C127.867 110.386 126.582 111.609 126.613 112.393C126.662 113.739 126.644 113.739 126.644 113.739M133.406 111.522C133.406 111.522 132.56 111.491 132.529 112.251C132.529 112.251 132.529 112.368 132.585 112.486C132.585 112.486 133.258 111.726 133.665 112.134" fill="#F7E4CD"/>
<path d="M129.707 112.566C129.707 112.566 129.559 111.405 128.571 112.078C127.928 112.516 127.99 113.128 128.101 113.245C128.219 113.362 128.188 113.597 128.274 113.436C128.361 113.276 128.336 112.751 128.657 112.603C128.972 112.455 129.503 112.294 129.707 112.566Z" fill="#F7E4CD"/>
<path d="M126.965 120.445L124.223 121.667C124.223 121.667 125.36 126.187 124.779 127.589L124.372 127.441L124.341 125.718L123.581 122.458L123.26 121.556L126.119 119.629L126.965 120.445M127.243 122.945L127.632 123.421V125.168H127.169C127.169 125.168 127.114 123.946 127.114 123.798C127.114 123.649 127.169 123.125 127.169 123.125M127.256 125.434L125.94 125.49L126.317 125.755L127.249 125.903" fill="#49728B"/>
<path d="M131.745 125.144L132.826 125.113L133.091 127.793L131.986 127.941L131.745 125.144" fill="#335061"/>
<path d="M132.035 125.144L133.665 125.057C133.665 125.057 134.338 123.365 134.338 123.279C134.338 123.193 134.919 120.828 134.919 120.828L133.603 119.457L133.338 119.222L132.64 119.92V122.631L132.035 125.144Z" fill="#335061"/>
<path d="M132.764 124.94L131.745 125.144L131.893 125.959C132.27 126.132 132.912 125.669 132.912 125.669M132.795 119.833L134.839 121.352L134.894 120.655L133.35 119.228L132.795 119.833" fill="#49728B"/>
<path d="M128.268 130.887L127.663 128.435L127.36 126.626L127.311 125.286L130.046 125.138H131.745L131.59 128.2L131.856 130.565L131.825 131.004L129.608 131.177L128.268 130.887Z" fill="white"/>
<path d="M131.368 125.113C131.368 125.113 131.22 128.145 131.659 130.306C131.659 130.306 130.782 130.862 129.503 131.004L131.955 130.917L132.245 130.744L131.893 125.965L131.801 124.94" fill="#DCD9D8"/>
<path d="M133.134 127.565L134.27 127.244L136.426 127.126L136.747 126.132L136.166 124.409L135.493 124.323L134.561 124.613L133.671 125.052L133.196 124.965L132.825 125.113" fill="white"/>
<path d="M133.115 126.978C133.115 126.978 133.875 126.626 133.992 126.657L133.671 125.051L134.048 124.903C134.048 124.903 134.314 126.422 134.314 126.595C134.314 126.595 135.944 126.681 136.092 126.681C136.092 126.681 136.444 126.008 136.358 125.311L136.679 126.243L136.71 126.768L136.24 127.466L135.715 127.583L134.838 127.552L134.548 127.175L133.529 127.324L133.208 127.441" fill="#DCD9D8"/>
<path d="M131.967 124.909L131.325 123.279L130.652 122.316C130.652 122.316 130.8 121.908 131.004 121.908H131.677L132.319 122.143L132.264 123.224L131.967 124.909Z" fill="white"/>
<path d="M132.097 124.353C132.097 124.353 131.282 122.779 131.282 122.544C131.282 122.544 131.43 122.192 131.634 122.279C131.837 122.365 132.276 122.6 132.276 122.6V122.044L131.282 121.84L130.609 121.927L131.745 124.619L131.979 124.65" fill="#DCD9D8"/>
<path d="M128.528 120.506L127.719 120.42L126.959 120.185V120.451L127.33 120.858L128.497 121.383" fill="white"/>
<path d="M127.224 120.593C127.224 120.593 128.126 120.97 128.422 120.883L128.453 121.235L127.638 121.062L127.144 120.71L127.224 120.593Z" fill="#DCD9D8"/>
<path d="M133.134 122.007C132.64 121.995 132.189 121.933 131.8 121.822C131.825 121.661 131.776 121.507 131.819 121.39C131.93 121.309 132.109 121.309 132.276 121.291C132.134 121.223 131.93 121.192 131.769 121.235C131.763 121.124 131.714 121.056 131.683 120.97C131.961 120.871 132.615 120.223 132.986 120.433C133.165 120.538 133.239 121.118 133.251 121.408C133.264 121.643 133.227 121.878 133.134 122.007Z" fill="#D33833"/>
<path d="M130.769 121.198C130.769 121.235 130.769 121.272 130.763 121.309C130.609 121.408 130.361 121.408 130.189 121.494C130.436 121.507 130.633 121.568 130.806 121.649C130.8 121.741 130.8 121.84 130.794 121.933C130.51 122.124 130.25 122.414 129.917 122.6C129.756 122.686 129.207 122.908 129.04 122.865C128.947 122.841 128.935 122.723 128.898 122.612C128.818 122.377 128.632 121.995 128.614 121.636C128.595 121.186 128.546 120.426 129.034 120.519C129.429 120.593 129.886 120.772 130.189 120.939C130.38 121.05 130.485 121.173 130.769 121.198Z" fill="#D33833"/>
<path d="M131.047 121.735C131.004 121.488 130.954 121.42 130.973 121.204C131.634 120.766 131.751 121.958 131.047 121.735" fill="#D33833"/>
<path d="M131.998 121.933C131.998 121.933 131.794 121.643 131.942 121.556C132.091 121.47 132.233 121.556 132.319 121.408C132.406 121.26 132.319 121.173 132.35 121.001C132.381 120.828 132.523 120.797 132.671 120.766C132.819 120.735 133.227 120.679 133.283 120.821L133.11 120.297L132.758 120.179L131.652 120.821L131.597 121.143V121.785M128.935 122.896C128.898 122.439 128.861 121.989 128.824 121.532C128.762 120.852 128.985 120.97 129.577 120.97C129.67 120.97 130.133 121.075 130.164 121.143C130.325 121.47 129.898 121.396 130.349 121.643C130.726 121.846 131.399 121.519 131.245 121.056C131.158 120.951 130.8 121.025 130.67 120.957L129.985 120.605C129.695 120.457 129.028 120.235 128.719 120.445C127.935 120.976 128.768 122.31 129.046 122.865" fill="#EF3D3A"/>
<path d="M129.707 112.566C128.91 112.38 128.515 112.899 128.274 113.436C128.058 113.387 128.145 113.091 128.2 112.942C128.342 112.553 128.917 112.028 129.386 112.103C129.583 112.127 129.855 112.313 129.707 112.566ZM133.579 113.467H133.616C133.795 113.838 133.949 114.233 134.178 114.566C134.024 114.925 133.029 115.233 133.042 114.603C133.258 114.511 133.628 114.585 133.82 114.461C133.709 114.159 133.554 113.9 133.579 113.467M130.108 113.48C130.281 113.795 130.337 114.122 130.578 114.357C130.689 114.461 130.899 114.591 130.794 114.887C130.769 114.955 130.59 115.11 130.485 115.141C130.108 115.252 129.225 115.165 129.522 114.69C129.837 114.702 130.257 114.894 130.491 114.665C130.312 114.381 129.991 113.813 130.108 113.48ZM133.437 116.654C132.869 117.018 132.233 117.419 131.294 117.327C131.096 117.154 131.016 116.765 131.214 116.512C131.313 116.684 131.251 117.006 131.535 117.055C132.066 117.148 132.683 116.728 133.066 116.586C133.301 116.184 133.048 116.042 132.832 115.783C132.393 115.258 131.813 114.603 131.831 113.819C132.01 113.69 132.023 114.017 132.047 114.072C132.276 114.603 132.85 115.289 133.264 115.746C133.369 115.857 133.536 115.968 133.554 116.042C133.61 116.252 133.412 116.512 133.437 116.654M125.915 116.271C125.736 116.166 125.693 115.721 125.483 115.709C125.18 115.69 125.236 116.289 125.236 116.641C125.032 116.456 124.995 115.875 125.143 115.579C124.971 115.493 124.896 115.672 124.798 115.733C124.927 114.838 126.113 115.32 125.915 116.271M133.795 117.03C133.53 117.537 133.153 118.092 132.375 118.111C132.356 117.95 132.344 117.697 132.375 117.598C132.974 117.537 133.344 117.234 133.795 117.03ZM130.065 117.357C130.559 117.617 131.473 117.648 132.152 117.629C132.189 117.777 132.189 117.963 132.189 118.142C131.319 118.179 130.294 117.963 130.065 117.357ZM129.973 117.839C130.318 118.704 131.498 118.605 132.492 118.58C132.449 118.691 132.356 118.827 132.233 118.87C131.912 119 131.035 119.099 130.59 118.864C130.312 118.716 130.127 118.376 129.973 118.179C129.905 118.086 129.534 117.845 129.973 117.839Z" fill="#231F20"/>
<path d="M133.393 122.6C132.992 123.292 132.603 124.002 132.128 124.607C132.325 124.02 132.412 123.032 132.442 122.279C132.862 122.081 133.221 122.322 133.393 122.6" fill="#81B0C4"/>
<path d="M135.561 125.082C135.11 125.175 134.795 125.613 134.351 125.582C134.598 125.243 135.018 125.095 135.561 125.082ZM135.759 125.786C135.388 125.823 134.956 125.885 134.585 125.854C134.764 125.582 135.444 125.681 135.759 125.786ZM135.888 126.398C135.474 126.404 134.962 126.398 134.567 126.367C134.801 126.113 135.623 126.274 135.888 126.398Z" fill="#231F20"/>
<path d="M132.615 128.065C132.677 128.584 132.881 129.109 132.856 129.677C132.627 129.751 132.498 129.819 132.189 129.819C132.171 129.337 132.103 128.596 132.121 128.133C132.269 128.145 132.492 128.028 132.615 128.065Z" fill="#DCD9D8"/>
<path d="M131.949 120.408C131.739 120.544 131.566 120.71 131.362 120.858C130.917 120.883 130.677 120.828 130.355 120.574C130.362 120.556 130.392 120.562 130.392 120.537C130.868 120.747 131.473 120.451 131.949 120.408" fill="#F0D6B7"/>
<path d="M129.466 123.637C129.596 123.075 130.108 122.779 130.571 122.47C131.047 123.076 131.337 123.854 131.658 124.607C130.899 124.378 130.127 124.014 129.466 123.637Z" fill="#81B0C4"/>
<path d="M132.122 128.139C132.103 128.602 132.165 129.337 132.19 129.825C132.499 129.825 132.628 129.757 132.857 129.683C132.881 129.114 132.678 128.59 132.616 128.071C132.492 128.028 132.27 128.145 132.122 128.139ZM127.355 125.521C127.558 127.379 127.849 128.935 128.386 130.584C129.578 130.948 131.01 130.979 132.066 130.652C131.875 129.726 131.955 128.596 131.844 127.602C131.758 126.854 131.801 126.107 131.683 125.348C130.405 125.082 128.602 125.286 127.355 125.521ZM131.986 125.36C131.974 126.157 132.023 126.947 132.085 127.744C132.394 127.7 132.597 127.67 132.881 127.602C132.789 126.836 132.801 125.965 132.61 125.286C132.394 125.292 132.202 125.286 131.986 125.36V125.36ZM133.536 125.23C133.388 125.2 133.221 125.23 133.085 125.23C133.153 125.879 133.308 126.595 133.363 127.281C133.579 127.287 133.697 127.182 133.876 127.151C133.888 126.552 133.826 125.724 133.536 125.23ZM135.889 127.379C136.346 127.268 136.63 126.712 136.5 126.138C136.414 125.755 136.266 125.027 136.099 124.78C135.981 124.601 135.654 124.36 135.389 124.526C134.963 124.798 134.215 124.878 133.907 125.206C134.061 125.724 134.11 126.428 134.172 127.083C134.703 127.114 135.352 126.935 135.796 127.126C135.487 127.225 135.092 127.225 134.827 127.373C135.049 127.478 135.555 127.46 135.889 127.379V127.379ZM131.653 124.607C131.331 123.853 131.041 123.075 130.566 122.47C130.103 122.779 129.596 123.075 129.46 123.637C130.127 124.014 130.899 124.378 131.653 124.607ZM132.443 122.279C132.412 123.032 132.326 124.02 132.128 124.607C132.604 123.995 132.993 123.291 133.394 122.6C133.221 122.322 132.863 122.081 132.443 122.279L132.443 122.279ZM131.548 121.964C131.368 121.945 131.214 122.174 130.979 122.075C130.924 122.137 130.874 122.199 130.819 122.26C131.338 122.89 131.578 123.779 131.98 124.514C132.196 123.804 132.171 123.032 132.221 122.26C131.924 122.273 131.758 121.982 131.548 121.964V121.964ZM130.973 121.204C130.955 121.42 131.004 121.488 131.047 121.735C131.751 121.958 131.634 120.766 130.973 121.204ZM130.189 120.945C129.886 120.778 129.429 120.599 129.034 120.525C128.546 120.432 128.596 121.192 128.614 121.643C128.633 122.001 128.818 122.378 128.898 122.618C128.935 122.73 128.948 122.847 129.04 122.872C129.207 122.909 129.763 122.693 129.917 122.606C130.251 122.427 130.51 122.137 130.794 121.939C130.8 121.847 130.8 121.748 130.807 121.655C130.634 121.569 130.442 121.513 130.189 121.501C130.356 121.414 130.609 121.414 130.763 121.316C130.763 121.278 130.763 121.241 130.77 121.204C130.485 121.173 130.38 121.05 130.189 120.945ZM127.287 120.42C127.033 120.679 127.997 121.025 128.299 121.044C128.299 120.883 128.392 120.729 128.373 120.612C128.009 120.55 127.534 120.593 127.287 120.42ZM130.399 120.537C130.399 120.562 130.368 120.556 130.362 120.575C130.689 120.828 130.93 120.883 131.368 120.859C131.566 120.717 131.745 120.544 131.955 120.408C131.473 120.451 130.868 120.747 130.399 120.537H130.399ZM133.252 121.402C133.24 121.118 133.165 120.531 132.986 120.426C132.616 120.21 131.961 120.865 131.683 120.964C131.714 121.05 131.764 121.118 131.77 121.229C131.937 121.186 132.134 121.217 132.276 121.285C132.11 121.303 131.93 121.303 131.819 121.383C131.782 121.501 131.832 121.655 131.801 121.816C132.19 121.927 132.641 121.982 133.135 122.001C133.227 121.877 133.264 121.643 133.252 121.402ZM126.86 120.667C126.78 120.612 126.243 119.914 126.169 119.945C125.199 120.328 124.292 120.988 123.483 121.618C124.254 123.279 124.569 125.311 124.625 127.268C125.508 127.682 126.286 128.281 127.49 128.343C127.348 127.361 127.225 126.478 127.145 125.552C126.842 125.422 126.41 125.558 126.126 125.514C126.126 125.175 126.558 125.366 126.595 125.138C126.62 124.965 126.354 124.953 126.441 124.681C126.663 124.761 126.78 124.94 127.015 125.008C127.231 124.539 127.015 123.705 127.046 123.31C127.052 123.236 127.083 122.902 127.25 122.958C127.398 123.007 127.243 123.853 127.256 124.224C127.268 124.57 127.212 124.897 127.355 125.113C128.516 124.953 129.695 124.854 130.955 124.817C130.677 124.699 130.35 124.588 129.991 124.384C129.794 124.273 129.182 124.045 129.127 123.86C129.034 123.563 129.361 123.409 129.417 123.156C128.83 123.477 128.719 122.847 128.577 122.408C128.454 122.007 128.38 121.705 128.349 121.476C127.836 121.217 127.293 120.976 126.86 120.667ZM132.739 120.025C133.548 119.636 133.697 121.488 133.375 122.087C133.425 122.266 133.592 122.334 133.66 122.495C133.209 123.304 132.709 124.057 132.245 124.854C132.585 124.638 133.079 124.817 133.48 124.656C133.629 124.601 133.734 124.261 133.845 123.989C134.154 123.248 134.475 122.31 134.617 121.606C134.648 121.445 134.74 121.093 134.715 120.951C134.678 120.692 134.333 120.5 134.154 120.346C133.826 120.05 133.622 119.797 133.277 119.519C133.147 119.722 132.851 119.858 132.739 120.025V120.025ZM125.014 112.856C124.631 113.282 124.711 114.072 124.755 114.64C125.453 114.202 126.373 114.677 126.366 115.418C126.7 115.412 126.49 115.005 126.428 114.739C126.231 113.881 126.762 112.955 126.453 112.17C125.854 112.22 125.366 112.461 125.014 112.856V112.856ZM127.768 110.392C126.898 110.639 125.78 111.275 125.422 112.059C125.7 112.016 125.891 111.88 126.163 111.862C126.268 111.855 126.404 111.905 126.521 111.874C126.755 111.812 126.959 111.281 127.138 111.084C127.311 110.892 127.521 110.806 127.663 110.633C127.756 110.59 127.892 110.59 127.898 110.454C127.861 110.411 127.818 110.38 127.768 110.392ZM132.307 110.627C131.399 110.114 129.868 109.731 128.905 110.213C128.126 110.602 127.077 111.244 126.718 112.053C127.052 112.837 126.62 113.554 126.589 114.35C126.576 114.776 126.786 115.141 126.805 115.604C126.688 115.795 126.342 115.814 126.101 115.801C126.021 115.394 125.879 114.937 125.459 114.887C124.866 114.819 124.427 115.313 124.403 115.826C124.372 116.431 124.866 117.431 125.57 117.364C125.842 117.339 125.91 117.067 126.206 117.067C126.366 117.388 125.959 117.487 125.916 117.715C125.903 117.777 125.947 118.006 125.977 118.117C126.107 118.642 126.391 119.327 126.669 119.729C127.027 120.241 127.725 120.315 128.478 120.365C128.614 120.074 129.108 120.099 129.429 120.173C129.04 120.019 128.682 119.648 128.386 119.321C128.046 118.944 127.7 118.543 127.682 118.049C128.33 118.944 128.861 119.729 130.035 120.124C130.924 120.42 131.961 119.988 132.647 119.506C132.931 119.309 133.098 118.988 133.301 118.703C134.055 117.617 134.407 116.073 134.333 114.572C134.302 113.955 134.302 113.337 134.092 112.924C133.876 112.491 133.141 112.096 132.709 112.491C132.628 112.065 133.067 111.806 133.579 111.96C133.215 111.485 132.832 110.923 132.307 110.627ZM133.999 124.588C134.709 124.236 136.031 123.643 136.469 124.588C136.636 124.94 136.827 125.527 136.908 125.891C137.025 126.398 136.778 127.472 136.253 127.639C135.79 127.787 135.253 127.781 134.697 127.67C134.629 127.614 134.561 127.521 134.506 127.423C134.11 127.41 133.734 127.441 133.425 127.608C133.456 127.904 133.258 127.947 133.067 128.009C132.931 128.559 133.345 129.275 133.246 129.769C133.178 130.127 132.739 130.183 132.418 130.244C132.406 130.442 132.431 130.609 132.455 130.776C132.381 131.047 132.054 131.202 131.739 131.239C130.708 131.362 129.145 131.418 128.157 131.06C127.879 130.38 127.663 129.559 127.435 128.787C126.471 128.892 125.687 128.373 124.952 128.028C124.699 127.91 124.347 127.842 124.248 127.639C124.156 127.441 124.193 127.064 124.168 126.712C124.112 125.805 124.057 124.928 123.822 124.002C123.717 123.582 123.526 123.217 123.396 122.816C123.273 122.446 123.063 121.982 123.007 121.612C122.927 121.062 123.446 121.031 123.773 120.791C124.285 120.42 124.687 120.216 125.243 119.883C125.409 119.784 125.903 119.537 125.959 119.42C126.07 119.191 125.768 118.87 125.687 118.691C125.558 118.407 125.49 118.166 125.471 117.888C125.008 117.814 124.65 117.536 124.44 117.228C124.088 116.709 123.841 115.752 124.15 115.029C124.174 114.974 124.292 114.856 124.31 114.77C124.347 114.597 124.242 114.369 124.236 114.183C124.205 113.239 124.397 112.424 125.033 112.139C125.292 111.108 126.218 110.769 127.089 110.256C127.416 110.065 127.774 109.941 128.145 109.805C129.473 109.318 131.517 109.41 132.622 110.244C133.091 110.596 133.839 111.343 134.104 111.886C134.814 113.313 134.759 115.702 134.265 117.444C134.197 117.678 134.104 118.018 133.968 118.302C133.876 118.5 133.585 118.889 133.616 119.062C133.653 119.241 134.283 119.716 134.419 119.846C134.66 120.08 135.123 120.389 135.16 120.686C135.203 121.001 135.024 121.433 134.932 121.735C134.635 122.748 134.339 123.681 133.999 124.588Z" fill="#231F20"/>
<path d="M129.274 117.573C129.311 117.524 129.521 117.444 129.818 117.586C129.818 117.586 129.466 117.641 129.497 118.228L129.349 118.197C129.355 118.203 129.2 117.672 129.274 117.573Z" fill="#F7E4CD"/>
<path d="M131.831 122.587C131.831 122.674 131.757 122.748 131.671 122.748C131.584 122.748 131.51 122.674 131.51 122.587C131.51 122.501 131.584 122.427 131.671 122.427C131.763 122.427 131.831 122.501 131.831 122.587ZM131.992 123.335C131.992 123.421 131.918 123.495 131.831 123.495C131.745 123.495 131.671 123.421 131.671 123.335C131.671 123.248 131.745 123.174 131.831 123.174C131.924 123.174 131.992 123.242 131.992 123.335Z" fill="#1D1919"/>
<circle cx="179.424" cy="19.712" r="19.212" fill="white" stroke="#3F4350"/>
<path d="M179.423 32.384C186.422 32.384 192.095 26.7105 192.095 19.712C192.095 12.7134 186.422 7.04001 179.423 7.04001C172.425 7.04001 166.751 12.7134 166.751 19.712C166.751 26.7105 172.425 32.384 179.423 32.384Z" fill="#4A8CFF"/>
<path d="M171.292 15.745V21.7001C171.296 22.346 171.555 22.9642 172.014 23.4189C172.472 23.8736 173.093 24.1276 173.739 24.125H182.419C182.537 24.1256 182.649 24.0796 182.733 23.9971C182.816 23.9147 182.864 23.8025 182.865 23.6851V17.73C182.862 17.0841 182.602 16.4659 182.143 16.0112C181.685 15.5565 181.064 15.3025 180.418 15.3051H171.74C171.682 15.3044 171.624 15.3153 171.57 15.3371C171.516 15.3589 171.467 15.3911 171.425 15.432C171.383 15.4729 171.35 15.5216 171.328 15.5753C171.305 15.629 171.293 15.6867 171.292 15.745ZM183.417 18.068L187.001 15.4499C187.312 15.1919 187.554 15.2568 187.554 15.7235V23.7066C187.554 24.2377 187.259 24.1733 187.001 23.9796L183.417 21.3675V18.068Z" fill="white"/>
<circle cx="196.656" cy="104.139" r="24.8439" fill="white" stroke="#3F4350"/>
<path d="M196.593 87.9469C187.686 87.9469 180.464 95.2086 180.464 104.167C180.464 111.333 185.086 117.413 191.494 119.558C192.3 119.708 192.596 119.206 192.596 118.778C192.596 118.391 192.581 117.113 192.574 115.758C188.087 116.739 187.14 113.844 187.14 113.844C186.407 111.969 185.349 111.471 185.349 111.471C183.886 110.464 185.46 110.485 185.46 110.485C187.079 110.599 187.932 112.156 187.932 112.156C189.371 114.636 191.706 113.919 192.626 113.505C192.771 112.456 193.189 111.741 193.65 111.336C190.067 110.925 186.301 109.535 186.301 103.32C186.301 101.549 186.931 100.102 187.963 98.966C187.796 98.5574 187.244 96.9078 188.12 94.6736C188.12 94.6736 189.474 94.2377 192.556 96.3362C193.843 95.9767 195.223 95.7966 196.593 95.7905C197.964 95.7966 199.345 95.9767 200.634 96.3362C203.713 94.2377 205.065 94.6736 205.065 94.6736C205.943 96.9078 205.391 98.5574 205.223 98.966C206.257 100.102 206.883 101.549 206.883 103.32C206.883 109.549 203.11 110.921 199.518 111.323C200.097 111.826 200.612 112.813 200.612 114.326C200.612 116.497 200.594 118.243 200.594 118.778C200.594 119.209 200.884 119.715 201.702 119.556C208.107 117.409 212.723 111.331 212.723 104.167C212.723 95.2086 205.501 87.9469 196.593 87.9469Z" fill="#161614"/>
<path d="M186.505 111.052C186.47 111.132 186.344 111.157 186.229 111.101C186.112 111.048 186.046 110.939 186.084 110.858C186.119 110.775 186.245 110.752 186.362 110.807C186.479 110.86 186.546 110.971 186.505 111.052ZM187.299 111.764C187.222 111.836 187.071 111.802 186.969 111.689C186.864 111.576 186.844 111.425 186.922 111.352C187.001 111.28 187.147 111.314 187.253 111.427C187.359 111.541 187.379 111.691 187.299 111.764M187.843 112.675C187.744 112.744 187.583 112.679 187.483 112.535C187.384 112.391 187.384 112.218 187.485 112.148C187.585 112.079 187.744 112.141 187.845 112.284C187.944 112.431 187.944 112.604 187.843 112.675M188.764 113.73C188.675 113.828 188.487 113.801 188.349 113.667C188.208 113.537 188.169 113.351 188.257 113.253C188.347 113.155 188.536 113.182 188.675 113.315C188.815 113.446 188.858 113.633 188.764 113.73M189.953 114.086C189.914 114.213 189.733 114.27 189.55 114.217C189.368 114.161 189.248 114.012 189.285 113.884C189.323 113.756 189.505 113.696 189.689 113.753C189.872 113.809 189.991 113.957 189.953 114.086M191.307 114.237C191.312 114.371 191.157 114.482 190.965 114.484C190.772 114.488 190.616 114.38 190.614 114.248C190.614 114.113 190.765 114.003 190.958 114C191.15 113.996 191.307 114.104 191.307 114.237ZM192.637 114.185C192.66 114.316 192.527 114.45 192.336 114.486C192.149 114.52 191.976 114.44 191.952 114.31C191.929 114.176 192.065 114.042 192.251 114.008C192.442 113.974 192.613 114.053 192.637 114.185Z" fill="#161614"/>
<circle cx="2" cy="2" r="2" transform="matrix(1 8.74228e-08 8.74228e-08 -1 141 4.15952)" fill="#3F4350" fill-opacity="0.48"/>
<defs>
<linearGradient id="paint0_linear_3901_6341" x1="83.5942" y1="108.36" x2="80.648" y2="111.488" gradientUnits="userSpaceOnUse">
<stop offset="0.176" stop-color="#0052CC"/>
<stop offset="1" stop-color="#2684FF"/>
</linearGradient>
<linearGradient id="paint1_linear_3901_6341" x1="80.262" y1="111.835" x2="76.8497" y2="115.253" gradientUnits="userSpaceOnUse">
<stop offset="0.176" stop-color="#0052CC"/>
<stop offset="1" stop-color="#2684FF"/>
</linearGradient>
<clipPath id="clip0_3901_6341">
<rect width="137.691" height="85.4942" fill="white" transform="translate(43.5208 22.9988)"/>
</clipPath>
</defs>
</svg>
