<svg width="130" height="92" viewBox="0 0 130 92" fill="none" xmlns="http://www.w3.org/2000/svg">
<g clip-path="url(#clip0_3901_5533)">
<path d="M2.50001 6.00001L2.5 21L127.5 21L127.5 65L66 65" stroke="#3F4350" stroke-opacity="0.24" stroke-linecap="round"/>
<path d="M2.5 59L2.5 32L29 32" stroke="#3F4350" stroke-opacity="0.24" stroke-linecap="round"/>
<path d="M18.5 60.5L18.5 46.5L106 46.5" stroke="#3F4350" stroke-opacity="0.24" stroke-linecap="round"/>
<circle cx="2.5" cy="2.5" r="2.5" transform="matrix(1 8.74228e-08 8.74228e-08 -1 0 6)" fill="#3F4350" fill-opacity="0.32"/>
<circle cx="2.5" cy="2.5" r="2.5" transform="matrix(1 8.74228e-08 8.74228e-08 -1 0 64)" fill="#3F4350" fill-opacity="0.32"/>
<circle cx="2.5" cy="2.5" r="2.5" transform="matrix(1 8.74228e-08 8.74228e-08 -1 16 64)" fill="#3F4350" fill-opacity="0.4"/>
<circle cx="71" cy="49" r="43" fill="#3F4350" fill-opacity="0.12"/>
<path d="M109.748 82.5258L117.999 91V47C117.999 45.8954 117.104 45 115.999 45H74.9998C73.8952 45 72.9998 45.8954 72.9998 47V79.9211C72.9998 81.0256 73.8952 81.9211 74.9998 81.9211H108.315C108.855 81.9211 109.371 82.1391 109.748 82.5258Z" fill="#28427B"/>
<circle opacity="0.48" cx="85.831" cy="56.831" r="5.83099" fill="white"/>
<path opacity="0.4" d="M95 55H111" stroke="white" stroke-linecap="round"/>
<path opacity="0.4" d="M81 70H102.38" stroke="white" stroke-linecap="round"/>
<path opacity="0.4" d="M81 74H95.2535" stroke="white" stroke-linecap="round"/>
<path opacity="0.4" d="M95 59H109" stroke="white" stroke-linecap="round"/>
<path opacity="0.4" d="M81 66H92.0141" stroke="white" stroke-linecap="round"/>
<path opacity="0.4" d="M94.6064 66H106.268" stroke="white" stroke-linecap="round"/>
<path d="M28.605 57.5638L15 71V2C15 0.895431 15.8954 0 17 0H83C84.1046 0 85 0.89543 85 2V54.9868C85 56.0914 84.1046 56.9868 83 56.9868H30.0103C29.4842 56.9868 28.9793 57.1941 28.605 57.5638Z" fill="white"/>
<path d="M17 0.5H83C83.8284 0.5 84.5 1.17157 84.5 2V54.9873C84.4998 55.8155 83.8283 56.4873 83 56.4873H30.0107C29.3532 56.4873 28.7218 56.746 28.2539 57.208L15.5 69.8027V2C15.5 1.17157 16.1716 0.5 17 0.5Z" stroke="#3F4350" stroke-opacity="0.8"/>
<circle cx="33" cy="19" r="9" fill="#3F4350" fill-opacity="0.4"/>
<path d="M48 15H64" stroke="#3F4350" stroke-opacity="0.4" stroke-linecap="round"/>
<path d="M25 39H69" stroke="#3F4350" stroke-opacity="0.4" stroke-linecap="round"/>
<path d="M25 45H47" stroke="#3F4350" stroke-opacity="0.4" stroke-linecap="round"/>
<path d="M48 21H73" stroke="#3F4350" stroke-opacity="0.4" stroke-linecap="round"/>
<path d="M25 33H42" stroke="#3F4350" stroke-opacity="0.4" stroke-linecap="round"/>
<path d="M46 33H64" stroke="#3F4350" stroke-opacity="0.4" stroke-linecap="round"/>
<circle cx="44" cy="65" r="2" fill="#3F4350" fill-opacity="0.32"/>
<circle cx="52" cy="65" r="2" fill="#3F4350" fill-opacity="0.32"/>
<circle cx="60" cy="65" r="2" fill="#3F4350" fill-opacity="0.32"/>
<path d="M101 33L83 33" stroke="#3F4350" stroke-opacity="0.8" stroke-linecap="round" stroke-linejoin="round"/>
<path d="M79 33L73 33" stroke="#3F4350" stroke-opacity="0.8" stroke-linecap="round" stroke-linejoin="round"/>
<path d="M70 33L68 33" stroke="#3F4350" stroke-opacity="0.8" stroke-linecap="round" stroke-linejoin="round"/>
</g>
<defs>
<clipPath id="clip0_3901_5533">
<rect width="130" height="92" fill="white"/>
</clipPath>
</defs>
</svg>
