<svg width="137" height="119" viewBox="0 0 137 119" fill="none" xmlns="http://www.w3.org/2000/svg">
<g clip-path="url(#clip0_3901_5613)">
<ellipse cx="68.425" cy="59.5" rx="59.5" ry="59.5" fill="#3F4350" fill-opacity="0.08"/>
<path d="M1.48755 49.6825L1.48755 58.6075L116.323 58.6075L116.323 68.1275L133.28 68.1275" stroke="#3F4350" stroke-opacity="0.32" stroke-linecap="round"/>
<path d="M24.0975 81.515L24.0975 65.45L39.865 65.45" stroke="#3F4350" stroke-opacity="0.32" stroke-linecap="round"/>
<ellipse cx="1.4875" cy="1.4875" rx="1.4875" ry="1.4875" transform="matrix(1 8.74228e-08 8.74228e-08 -1 0 49.98)" fill="#3F4350" fill-opacity="0.56"/>
<ellipse cx="1.4875" cy="1.4875" rx="1.4875" ry="1.4875" transform="matrix(1 8.74228e-08 8.74228e-08 -1 22.61 84.49)" fill="#3F4350" fill-opacity="0.56"/>
<ellipse cx="1.4875" cy="1.4875" rx="1.4875" ry="1.4875" transform="matrix(1 8.74228e-08 8.74228e-08 -1 132.09 69.615)" fill="#3F4350" fill-opacity="0.56"/>
<path d="M32.1277 43.4351L68.872 15.4701C83.5774 26.6619 105.313 43.4351 105.313 43.4351V95.2001H32.1277V43.4351Z" fill="white" stroke="#3F4350" stroke-linejoin="round"/>
<path fill-rule="evenodd" clip-rule="evenodd" d="M34.3142 44.1455L68.8649 17.8501C82.6923 28.3737 103.13 44.1455 103.13 44.1455V92.8201H34.3142V44.1455Z" fill="#3F4350" fill-opacity="0.24"/>
<mask id="mask0_3901_5613" style="mask-type:alpha" maskUnits="userSpaceOnUse" x="33" y="22" width="71" height="49">
<path d="M68.867 70.8051L33.915 44.6251V22.6101H103.53V44.6251C103.53 44.6251 82.855 60.3276 68.867 70.8051Z" fill="#D9D9D9"/>
</mask>
<g mask="url(#mask0_3901_5613)">
<rect x="91.7251" y="25.49" width="66.235" height="46.005" transform="rotate(90 91.7251 25.49)" fill="white" stroke="#3F4350"/>
</g>
<path d="M69.02 59.23C74.6064 59.23 79.135 54.7014 79.135 49.115C79.135 43.5286 74.6064 39 69.02 39C63.4337 39 58.905 43.5286 58.905 49.115C58.905 54.7014 63.4337 59.23 69.02 59.23Z" fill="#3DB887"/>
<path d="M64.5007 50L67.7659 52.95L74.0007 46.5" stroke="white" stroke-width="1.19" stroke-linecap="round" stroke-linejoin="round"/>
<path d="M68.8662 70.7708L104.124 44.03V94.605H33.3192V44.03L68.8662 70.7708Z" fill="white"/>
<path d="M33.9142 44.625L68.8661 70.805C82.8541 60.3276 103.529 44.625 103.529 44.625" stroke="#3F4350" stroke-linejoin="round"/>
<path d="M86.5007 98L68.0007 98" stroke="#3F4350" stroke-linecap="round" stroke-linejoin="round"/>
<path d="M65.0007 98L59.0007 98" stroke="#3F4350" stroke-linecap="round" stroke-linejoin="round"/>
<path d="M56.0007 98L54.0007 98" stroke="#3F4350" stroke-linecap="round" stroke-linejoin="round"/>
<path d="M29.6375 29.8795L35 35.2314V9.30499C35 8.64777 34.4672 8.11499 33.81 8.11499H9.73492C9.0777 8.11499 8.54492 8.64777 8.54492 9.30499V28.6895C8.54492 29.3467 9.0777 29.8795 9.73492 29.8795H29.6375Z" fill="#CCC4AE"/>
<path d="M15.157 14.7288H23.0935" stroke="#3F4350" stroke-linecap="round"/>
<path d="M15.157 18.0356H29.7073" stroke="#3F4350" stroke-linecap="round"/>
<path d="M15.157 22.0039H21.1094" stroke="#3F4350" stroke-linecap="round"/>
<path d="M22.432 22.0039H28.3844" stroke="#3F4350" stroke-linecap="round"/>
<path d="M104.987 33.6645L96.9856 41.65V2.37999C96.9856 1.72278 97.5184 1.18999 98.1756 1.18999H135.269C135.926 1.18999 136.459 1.72278 136.459 2.37999V32.4745C136.459 33.1317 135.926 33.6645 135.269 33.6645H104.987Z" fill="#28427B"/>
<path d="M106.854 11.0583H118.696" stroke="white" stroke-linecap="round"/>
<path d="M106.854 15.9924H128.564" stroke="white" stroke-linecap="round"/>
<path d="M106.854 21.9134H115.736" stroke="white" stroke-linecap="round"/>
<path d="M117.709 21.9134H126.591" stroke="white" stroke-linecap="round"/>
<rect x="59" y="30" width="19.5" height="4.5" rx="1.5" fill="#3F4350" fill-opacity="0.16"/>
<path d="M35.5 51.5V91.5H58M60 91.5H64M66 91.5H68" stroke="#3F4350" stroke-opacity="0.32" stroke-linecap="round" stroke-linejoin="round"/>
</g>
<defs>
<clipPath id="clip0_3901_5613">
<rect width="136.255" height="119" fill="white"/>
</clipPath>
</defs>
</svg>
